{"glyphs":{"0":{"ha":878,"x_min":79,"x_max":831,"o":"m 357 -14 q 149 63 218 -14 q 79 276 79 139 q 96 426 79 346 q 251 787 146 665 q 554 908 356 908 q 765 836 699 908 q 831 625 831 764 q 807 426 831 540 q 652 103 763 219 q 357 -14 542 -14 m 365 21 q 630 132 529 21 q 769 426 731 243 q 796 633 796 550 q 738 813 796 753 q 546 874 679 874 q 276 762 372 874 q 133 426 181 650 q 115 271 115 346 q 365 21 115 21 z "},"1":{"ha":372,"x_min":144,"x_max":376,"o":"m 329 869 l 185 843 l 192 879 l 376 908 l 183 0 l 144 0 l 329 869 z "},"2":{"ha":683,"x_min":6,"x_max":663,"o":"m 13 33 q 138 189 60 118 q 339 350 217 260 q 540 521 481 454 q 618 674 600 588 q 625 733 625 708 q 578 837 625 800 q 428 874 532 874 q 219 839 322 874 l 226 875 q 324 899 267 890 q 431 908 381 908 q 603 863 543 908 q 663 732 663 817 q 656 674 663 708 q 603 551 640 606 q 515 452 567 497 q 372 338 464 407 l 336 311 q 161 168 224 225 q 54 35 99 111 l 529 35 l 522 0 l 6 0 l 13 33 z "},"3":{"ha":692,"x_min":8,"x_max":661,"o":"m 215 -14 q 99 -4 154 -14 q 8 19 43 6 l 17 56 q 224 21 107 21 q 441 74 363 21 q 543 238 519 128 q 550 293 550 269 q 338 438 550 438 l 221 438 l 236 472 l 335 472 q 524 526 453 472 q 617 681 594 581 q 624 739 624 715 q 574 840 624 807 q 411 874 524 874 q 200 839 307 874 l 207 875 q 303 899 243 889 q 418 908 364 908 q 602 865 543 908 q 661 740 661 821 q 654 681 661 715 q 579 537 636 601 q 431 454 522 472 q 549 396 511 439 q 586 290 586 353 q 581 238 586 261 q 462 49 554 113 q 215 -14 369 -14 z "},"4":{"ha":738,"x_min":25,"x_max":693,"o":"m 513 225 l 25 225 l 35 269 l 653 894 l 693 894 l 558 260 l 658 260 l 651 225 l 551 225 l 504 0 l 465 0 l 513 225 m 519 260 l 643 842 l 68 260 l 519 260 z "},"5":{"ha":696,"x_min":13,"x_max":654,"o":"m 221 -14 q 101 -5 157 -14 q 13 19 44 4 l 21 56 q 231 21 108 21 q 444 82 363 21 q 551 258 526 143 q 563 347 563 311 q 515 449 563 417 q 354 482 468 482 l 107 482 l 118 533 l 218 894 l 654 894 l 640 860 l 242 860 l 147 517 l 349 517 q 539 474 479 517 q 599 343 599 432 q 589 258 599 301 q 468 56 560 126 q 221 -14 376 -14 z "},"6":{"ha":768,"x_min":58,"x_max":713,"o":"m 303 -14 q 121 38 183 -14 q 58 201 58 89 q 72 317 58 256 l 121 546 q 262 812 157 715 q 525 908 367 908 q 713 883 632 908 l 704 847 q 517 874 633 874 q 282 785 372 874 q 161 550 192 696 l 142 458 q 289 527 211 504 q 429 550 367 550 q 611 499 549 550 q 674 350 674 447 q 664 269 674 321 q 543 61 635 136 q 303 -14 451 -14 m 310 21 q 520 88 439 21 q 626 269 601 154 q 636 356 636 313 q 585 474 636 433 q 417 515 535 515 q 274 490 350 515 q 133 422 197 464 l 106 289 q 94 194 94 233 q 147 64 94 107 q 310 21 199 21 z "},"7":{"ha":683,"x_min":140,"x_max":725,"o":"m 685 860 l 174 860 l 181 894 l 725 894 l 717 850 l 178 0 l 140 0 l 685 860 z "},"8":{"ha":786,"x_min":46,"x_max":747,"o":"m 311 -14 q 115 33 183 -14 q 46 168 46 79 q 53 225 46 190 q 136 381 72 317 q 301 463 200 444 q 201 522 233 481 q 168 621 168 564 q 174 671 168 649 q 285 844 197 781 q 508 908 372 908 q 686 861 625 908 q 747 729 747 814 q 740 671 747 706 q 510 446 704 496 q 637 387 596 428 q 678 281 678 346 q 672 225 678 251 q 555 47 647 108 q 311 -14 463 -14 m 454 461 q 626 534 568 486 q 703 671 685 582 q 710 729 710 706 q 659 837 710 800 q 500 874 608 874 q 309 820 386 874 q 211 671 232 767 q 206 619 206 647 q 238 533 206 567 q 340 485 269 500 l 454 461 m 319 21 q 530 73 447 21 q 635 225 613 125 q 642 281 642 260 q 603 370 642 339 q 476 419 564 401 l 349 446 q 90 225 131 410 q 85 171 85 199 q 141 58 85 96 q 319 21 197 21 z "},"9":{"ha":768,"x_min":89,"x_max":744,"o":"m 283 -14 q 89 11 161 -14 l 97 47 q 292 21 163 21 q 520 110 431 21 q 640 342 610 199 l 658 429 q 375 338 519 338 q 190 388 253 338 q 126 536 126 439 q 136 618 126 578 q 258 830 164 751 q 506 908 353 908 q 685 858 625 908 q 744 701 744 808 q 729 578 744 651 l 681 349 q 542 83 644 179 q 283 -14 439 -14 m 386 372 q 667 465 529 372 l 696 606 q 708 708 708 664 q 658 834 708 794 q 499 874 608 874 q 285 803 371 874 q 174 618 199 733 q 164 533 164 575 q 215 413 164 454 q 386 372 267 372 z "},"\r":{"ha":556,"x_min":0,"x_max":0,"o":""}," ":{"ha":556,"x_min":0,"x_max":0,"o":""},"A":{"ha":903,"x_min":6,"x_max":742,"o":"m 532 894 l 594 894 l 742 0 l 707 0 l 661 278 l 213 278 l 50 0 l 6 0 l 532 894 m 654 313 l 563 872 l 232 313 l 654 313 z "},"Á":{"ha":903,"x_min":6,"x_max":742,"o":"m 686 1163 l 728 1163 l 586 956 l 554 956 l 686 1163 m 532 894 l 594 894 l 742 0 l 707 0 l 661 278 l 213 278 l 50 0 l 6 0 l 532 894 m 654 313 l 563 872 l 232 313 l 654 313 z "},"Ă":{"ha":903,"x_min":6,"x_max":742,"o":"m 576 956 q 499 985 529 956 q 469 1058 469 1014 q 472 1088 469 1078 l 504 1088 q 501 1065 501 1071 q 524 1011 501 1032 q 581 990 546 990 q 657 1018 624 990 q 700 1088 690 1046 l 738 1088 q 678 994 725 1032 q 576 956 632 956 m 532 894 l 594 894 l 742 0 l 707 0 l 661 278 l 213 278 l 50 0 l 6 0 l 532 894 m 654 313 l 563 872 l 232 313 l 654 313 z "},"Ắ":{"ha":903,"x_min":6,"x_max":793,"o":"m 682 1235 l 722 1235 l 600 1083 l 569 1083 l 682 1235 m 576 956 q 469 986 511 956 q 426 1081 426 1017 q 432 1128 426 1106 l 465 1128 q 461 1086 461 1106 q 582 990 461 990 q 696 1024 649 990 q 757 1128 743 1058 l 793 1128 q 716 997 775 1038 q 576 956 657 956 m 532 894 l 594 894 l 742 0 l 707 0 l 661 278 l 213 278 l 50 0 l 6 0 l 532 894 m 654 313 l 563 872 l 232 313 l 654 313 z "},"Ặ":{"ha":903,"x_min":6,"x_max":742,"o":"m 576 956 q 499 985 529 956 q 469 1058 469 1014 q 472 1088 469 1078 l 504 1088 q 501 1065 501 1071 q 524 1011 501 1032 q 581 990 546 990 q 657 1018 624 990 q 700 1088 690 1046 l 738 1088 q 678 994 725 1032 q 576 956 632 956 m 532 894 l 594 894 l 742 0 l 707 0 l 661 278 l 213 278 l 50 0 l 6 0 l 532 894 m 654 313 l 563 872 l 232 313 l 654 313 m 319 -142 l 371 -142 l 360 -193 l 308 -193 l 319 -142 z "},"Ằ":{"ha":903,"x_min":6,"x_max":793,"o":"m 550 1235 l 590 1235 l 636 1083 l 606 1083 l 550 1235 m 576 956 q 469 986 511 956 q 426 1081 426 1017 q 432 1128 426 1106 l 465 1128 q 461 1086 461 1106 q 582 990 461 990 q 696 1024 649 990 q 757 1128 743 1058 l 793 1128 q 716 997 775 1038 q 576 956 657 956 m 532 894 l 594 894 l 742 0 l 707 0 l 661 278 l 213 278 l 50 0 l 6 0 l 532 894 m 654 313 l 563 872 l 232 313 l 654 313 z "},"Ẳ":{"ha":903,"x_min":6,"x_max":793,"o":"m 569 1132 q 667 1151 642 1136 q 701 1201 693 1167 q 703 1219 703 1208 q 688 1253 703 1242 q 638 1264 672 1264 q 550 1246 594 1264 l 558 1281 q 644 1297 599 1297 q 713 1278 688 1297 q 739 1224 739 1260 q 736 1201 739 1218 q 695 1134 726 1157 q 603 1106 664 1111 l 592 1054 l 553 1054 l 569 1132 m 576 956 q 469 986 511 956 q 426 1081 426 1017 q 432 1128 426 1106 l 465 1128 q 461 1086 461 1106 q 582 990 461 990 q 696 1024 649 990 q 757 1128 743 1058 l 793 1128 q 716 997 775 1038 q 576 956 657 956 m 532 894 l 594 894 l 742 0 l 707 0 l 661 278 l 213 278 l 50 0 l 6 0 l 532 894 m 654 313 l 563 872 l 232 313 l 654 313 z "},"Ẵ":{"ha":903,"x_min":6,"x_max":814,"o":"m 454 1221 q 560 1257 497 1257 q 597 1251 582 1257 q 636 1233 613 1246 q 669 1217 654 1222 q 703 1213 683 1213 q 760 1222 735 1213 q 814 1257 785 1232 l 804 1214 q 700 1178 764 1178 q 661 1183 678 1178 q 621 1201 644 1189 q 587 1217 601 1211 q 557 1222 572 1222 q 499 1213 525 1222 q 446 1178 474 1203 l 454 1221 m 576 956 q 469 986 511 956 q 426 1081 426 1017 q 432 1128 426 1106 l 465 1128 q 461 1086 461 1106 q 582 990 461 990 q 696 1024 649 990 q 757 1128 743 1058 l 793 1128 q 716 997 775 1038 q 576 956 657 956 m 532 894 l 594 894 l 742 0 l 707 0 l 661 278 l 213 278 l 50 0 l 6 0 l 532 894 m 654 313 l 563 872 l 232 313 l 654 313 z "},"Ǎ":{"ha":903,"x_min":6,"x_max":765,"o":"m 460 1125 l 497 1125 l 579 981 l 722 1125 l 765 1125 l 597 956 l 556 956 l 460 1125 m 532 894 l 594 894 l 742 0 l 707 0 l 661 278 l 213 278 l 50 0 l 6 0 l 532 894 m 654 313 l 563 872 l 232 313 l 654 313 z "},"Â":{"ha":903,"x_min":6,"x_max":742,"o":"m 592 1125 l 633 1125 l 729 956 l 692 956 l 610 1100 l 467 956 l 425 956 l 592 1125 m 532 894 l 594 894 l 742 0 l 707 0 l 661 278 l 213 278 l 50 0 l 6 0 l 532 894 m 654 313 l 563 872 l 232 313 l 654 313 z "},"Ấ":{"ha":903,"x_min":6,"x_max":838,"o":"m 799 1249 l 838 1249 l 717 1097 l 686 1097 l 799 1249 m 583 1097 l 625 1097 l 728 956 l 690 956 l 603 1075 l 465 956 l 422 956 l 583 1097 m 532 894 l 594 894 l 742 0 l 707 0 l 661 278 l 213 278 l 50 0 l 6 0 l 532 894 m 654 313 l 563 872 l 232 313 l 654 313 z "},"Ậ":{"ha":903,"x_min":6,"x_max":742,"o":"m 592 1125 l 633 1125 l 729 956 l 692 956 l 610 1100 l 467 956 l 425 956 l 592 1125 m 532 894 l 594 894 l 742 0 l 707 0 l 661 278 l 213 278 l 50 0 l 6 0 l 532 894 m 654 313 l 563 872 l 232 313 l 654 313 m 319 -142 l 371 -142 l 360 -193 l 308 -193 l 319 -142 z "},"Ầ":{"ha":903,"x_min":6,"x_max":742,"o":"m 447 1249 l 488 1249 l 533 1097 l 503 1097 l 447 1249 m 594 1097 l 636 1097 l 739 956 l 701 956 l 614 1075 l 476 956 l 433 956 l 594 1097 m 532 894 l 594 894 l 742 0 l 707 0 l 661 278 l 213 278 l 50 0 l 6 0 l 532 894 m 654 313 l 563 872 l 232 313 l 654 313 z "},"Ẩ":{"ha":903,"x_min":6,"x_max":881,"o":"m 713 1146 q 810 1165 783 1150 q 843 1215 836 1181 q 846 1233 846 1229 q 779 1278 846 1278 q 693 1260 739 1278 l 701 1294 q 786 1311 742 1311 q 856 1293 831 1311 q 881 1240 881 1275 q 878 1215 881 1232 q 838 1149 869 1172 q 746 1119 807 1126 l 735 1068 l 696 1068 l 713 1146 m 589 1097 l 631 1097 l 733 956 l 696 956 l 608 1075 l 471 956 l 428 956 l 589 1097 m 532 894 l 594 894 l 742 0 l 707 0 l 661 278 l 213 278 l 50 0 l 6 0 l 532 894 m 654 313 l 563 872 l 232 313 l 654 313 z "},"Ẫ":{"ha":903,"x_min":6,"x_max":803,"o":"m 446 1158 q 550 1194 486 1194 q 588 1189 572 1194 q 626 1171 603 1183 q 659 1155 644 1160 q 693 1150 674 1150 q 750 1160 725 1150 q 803 1194 775 1169 l 794 1151 q 690 1115 751 1115 q 651 1121 668 1115 q 611 1139 635 1126 q 577 1154 592 1149 q 547 1160 563 1160 q 490 1150 515 1160 q 436 1115 465 1140 l 446 1158 m 583 1097 l 625 1097 l 728 956 l 690 956 l 603 1075 l 465 956 l 422 956 l 583 1097 m 532 894 l 594 894 l 742 0 l 707 0 l 661 278 l 213 278 l 50 0 l 6 0 l 532 894 m 654 313 l 563 872 l 232 313 l 654 313 z "},"Ä":{"ha":903,"x_min":6,"x_max":742,"o":"m 461 1046 l 510 1046 l 500 997 l 451 997 l 461 1046 m 679 1046 l 728 1046 l 718 997 l 669 997 l 679 1046 m 532 894 l 594 894 l 742 0 l 707 0 l 661 278 l 213 278 l 50 0 l 6 0 l 532 894 m 654 313 l 563 872 l 232 313 l 654 313 z "},"Ạ":{"ha":903,"x_min":6,"x_max":742,"o":"m 532 894 l 594 894 l 742 0 l 707 0 l 661 278 l 213 278 l 50 0 l 6 0 l 532 894 m 654 313 l 563 872 l 232 313 l 654 313 m 319 -142 l 371 -142 l 360 -193 l 308 -193 l 319 -142 z "},"À":{"ha":903,"x_min":6,"x_max":742,"o":"m 507 1163 l 549 1163 l 592 956 l 560 956 l 507 1163 m 532 894 l 594 894 l 742 0 l 707 0 l 661 278 l 213 278 l 50 0 l 6 0 l 532 894 m 654 313 l 563 872 l 232 313 l 654 313 z "},"Ả":{"ha":903,"x_min":6,"x_max":768,"o":"m 578 1060 q 667 1072 636 1061 q 710 1102 697 1083 q 731 1153 724 1121 q 733 1176 733 1169 q 708 1222 733 1207 q 626 1236 683 1236 q 575 1231 603 1236 q 528 1219 547 1226 l 535 1254 q 583 1266 553 1261 q 636 1271 614 1271 q 734 1247 700 1271 q 768 1179 768 1224 q 765 1153 768 1172 q 718 1067 753 1096 q 611 1033 683 1039 l 594 956 l 556 956 l 578 1060 m 532 894 l 594 894 l 742 0 l 707 0 l 661 278 l 213 278 l 50 0 l 6 0 l 532 894 m 654 313 l 563 872 l 232 313 l 654 313 z "},"Ā":{"ha":903,"x_min":6,"x_max":778,"o":"m 408 1032 l 778 1032 l 769 997 l 400 997 l 408 1032 m 532 894 l 594 894 l 742 0 l 707 0 l 661 278 l 213 278 l 50 0 l 6 0 l 532 894 m 654 313 l 563 872 l 232 313 l 654 313 z "},"Ą":{"ha":894,"x_min":6,"x_max":742,"o":"m 649 -306 q 580 -286 606 -306 q 554 -224 554 -267 q 599 -97 554 -161 q 707 0 644 -33 l 661 278 l 213 278 l 50 0 l 6 0 l 532 894 l 594 894 l 742 0 q 630 -106 668 -47 q 592 -222 592 -164 q 606 -259 592 -247 q 656 -271 621 -271 q 726 -256 699 -271 l 719 -290 q 649 -306 689 -306 m 654 313 l 563 872 l 232 313 l 654 313 z "},"Å":{"ha":903,"x_min":6,"x_max":742,"o":"m 521 876 q 469 912 488 886 q 451 974 451 938 q 499 1089 451 1040 q 614 1138 547 1138 q 693 1109 664 1138 q 722 1033 722 1081 q 687 934 722 978 q 597 876 651 890 l 742 0 l 707 0 l 661 278 l 213 278 l 50 0 l 6 0 l 521 876 m 565 907 q 642 935 608 907 q 685 1004 676 963 q 689 1036 689 1021 q 607 1103 689 1103 q 531 1075 565 1103 q 489 1004 497 1047 q 485 974 485 988 q 505 925 485 943 q 565 907 525 907 m 654 313 l 563 872 l 232 313 l 654 313 z "},"Ǻ":{"ha":903,"x_min":6,"x_max":806,"o":"m 764 1346 l 806 1346 l 664 1181 l 632 1181 l 764 1346 m 532 894 l 594 894 l 742 0 l 707 0 l 661 278 l 213 278 l 50 0 l 6 0 l 532 894 m 654 313 l 563 872 l 232 313 l 654 313 z "},"Ã":{"ha":903,"x_min":6,"x_max":785,"o":"m 676 997 q 635 1003 654 997 q 589 1024 617 1010 q 551 1041 567 1035 q 519 1047 535 1047 q 406 1000 453 1047 l 414 1043 q 463 1072 433 1061 q 522 1082 492 1082 q 563 1076 546 1082 q 606 1056 581 1069 q 644 1038 629 1043 q 679 1032 660 1032 q 736 1042 711 1032 q 785 1079 761 1053 l 775 1036 q 676 997 739 997 m 532 894 l 594 894 l 742 0 l 707 0 l 661 278 l 213 278 l 50 0 l 6 0 l 532 894 m 654 313 l 563 872 l 232 313 l 654 313 z "},"Æ":{"ha":1146,"x_min":6,"x_max":1174,"o":"m 532 894 l 1174 894 l 1167 858 l 715 858 l 632 465 l 1035 465 l 1026 429 l 624 429 l 540 35 l 992 35 l 985 0 l 494 0 l 553 278 l 208 278 l 46 0 l 6 0 l 532 894 m 560 313 l 676 858 l 551 858 l 229 313 l 560 313 z "},"Ǽ":{"ha":1146,"x_min":6,"x_max":1174,"o":"m 874 1163 l 915 1163 l 774 956 l 742 956 l 874 1163 m 532 894 l 1174 894 l 1167 858 l 715 858 l 632 465 l 1035 465 l 1026 429 l 624 429 l 540 35 l 992 35 l 985 0 l 494 0 l 553 278 l 208 278 l 46 0 l 6 0 l 532 894 m 560 313 l 676 858 l 551 858 l 229 313 l 560 313 z "},"B":{"ha":850,"x_min":33,"x_max":800,"o":"m 222 894 l 596 894 q 800 733 800 894 q 792 664 800 701 q 733 540 776 590 q 628 465 690 489 q 717 415 686 454 q 749 314 749 376 q 742 251 749 289 q 640 60 715 121 q 436 0 565 0 l 33 0 l 222 894 m 529 482 q 681 531 626 482 q 754 664 736 581 q 764 738 764 713 q 723 830 764 800 q 582 860 682 860 l 254 860 l 174 482 l 529 482 m 449 35 q 619 85 558 35 q 704 251 679 136 q 713 319 713 289 q 667 415 713 383 q 513 447 621 447 l 167 447 l 79 35 l 449 35 z "},"C":{"ha":811,"x_min":76,"x_max":835,"o":"m 394 -14 q 154 63 232 -14 q 76 278 76 139 q 93 418 76 343 q 592 908 197 908 q 835 869 733 908 l 826 833 q 588 874 724 874 q 287 754 396 874 q 131 418 178 635 q 114 274 114 339 q 184 85 114 149 q 411 21 254 21 q 540 30 472 21 q 661 56 607 39 l 653 19 q 394 -14 535 -14 z "},"Ć":{"ha":811,"x_min":76,"x_max":835,"o":"m 710 1163 l 751 1163 l 610 956 l 578 956 l 710 1163 m 394 -14 q 154 63 232 -14 q 76 278 76 139 q 93 418 76 343 q 592 908 197 908 q 835 869 733 908 l 826 833 q 588 874 724 874 q 287 754 396 874 q 131 418 178 635 q 114 274 114 339 q 184 85 114 149 q 411 21 254 21 q 540 30 472 21 q 661 56 607 39 l 653 19 q 394 -14 535 -14 z "},"Č":{"ha":811,"x_min":76,"x_max":835,"o":"m 511 1125 l 549 1125 l 631 981 l 774 1125 l 817 1125 l 649 956 l 607 956 l 511 1125 m 394 -14 q 154 63 232 -14 q 76 278 76 139 q 93 418 76 343 q 592 908 197 908 q 835 869 733 908 l 826 833 q 588 874 724 874 q 287 754 396 874 q 131 418 178 635 q 114 274 114 339 q 184 85 114 149 q 411 21 254 21 q 540 30 472 21 q 661 56 607 39 l 653 19 q 394 -14 535 -14 z "},"Ç":{"ha":811,"x_min":76,"x_max":835,"o":"m 301 -333 q 217 -322 256 -333 l 225 -287 q 311 -299 261 -299 q 427 -275 386 -299 q 481 -196 468 -251 q 483 -169 483 -176 q 455 -120 483 -135 q 363 -106 426 -106 l 324 -106 l 375 -14 q 149 67 222 -8 q 76 278 76 143 q 93 418 76 343 q 592 908 197 908 q 835 869 733 908 l 826 833 q 588 874 724 874 q 286 753 396 874 q 131 418 176 633 q 113 272 113 332 q 183 85 113 149 q 411 21 254 21 q 540 30 472 21 q 661 56 607 39 l 653 19 q 414 -14 540 -12 l 381 -74 q 484 -97 447 -74 q 521 -167 521 -121 q 518 -193 521 -174 q 451 -298 503 -262 q 301 -333 399 -333 z "},"Ĉ":{"ha":811,"x_min":76,"x_max":835,"o":"m 613 1125 l 654 1125 l 750 956 l 713 956 l 631 1100 l 488 956 l 446 956 l 613 1125 m 394 -14 q 154 63 232 -14 q 76 278 76 139 q 93 418 76 343 q 592 908 197 908 q 835 869 733 908 l 826 833 q 588 874 724 874 q 287 754 396 874 q 131 418 178 635 q 114 274 114 339 q 184 85 114 149 q 411 21 254 21 q 540 30 472 21 q 661 56 607 39 l 653 19 q 394 -14 535 -14 z "},"Ċ":{"ha":811,"x_min":76,"x_max":835,"o":"m 603 1046 l 651 1046 l 642 997 l 593 997 l 603 1046 m 394 -14 q 154 63 232 -14 q 76 278 76 139 q 93 418 76 343 q 592 908 197 908 q 835 869 733 908 l 826 833 q 588 874 724 874 q 287 754 396 874 q 131 418 178 635 q 114 274 114 339 q 184 85 114 149 q 411 21 254 21 q 540 30 472 21 q 661 56 607 39 l 653 19 q 394 -14 535 -14 z "},"D":{"ha":864,"x_min":33,"x_max":821,"o":"m 222 894 l 543 894 q 754 835 688 894 q 821 643 821 775 q 796 440 821 560 q 711 187 761 282 q 577 46 661 92 q 358 0 493 0 l 33 0 l 222 894 m 350 35 q 542 68 467 35 q 671 190 618 101 q 758 440 724 278 q 786 647 786 568 q 728 811 786 763 q 536 860 669 860 l 254 860 l 79 35 l 350 35 z "},"Ð":{"ha":935,"x_min":67,"x_max":892,"o":"m 193 424 l 67 424 l 75 458 l 201 458 l 293 894 l 614 894 q 825 835 758 894 q 892 643 892 775 q 867 440 892 560 q 782 187 832 282 q 648 46 732 92 q 429 0 564 0 l 104 0 l 193 424 m 421 35 q 613 68 538 35 q 742 190 689 101 q 829 440 794 278 q 857 647 857 568 q 799 811 857 763 q 607 860 740 860 l 325 860 l 239 458 l 515 458 l 507 424 l 232 424 l 150 35 l 421 35 z "},"Ď":{"ha":864,"x_min":33,"x_max":821,"o":"m 450 1186 l 488 1186 l 569 1042 l 713 1186 l 756 1186 l 588 1017 l 546 1017 l 450 1186 m 222 894 l 543 894 q 754 835 688 894 q 821 643 821 775 q 796 440 821 560 q 711 187 761 282 q 577 46 661 92 q 358 0 493 0 l 33 0 l 222 894 m 350 35 q 542 68 467 35 q 671 190 618 101 q 758 440 724 278 q 786 647 786 568 q 728 811 786 763 q 536 860 669 860 l 254 860 l 79 35 l 350 35 z "},"Đ":{"ha":921,"x_min":53,"x_max":878,"o":"m 179 424 l 53 424 l 61 458 l 188 458 l 279 894 l 600 894 q 811 835 744 894 q 878 643 878 775 q 853 440 878 560 q 768 187 818 282 q 634 46 718 92 q 415 0 550 0 l 90 0 l 179 424 m 407 35 q 599 68 524 35 q 728 190 675 101 q 815 440 781 278 q 843 647 843 568 q 785 811 843 763 q 593 860 726 860 l 311 860 l 225 458 l 501 458 l 493 424 l 218 424 l 136 35 l 407 35 z "},"Ḍ":{"ha":864,"x_min":33,"x_max":821,"o":"m 222 894 l 543 894 q 754 835 688 894 q 821 643 821 775 q 796 440 821 560 q 711 187 761 282 q 577 46 661 92 q 358 0 493 0 l 33 0 l 222 894 m 350 35 q 542 68 467 35 q 671 190 618 101 q 758 440 724 278 q 786 647 786 568 q 728 811 786 763 q 536 860 669 860 l 254 860 l 79 35 l 350 35 m 332 -142 l 383 -142 l 372 -193 l 321 -193 l 332 -142 z "},"Ḏ":{"ha":864,"x_min":33,"x_max":821,"o":"m 222 894 l 543 894 q 754 835 688 894 q 821 643 821 775 q 796 440 821 560 q 711 187 761 282 q 577 46 661 92 q 358 0 493 0 l 33 0 l 222 894 m 350 35 q 542 68 467 35 q 671 190 618 101 q 758 440 724 278 q 786 647 786 568 q 728 811 786 763 q 536 860 669 860 l 254 860 l 79 35 l 350 35 m 119 -106 l 489 -106 l 482 -140 l 113 -140 l 119 -106 z "},"E":{"ha":747,"x_min":33,"x_max":789,"o":"m 222 894 l 789 894 l 782 860 l 254 860 l 171 465 l 650 465 l 642 431 l 163 431 l 79 35 l 607 35 l 600 0 l 33 0 l 222 894 z "},"É":{"ha":747,"x_min":33,"x_max":789,"o":"m 642 1163 l 683 1163 l 542 956 l 510 956 l 642 1163 m 222 894 l 789 894 l 782 860 l 254 860 l 171 465 l 650 465 l 642 431 l 163 431 l 79 35 l 607 35 l 600 0 l 33 0 l 222 894 z "},"Ĕ":{"ha":761,"x_min":33,"x_max":789,"o":"m 538 956 q 460 985 490 956 q 431 1058 431 1014 q 433 1088 431 1078 l 465 1088 q 463 1065 463 1071 q 485 1011 463 1032 q 542 990 507 990 q 618 1018 585 990 q 661 1088 651 1046 l 699 1088 q 640 994 686 1032 q 538 956 593 956 m 222 894 l 789 894 l 782 860 l 254 860 l 171 465 l 650 465 l 642 431 l 163 431 l 79 35 l 607 35 l 600 0 l 33 0 l 222 894 z "},"Ě":{"ha":761,"x_min":33,"x_max":789,"o":"m 422 1125 l 460 1125 l 542 981 l 685 1125 l 728 1125 l 560 956 l 518 956 l 422 1125 m 222 894 l 789 894 l 782 860 l 254 860 l 171 465 l 650 465 l 642 431 l 163 431 l 79 35 l 607 35 l 600 0 l 33 0 l 222 894 z "},"Ê":{"ha":761,"x_min":33,"x_max":789,"o":"m 532 1125 l 574 1125 l 669 956 l 632 956 l 550 1100 l 407 956 l 365 956 l 532 1125 m 222 894 l 789 894 l 782 860 l 254 860 l 171 465 l 650 465 l 642 431 l 163 431 l 79 35 l 607 35 l 600 0 l 33 0 l 222 894 z "},"Ế":{"ha":761,"x_min":33,"x_max":789,"o":"m 742 1249 l 781 1249 l 660 1097 l 629 1097 l 742 1249 m 526 1097 l 568 1097 l 671 956 l 633 956 l 546 1075 l 408 956 l 365 956 l 526 1097 m 222 894 l 789 894 l 782 860 l 254 860 l 171 465 l 650 465 l 642 431 l 163 431 l 79 35 l 607 35 l 600 0 l 33 0 l 222 894 z "},"Ệ":{"ha":761,"x_min":33,"x_max":789,"o":"m 525 1125 l 567 1125 l 663 956 l 625 956 l 543 1100 l 400 956 l 358 956 l 525 1125 m 222 894 l 789 894 l 782 860 l 254 860 l 171 465 l 650 465 l 642 431 l 163 431 l 79 35 l 607 35 l 600 0 l 33 0 l 222 894 m 253 -142 l 304 -142 l 293 -193 l 242 -193 l 253 -142 z "},"Ề":{"ha":761,"x_min":33,"x_max":789,"o":"m 399 1249 l 439 1249 l 485 1097 l 454 1097 l 399 1249 m 546 1097 l 588 1097 l 690 956 l 653 956 l 565 1075 l 428 956 l 385 956 l 546 1097 m 222 894 l 789 894 l 782 860 l 254 860 l 171 465 l 650 465 l 642 431 l 163 431 l 79 35 l 607 35 l 600 0 l 33 0 l 222 894 z "},"Ể":{"ha":761,"x_min":33,"x_max":831,"o":"m 663 1146 q 760 1165 733 1150 q 793 1215 786 1181 q 796 1233 796 1229 q 729 1278 796 1278 q 643 1260 689 1278 l 651 1294 q 736 1311 692 1311 q 806 1293 781 1311 q 831 1240 831 1275 q 828 1215 831 1232 q 788 1149 819 1172 q 696 1119 757 1126 l 685 1068 l 646 1068 l 663 1146 m 539 1097 l 581 1097 l 683 956 l 646 956 l 558 1075 l 421 956 l 378 956 l 539 1097 m 222 894 l 789 894 l 782 860 l 254 860 l 171 465 l 650 465 l 642 431 l 163 431 l 79 35 l 607 35 l 600 0 l 33 0 l 222 894 z "},"Ễ":{"ha":761,"x_min":33,"x_max":789,"o":"m 404 1158 q 508 1194 444 1194 q 546 1189 531 1194 q 585 1171 561 1183 q 617 1155 603 1160 q 651 1150 632 1150 q 708 1160 683 1150 q 761 1194 733 1169 l 753 1151 q 649 1115 710 1115 q 610 1121 626 1115 q 569 1139 593 1126 q 535 1154 550 1149 q 506 1160 521 1160 q 449 1150 474 1160 q 394 1115 424 1140 l 404 1158 m 542 1097 l 583 1097 l 686 956 l 649 956 l 561 1075 l 424 956 l 381 956 l 542 1097 m 222 894 l 789 894 l 782 860 l 254 860 l 171 465 l 650 465 l 642 431 l 163 431 l 79 35 l 607 35 l 600 0 l 33 0 l 222 894 z "},"Ë":{"ha":761,"x_min":33,"x_max":789,"o":"m 411 1046 l 460 1046 l 450 997 l 401 997 l 411 1046 m 629 1046 l 678 1046 l 668 997 l 619 997 l 629 1046 m 222 894 l 789 894 l 782 860 l 254 860 l 171 465 l 650 465 l 642 431 l 163 431 l 79 35 l 607 35 l 600 0 l 33 0 l 222 894 z "},"Ė":{"ha":761,"x_min":33,"x_max":789,"o":"m 522 1046 l 571 1046 l 561 997 l 513 997 l 522 1046 m 222 894 l 789 894 l 782 860 l 254 860 l 171 465 l 650 465 l 642 431 l 163 431 l 79 35 l 607 35 l 600 0 l 33 0 l 222 894 z "},"Ẹ":{"ha":761,"x_min":33,"x_max":789,"o":"m 222 894 l 789 894 l 782 860 l 254 860 l 171 465 l 650 465 l 642 431 l 163 431 l 79 35 l 607 35 l 600 0 l 33 0 l 222 894 m 267 -142 l 318 -142 l 307 -193 l 256 -193 l 267 -142 z "},"È":{"ha":761,"x_min":33,"x_max":789,"o":"m 469 1163 l 511 1163 l 554 956 l 522 956 l 469 1163 m 222 894 l 789 894 l 782 860 l 254 860 l 171 465 l 650 465 l 642 431 l 163 431 l 79 35 l 607 35 l 600 0 l 33 0 l 222 894 z "},"Ẻ":{"ha":761,"x_min":33,"x_max":789,"o":"m 518 1060 q 607 1072 576 1061 q 651 1102 638 1083 q 671 1153 664 1121 q 674 1176 674 1169 q 649 1222 674 1207 q 567 1236 624 1236 q 515 1231 543 1236 q 468 1219 488 1226 l 475 1254 q 524 1266 493 1261 q 576 1271 554 1271 q 674 1247 640 1271 q 708 1179 708 1224 q 706 1153 708 1172 q 658 1067 693 1096 q 551 1033 624 1039 l 535 956 l 496 956 l 518 1060 m 222 894 l 789 894 l 782 860 l 254 860 l 171 465 l 650 465 l 642 431 l 163 431 l 79 35 l 607 35 l 600 0 l 33 0 l 222 894 z "},"Ē":{"ha":761,"x_min":33,"x_max":789,"o":"m 356 1032 l 725 1032 l 717 997 l 347 997 l 356 1032 m 222 894 l 789 894 l 782 860 l 254 860 l 171 465 l 650 465 l 642 431 l 163 431 l 79 35 l 607 35 l 600 0 l 33 0 l 222 894 z "},"Ę":{"ha":761,"x_min":33,"x_max":789,"o":"m 474 -306 q 405 -286 431 -306 q 379 -224 379 -267 q 424 -98 379 -161 q 528 0 468 -35 l 33 0 l 222 894 l 789 894 l 782 860 l 254 860 l 171 465 l 650 465 l 642 431 l 163 431 l 79 35 l 607 35 l 600 0 l 567 0 q 455 -106 493 -47 q 417 -222 417 -164 q 431 -259 417 -247 q 481 -271 446 -271 q 551 -256 524 -271 l 544 -290 q 474 -306 514 -306 z "},"Ẽ":{"ha":761,"x_min":33,"x_max":789,"o":"m 622 997 q 581 1003 600 997 q 535 1024 563 1010 q 497 1041 513 1035 q 465 1047 481 1047 q 351 1000 399 1047 l 360 1043 q 408 1072 379 1061 q 468 1082 438 1082 q 509 1076 492 1082 q 551 1056 526 1069 q 590 1038 575 1043 q 625 1032 606 1032 q 682 1042 657 1032 q 731 1079 707 1053 l 721 1036 q 622 997 685 997 m 222 894 l 789 894 l 782 860 l 254 860 l 171 465 l 650 465 l 642 431 l 163 431 l 79 35 l 607 35 l 600 0 l 33 0 l 222 894 z "},"F":{"ha":708,"x_min":33,"x_max":764,"o":"m 222 894 l 764 894 l 757 860 l 254 860 l 171 465 l 624 465 l 615 431 l 163 431 l 72 0 l 33 0 l 222 894 z "},"G":{"ha":871,"x_min":78,"x_max":835,"o":"m 396 -14 q 157 65 236 -14 q 78 283 78 143 q 93 418 78 344 q 592 908 197 908 q 835 875 732 908 l 828 839 q 589 874 719 874 q 286 753 396 874 q 131 418 176 633 q 114 279 114 343 q 185 88 114 154 q 413 21 257 21 q 557 33 485 21 q 685 67 629 44 l 761 428 l 492 428 l 499 464 l 807 464 l 719 51 q 592 5 674 24 q 396 -14 511 -14 z "},"Ğ":{"ha":871,"x_min":78,"x_max":835,"o":"m 613 956 q 535 985 565 956 q 506 1058 506 1014 q 508 1088 506 1078 l 540 1088 q 538 1065 538 1071 q 560 1011 538 1032 q 617 990 582 990 q 693 1018 660 990 q 736 1088 726 1046 l 774 1088 q 715 994 761 1032 q 613 956 668 956 m 396 -14 q 157 65 236 -14 q 78 283 78 143 q 93 418 78 344 q 592 908 197 908 q 835 875 732 908 l 828 839 q 589 874 719 874 q 286 753 396 874 q 131 418 176 633 q 114 279 114 343 q 185 88 114 154 q 413 21 257 21 q 557 33 485 21 q 685 67 629 44 l 761 428 l 492 428 l 499 464 l 807 464 l 719 51 q 592 5 674 24 q 396 -14 511 -14 z "},"Ǧ":{"ha":871,"x_min":78,"x_max":835,"o":"m 500 1125 l 538 1125 l 619 981 l 763 1125 l 806 1125 l 638 956 l 596 956 l 500 1125 m 396 -14 q 157 65 236 -14 q 78 283 78 143 q 93 418 78 344 q 592 908 197 908 q 835 875 732 908 l 828 839 q 589 874 719 874 q 286 753 396 874 q 131 418 176 633 q 114 279 114 343 q 185 88 114 154 q 413 21 257 21 q 557 33 485 21 q 685 67 629 44 l 761 428 l 492 428 l 499 464 l 807 464 l 719 51 q 592 5 674 24 q 396 -14 511 -14 z "},"Ĝ":{"ha":871,"x_min":78,"x_max":835,"o":"m 629 1125 l 671 1125 l 767 956 l 729 956 l 647 1100 l 504 956 l 463 956 l 629 1125 m 396 -14 q 157 65 236 -14 q 78 283 78 143 q 93 418 78 344 q 592 908 197 908 q 835 875 732 908 l 828 839 q 589 874 719 874 q 286 753 396 874 q 131 418 176 633 q 114 279 114 343 q 185 88 114 154 q 413 21 257 21 q 557 33 485 21 q 685 67 629 44 l 761 428 l 492 428 l 499 464 l 807 464 l 719 51 q 592 5 674 24 q 396 -14 511 -14 z "},"Ģ":{"ha":871,"x_min":78,"x_max":835,"o":"m 396 -14 q 157 65 236 -14 q 78 283 78 143 q 93 418 78 344 q 592 908 197 908 q 835 875 732 908 l 828 839 q 589 874 719 874 q 286 753 396 874 q 131 418 176 633 q 114 279 114 343 q 185 88 114 154 q 413 21 257 21 q 557 33 485 21 q 685 67 629 44 l 761 428 l 492 428 l 499 464 l 807 464 l 719 51 q 592 5 674 24 q 396 -14 511 -14 m 386 -51 l 432 -51 l 338 -264 l 307 -264 l 386 -51 z "},"Ġ":{"ha":871,"x_min":78,"x_max":835,"o":"m 606 1046 l 654 1046 l 644 997 l 596 997 l 606 1046 m 396 -14 q 157 65 236 -14 q 78 283 78 143 q 93 418 78 344 q 592 908 197 908 q 835 875 732 908 l 828 839 q 589 874 719 874 q 286 753 396 874 q 131 418 176 633 q 114 279 114 343 q 185 88 114 154 q 413 21 257 21 q 557 33 485 21 q 685 67 629 44 l 761 428 l 492 428 l 499 464 l 807 464 l 719 51 q 592 5 674 24 q 396 -14 511 -14 z "},"Ḡ":{"ha":871,"x_min":78,"x_max":835,"o":"m 446 1032 l 815 1032 l 807 997 l 438 997 l 446 1032 m 396 -14 q 157 65 236 -14 q 78 283 78 143 q 93 418 78 344 q 592 908 197 908 q 835 875 732 908 l 828 839 q 589 874 719 874 q 286 753 396 874 q 131 418 176 633 q 114 279 114 343 q 185 88 114 154 q 413 21 257 21 q 557 33 485 21 q 685 67 629 44 l 761 428 l 492 428 l 499 464 l 807 464 l 719 51 q 592 5 674 24 q 396 -14 511 -14 z "},"H":{"ha":857,"x_min":33,"x_max":857,"o":"m 222 894 l 261 894 l 171 465 l 728 465 l 818 894 l 857 894 l 668 0 l 629 0 l 719 431 l 163 431 l 72 0 l 33 0 l 222 894 z "},"Ħ":{"ha":971,"x_min":72,"x_max":964,"o":"m 957 664 l 847 664 l 707 0 l 668 0 l 758 431 l 201 431 l 111 0 l 72 0 l 213 664 l 97 664 l 104 699 l 219 699 l 261 894 l 300 894 l 258 699 l 815 699 l 857 894 l 896 894 l 854 699 l 964 699 l 957 664 m 808 664 l 251 664 l 210 465 l 767 465 l 808 664 z "},"Ḫ":{"ha":857,"x_min":33,"x_max":857,"o":"m 222 894 l 261 894 l 171 465 l 728 465 l 818 894 l 857 894 l 668 0 l 629 0 l 719 431 l 163 431 l 72 0 l 33 0 l 222 894 m 300 -242 q 180 -210 228 -242 q 132 -106 132 -178 q 138 -56 132 -79 l 172 -56 q 167 -101 167 -78 q 307 -207 167 -207 q 434 -170 381 -207 q 504 -56 488 -133 l 539 -56 q 453 -198 518 -154 q 300 -242 389 -242 z "},"Ĥ":{"ha":857,"x_min":33,"x_max":857,"o":"m 568 1125 l 610 1125 l 706 956 l 668 956 l 586 1100 l 443 956 l 401 956 l 568 1125 m 222 894 l 261 894 l 171 465 l 728 465 l 818 894 l 857 894 l 668 0 l 629 0 l 719 431 l 163 431 l 72 0 l 33 0 l 222 894 z "},"Ḥ":{"ha":857,"x_min":33,"x_max":857,"o":"m 222 894 l 261 894 l 171 465 l 728 465 l 818 894 l 857 894 l 668 0 l 629 0 l 719 431 l 163 431 l 72 0 l 33 0 l 222 894 m 296 -142 l 347 -142 l 336 -193 l 285 -193 l 296 -142 z "},"I":{"ha":261,"x_min":33,"x_max":261,"o":"m 222 894 l 261 894 l 72 0 l 33 0 l 222 894 z "},"Ĳ":{"ha":801,"x_min":33,"x_max":808,"o":"m 222 894 l 261 894 l 72 0 l 33 0 l 222 894 m 379 -14 q 211 19 281 -14 l 219 56 q 292 31 249 40 q 382 22 335 22 q 550 67 496 22 q 625 213 604 111 l 769 894 l 808 894 l 664 213 q 572 42 639 97 q 379 -14 506 -14 z "},"Í":{"ha":261,"x_min":33,"x_max":419,"o":"m 378 1163 l 419 1163 l 278 956 l 246 956 l 378 1163 m 222 894 l 261 894 l 72 0 l 33 0 l 222 894 z "},"Ĭ":{"ha":261,"x_min":33,"x_max":417,"o":"m 256 956 q 178 985 208 956 q 149 1058 149 1014 q 151 1088 149 1078 l 183 1088 q 181 1065 181 1071 q 203 1011 181 1032 q 260 990 225 990 q 336 1018 303 990 q 379 1088 369 1046 l 417 1088 q 358 994 404 1032 q 256 956 311 956 m 222 894 l 261 894 l 72 0 l 33 0 l 222 894 z "},"Ǐ":{"ha":261,"x_min":33,"x_max":444,"o":"m 139 1125 l 176 1125 l 258 981 l 401 1125 l 444 1125 l 276 956 l 235 956 l 139 1125 m 222 894 l 261 894 l 72 0 l 33 0 l 222 894 z "},"Î":{"ha":261,"x_min":33,"x_max":408,"o":"m 271 1125 l 313 1125 l 408 956 l 371 956 l 289 1100 l 146 956 l 104 956 l 271 1125 m 222 894 l 261 894 l 72 0 l 33 0 l 222 894 z "},"Ï":{"ha":261,"x_min":33,"x_max":407,"o":"m 140 1046 l 189 1046 l 179 997 l 131 997 l 140 1046 m 358 1046 l 407 1046 l 397 997 l 349 997 l 358 1046 m 222 894 l 261 894 l 72 0 l 33 0 l 222 894 z "},"İ":{"ha":261,"x_min":33,"x_max":299,"o":"m 250 1046 l 299 1046 l 289 997 l 240 997 l 250 1046 m 222 894 l 261 894 l 72 0 l 33 0 l 222 894 z "},"Ị":{"ha":261,"x_min":-12,"x_max":261,"o":"m 222 894 l 261 894 l 72 0 l 33 0 l 222 894 m -1 -142 l 50 -142 l 39 -193 l -12 -193 l -1 -142 z "},"Ì":{"ha":261,"x_min":33,"x_max":269,"o":"m 185 1163 l 226 1163 l 269 956 l 238 956 l 185 1163 m 222 894 l 261 894 l 72 0 l 33 0 l 222 894 z "},"Ỉ":{"ha":261,"x_min":33,"x_max":449,"o":"m 258 1060 q 347 1072 317 1061 q 391 1102 378 1083 q 411 1153 404 1121 q 414 1176 414 1169 q 389 1222 414 1207 q 307 1236 364 1236 q 256 1231 283 1236 q 208 1219 228 1226 l 215 1254 q 264 1266 233 1261 q 317 1271 294 1271 q 415 1247 381 1271 q 449 1179 449 1224 q 446 1153 449 1172 q 399 1067 433 1096 q 292 1033 364 1039 l 275 956 l 236 956 l 258 1060 m 222 894 l 261 894 l 72 0 l 33 0 l 222 894 z "},"Ī":{"ha":261,"x_min":33,"x_max":458,"o":"m 88 1032 l 458 1032 l 450 997 l 79 997 l 88 1032 m 222 894 l 261 894 l 72 0 l 33 0 l 222 894 z "},"Į":{"ha":261,"x_min":-115,"x_max":261,"o":"m -21 -306 q -90 -286 -64 -306 q -115 -224 -115 -267 q -71 -98 -115 -161 q 33 0 -26 -35 l 222 894 l 261 894 l 72 0 q -40 -106 -1 -47 q -78 -222 -78 -164 q -63 -259 -78 -247 q -14 -271 -49 -271 q 57 -256 29 -271 l 50 -290 q -21 -306 19 -306 z "},"Ĩ":{"ha":261,"x_min":33,"x_max":456,"o":"m 347 956 q 306 962 325 956 q 260 982 288 968 q 222 999 238 993 q 190 1006 206 1006 q 76 958 124 1006 l 85 1001 q 133 1030 104 1019 q 193 1040 163 1040 q 234 1034 217 1040 q 276 1014 251 1028 q 315 996 300 1001 q 350 990 331 990 q 407 1001 382 990 q 456 1038 432 1011 l 446 994 q 347 956 410 956 m 222 894 l 261 894 l 72 0 l 33 0 l 222 894 z "},"J":{"ha":571,"x_min":-19,"x_max":578,"o":"m 149 -14 q -19 19 50 -14 l -11 56 q 61 31 18 40 q 151 22 104 22 q 319 67 265 22 q 394 213 374 111 l 539 894 l 578 894 l 433 213 q 342 42 408 97 q 149 -14 275 -14 z "},"Ĵ":{"ha":571,"x_min":-19,"x_max":724,"o":"m 586 1125 l 628 1125 l 724 956 l 686 956 l 604 1100 l 461 956 l 419 956 l 586 1125 m 149 -14 q -19 19 50 -14 l -11 56 q 61 31 18 40 q 151 22 104 22 q 319 67 265 22 q 394 213 374 111 l 539 894 l 578 894 l 433 213 q 342 42 408 97 q 149 -14 275 -14 z "},"K":{"ha":782,"x_min":33,"x_max":806,"o":"m 222 894 l 261 894 l 154 388 l 753 894 l 806 894 l 388 540 l 621 0 l 576 0 l 354 514 l 143 335 l 72 0 l 33 0 l 222 894 z "},"Ķ":{"ha":782,"x_min":33,"x_max":806,"o":"m 222 894 l 261 894 l 154 388 l 753 894 l 806 894 l 388 540 l 621 0 l 576 0 l 354 514 l 143 335 l 72 0 l 33 0 l 222 894 m 271 -51 l 317 -51 l 222 -264 l 192 -264 l 271 -51 z "},"L":{"ha":719,"x_min":33,"x_max":593,"o":"m 222 894 l 261 894 l 79 35 l 593 35 l 586 0 l 33 0 l 222 894 z "},"Ĺ":{"ha":719,"x_min":33,"x_max":593,"o":"m 376 1163 l 418 1163 l 276 956 l 244 956 l 376 1163 m 222 894 l 261 894 l 79 35 l 593 35 l 586 0 l 33 0 l 222 894 z "},"Ľ":{"ha":719,"x_min":33,"x_max":607,"o":"m 561 1008 l 607 1008 l 513 796 l 482 796 l 561 1008 m 222 894 l 261 894 l 79 35 l 593 35 l 586 0 l 33 0 l 222 894 z "},"Ļ":{"ha":719,"x_min":33,"x_max":593,"o":"m 222 894 l 261 894 l 79 35 l 593 35 l 586 0 l 33 0 l 222 894 m 264 -51 l 310 -51 l 215 -264 l 185 -264 l 264 -51 z "},"Ŀ":{"ha":719,"x_min":33,"x_max":593,"o":"m 222 894 l 261 894 l 79 35 l 593 35 l 586 0 l 33 0 l 222 894 m 428 400 l 476 400 l 467 351 l 418 351 l 428 400 z "},"Ḷ":{"ha":719,"x_min":33,"x_max":593,"o":"m 222 894 l 261 894 l 79 35 l 593 35 l 586 0 l 33 0 l 222 894 m 249 -142 l 300 -142 l 289 -193 l 238 -193 l 249 -142 z "},"Ḹ":{"ha":758,"x_min":72,"x_max":632,"o":"m 183 1032 l 553 1032 l 544 997 l 175 997 l 183 1032 m 261 894 l 300 894 l 118 35 l 632 35 l 625 0 l 72 0 l 261 894 m 292 -142 l 343 -142 l 332 -193 l 281 -193 l 292 -142 z "},"Ḻ":{"ha":719,"x_min":33,"x_max":593,"o":"m 222 894 l 261 894 l 79 35 l 593 35 l 586 0 l 33 0 l 222 894 m 101 -106 l 471 -106 l 464 -140 l 94 -140 l 101 -106 z "},"Ł":{"ha":785,"x_min":42,"x_max":658,"o":"m 658 35 l 651 0 l 99 0 l 189 425 l 42 367 l 49 401 l 196 460 l 288 894 l 326 894 l 238 478 l 500 582 l 492 547 l 231 443 l 144 35 l 658 35 z "},"M":{"ha":1024,"x_min":33,"x_max":1024,"o":"m 222 894 l 278 894 l 474 190 l 965 894 l 1024 894 l 835 0 l 796 0 l 976 851 l 490 157 l 446 157 l 253 851 l 72 0 l 33 0 l 222 894 z "},"Ṃ":{"ha":1024,"x_min":33,"x_max":1024,"o":"m 222 894 l 278 894 l 474 190 l 965 894 l 1024 894 l 835 0 l 796 0 l 976 851 l 490 157 l 446 157 l 253 851 l 72 0 l 33 0 l 222 894 m 414 -142 l 465 -142 l 454 -193 l 403 -193 l 414 -142 z "},"N":{"ha":901,"x_min":33,"x_max":901,"o":"m 222 894 l 265 894 l 685 53 l 863 894 l 901 894 l 713 0 l 669 0 l 250 842 l 72 0 l 33 0 l 222 894 z "},"Ń":{"ha":901,"x_min":33,"x_max":901,"o":"m 707 1163 l 749 1163 l 607 956 l 575 956 l 707 1163 m 222 894 l 265 894 l 685 53 l 863 894 l 901 894 l 713 0 l 669 0 l 250 842 l 72 0 l 33 0 l 222 894 z "},"Ň":{"ha":901,"x_min":33,"x_max":901,"o":"m 501 1125 l 539 1125 l 621 981 l 764 1125 l 807 1125 l 639 956 l 597 956 l 501 1125 m 222 894 l 265 894 l 685 53 l 863 894 l 901 894 l 713 0 l 669 0 l 250 842 l 72 0 l 33 0 l 222 894 z "},"Ņ":{"ha":901,"x_min":33,"x_max":901,"o":"m 222 894 l 265 894 l 685 53 l 863 894 l 901 894 l 713 0 l 669 0 l 250 842 l 72 0 l 33 0 l 222 894 m 335 -51 l 381 -51 l 286 -264 l 256 -264 l 335 -51 z "},"Ṅ":{"ha":901,"x_min":33,"x_max":901,"o":"m 594 1046 l 643 1046 l 633 997 l 585 997 l 594 1046 m 222 894 l 265 894 l 685 53 l 863 894 l 901 894 l 713 0 l 669 0 l 250 842 l 72 0 l 33 0 l 222 894 z "},"Ṇ":{"ha":901,"x_min":33,"x_max":901,"o":"m 222 894 l 265 894 l 685 53 l 863 894 l 901 894 l 713 0 l 669 0 l 250 842 l 72 0 l 33 0 l 222 894 m 314 -142 l 365 -142 l 354 -193 l 303 -193 l 314 -142 z "},"Ŋ":{"ha":901,"x_min":33,"x_max":901,"o":"m 469 -325 q 375 -311 417 -325 l 382 -275 q 464 -290 424 -290 q 585 -256 544 -290 q 640 -153 626 -222 l 672 -6 l 250 842 l 72 0 l 33 0 l 222 894 l 265 894 l 685 53 l 863 894 l 901 894 l 679 -153 q 609 -280 663 -235 q 469 -325 556 -325 z "},"Ṉ":{"ha":901,"x_min":33,"x_max":901,"o":"m 222 894 l 265 894 l 685 53 l 863 894 l 901 894 l 713 0 l 669 0 l 250 842 l 72 0 l 33 0 l 222 894 m 176 -106 l 546 -106 l 539 -140 l 169 -140 l 176 -106 z "},"Ñ":{"ha":901,"x_min":33,"x_max":901,"o":"m 689 997 q 648 1003 667 997 q 601 1024 629 1010 q 563 1041 579 1035 q 532 1047 547 1047 q 418 1000 465 1047 l 426 1043 q 475 1072 446 1061 q 535 1082 504 1082 q 576 1076 558 1082 q 618 1056 593 1069 q 657 1038 642 1043 q 692 1032 672 1032 q 749 1042 724 1032 q 797 1079 774 1053 l 788 1036 q 689 997 751 997 m 222 894 l 265 894 l 685 53 l 863 894 l 901 894 l 713 0 l 669 0 l 250 842 l 72 0 l 33 0 l 222 894 z "},"O":{"ha":947,"x_min":81,"x_max":900,"o":"m 392 -14 q 158 65 236 -14 q 81 286 81 143 q 99 439 81 358 q 268 794 150 681 q 589 908 386 908 q 823 837 746 908 q 900 618 900 765 q 879 439 900 539 q 392 -14 782 -14 m 400 21 q 687 127 576 21 q 842 439 797 233 q 864 622 864 542 q 795 815 864 756 q 581 874 726 874 q 296 772 407 874 q 136 439 185 669 q 117 281 117 349 q 186 86 117 151 q 400 21 256 21 z "},"Ó":{"ha":947,"x_min":81,"x_max":900,"o":"m 721 1163 l 763 1163 l 621 956 l 589 956 l 721 1163 m 392 -14 q 158 65 236 -14 q 81 286 81 143 q 99 439 81 358 q 268 794 150 681 q 589 908 386 908 q 823 837 746 908 q 900 618 900 765 q 879 439 900 539 q 392 -14 782 -14 m 400 21 q 687 127 576 21 q 842 439 797 233 q 864 622 864 542 q 795 815 864 756 q 581 874 726 874 q 296 772 407 874 q 136 439 185 669 q 117 281 117 349 q 186 86 117 151 q 400 21 256 21 z "},"Ŏ":{"ha":947,"x_min":81,"x_max":900,"o":"m 599 956 q 522 985 551 956 q 492 1058 492 1014 q 494 1088 492 1078 l 526 1088 q 524 1065 524 1071 q 546 1011 524 1032 q 603 990 568 990 q 679 1018 646 990 q 722 1088 713 1046 l 760 1088 q 701 994 747 1032 q 599 956 654 956 m 392 -14 q 158 65 236 -14 q 81 286 81 143 q 99 439 81 358 q 268 794 150 681 q 589 908 386 908 q 823 837 746 908 q 900 618 900 765 q 879 439 900 539 q 392 -14 782 -14 m 400 21 q 687 127 576 21 q 842 439 797 233 q 864 622 864 542 q 795 815 864 756 q 581 874 726 874 q 296 772 407 874 q 136 439 185 669 q 117 281 117 349 q 186 86 117 151 q 400 21 256 21 z "},"Ǒ":{"ha":947,"x_min":81,"x_max":900,"o":"m 482 1125 l 519 1125 l 601 981 l 744 1125 l 788 1125 l 619 956 l 578 956 l 482 1125 m 392 -14 q 158 65 236 -14 q 81 286 81 143 q 99 439 81 358 q 268 794 150 681 q 589 908 386 908 q 823 837 746 908 q 900 618 900 765 q 879 439 900 539 q 392 -14 782 -14 m 400 21 q 687 127 576 21 q 842 439 797 233 q 864 622 864 542 q 795 815 864 756 q 581 874 726 874 q 296 772 407 874 q 136 439 185 669 q 117 281 117 349 q 186 86 117 151 q 400 21 256 21 z "},"Ô":{"ha":947,"x_min":81,"x_max":900,"o":"m 614 1125 l 656 1125 l 751 956 l 714 956 l 632 1100 l 489 956 l 447 956 l 614 1125 m 392 -14 q 158 65 236 -14 q 81 286 81 143 q 99 439 81 358 q 268 794 150 681 q 589 908 386 908 q 823 837 746 908 q 900 618 900 765 q 879 439 900 539 q 392 -14 782 -14 m 400 21 q 687 127 576 21 q 842 439 797 233 q 864 622 864 542 q 795 815 864 756 q 581 874 726 874 q 296 772 407 874 q 136 439 185 669 q 117 281 117 349 q 186 86 117 151 q 400 21 256 21 z "},"Ố":{"ha":947,"x_min":81,"x_max":900,"o":"m 832 1249 l 871 1249 l 750 1097 l 719 1097 l 832 1249 m 617 1097 l 658 1097 l 761 956 l 724 956 l 636 1075 l 499 956 l 456 956 l 617 1097 m 392 -14 q 158 65 236 -14 q 81 286 81 143 q 99 439 81 358 q 268 794 150 681 q 589 908 386 908 q 823 837 746 908 q 900 618 900 765 q 879 439 900 539 q 392 -14 782 -14 m 400 21 q 687 127 576 21 q 842 439 797 233 q 864 622 864 542 q 795 815 864 756 q 581 874 726 874 q 296 772 407 874 q 136 439 185 669 q 117 281 117 349 q 186 86 117 151 q 400 21 256 21 z "},"Ộ":{"ha":947,"x_min":81,"x_max":900,"o":"m 619 1153 l 661 1153 l 757 983 l 719 983 l 638 1128 l 494 983 l 453 983 l 619 1153 m 392 -14 q 158 65 236 -14 q 81 286 81 143 q 99 439 81 358 q 268 794 150 681 q 589 908 386 908 q 823 837 746 908 q 900 618 900 765 q 879 439 900 539 q 392 -14 782 -14 m 400 21 q 687 127 576 21 q 842 439 797 233 q 864 622 864 542 q 795 815 864 756 q 581 874 726 874 q 296 772 407 874 q 136 439 185 669 q 117 281 117 349 q 186 86 117 151 q 400 21 256 21 m 342 -142 l 393 -142 l 382 -193 l 331 -193 l 342 -142 z "},"Ồ":{"ha":947,"x_min":81,"x_max":900,"o":"m 465 1249 l 506 1249 l 551 1097 l 521 1097 l 465 1249 m 613 1097 l 654 1097 l 757 956 l 719 956 l 632 1075 l 494 956 l 451 956 l 613 1097 m 392 -14 q 158 65 236 -14 q 81 286 81 143 q 99 439 81 358 q 268 794 150 681 q 589 908 386 908 q 823 837 746 908 q 900 618 900 765 q 879 439 900 539 q 392 -14 782 -14 m 400 21 q 687 127 576 21 q 842 439 797 233 q 864 622 864 542 q 795 815 864 756 q 581 874 726 874 q 296 772 407 874 q 136 439 185 669 q 117 281 117 349 q 186 86 117 151 q 400 21 256 21 z "},"Ổ":{"ha":947,"x_min":81,"x_max":903,"o":"m 735 1146 q 832 1165 806 1150 q 865 1215 858 1181 q 868 1233 868 1229 q 801 1278 868 1278 q 715 1260 761 1278 l 724 1294 q 808 1311 764 1311 q 878 1293 853 1311 q 903 1240 903 1275 q 900 1215 903 1232 q 860 1149 892 1172 q 768 1119 829 1126 l 757 1068 l 718 1068 l 735 1146 m 611 1097 l 653 1097 l 756 956 l 718 956 l 631 1075 l 493 956 l 450 956 l 611 1097 m 392 -14 q 158 65 236 -14 q 81 286 81 143 q 99 439 81 358 q 268 794 150 681 q 589 908 386 908 q 823 837 746 908 q 900 618 900 765 q 879 439 900 539 q 392 -14 782 -14 m 400 21 q 687 127 576 21 q 842 439 797 233 q 864 622 864 542 q 795 815 864 756 q 581 874 726 874 q 296 772 407 874 q 136 439 185 669 q 117 281 117 349 q 186 86 117 151 q 400 21 256 21 z "},"Ỗ":{"ha":947,"x_min":81,"x_max":900,"o":"m 476 1221 q 582 1257 519 1257 q 619 1251 604 1257 q 658 1233 635 1246 q 691 1217 676 1222 q 725 1213 706 1213 q 782 1222 757 1213 q 836 1257 807 1232 l 826 1214 q 722 1178 786 1178 q 683 1183 700 1178 q 643 1201 667 1189 q 609 1217 624 1211 q 579 1222 594 1222 q 522 1213 547 1222 q 468 1178 496 1203 l 476 1221 m 599 956 q 491 986 533 956 q 449 1081 449 1017 q 454 1128 449 1106 l 488 1128 q 483 1086 483 1106 q 604 990 483 990 q 718 1024 671 990 q 779 1128 765 1058 l 815 1128 q 738 997 797 1038 q 599 956 679 956 m 392 -14 q 158 65 236 -14 q 81 286 81 143 q 99 439 81 358 q 268 794 150 681 q 589 908 386 908 q 823 837 746 908 q 900 618 900 765 q 879 439 900 539 q 392 -14 782 -14 m 400 21 q 687 127 576 21 q 842 439 797 233 q 864 622 864 542 q 795 815 864 756 q 581 874 726 874 q 296 772 407 874 q 136 439 185 669 q 117 281 117 349 q 186 86 117 151 q 400 21 256 21 z "},"Ö":{"ha":947,"x_min":81,"x_max":900,"o":"m 483 1046 l 532 1046 l 522 997 l 474 997 l 483 1046 m 701 1046 l 750 1046 l 740 997 l 692 997 l 701 1046 m 392 -14 q 158 65 236 -14 q 81 286 81 143 q 99 439 81 358 q 268 794 150 681 q 589 908 386 908 q 823 837 746 908 q 900 618 900 765 q 879 439 900 539 q 392 -14 782 -14 m 400 21 q 687 127 576 21 q 842 439 797 233 q 864 622 864 542 q 795 815 864 756 q 581 874 726 874 q 296 772 407 874 q 136 439 185 669 q 117 281 117 349 q 186 86 117 151 q 400 21 256 21 z "},"Ọ":{"ha":947,"x_min":81,"x_max":900,"o":"m 392 -14 q 158 65 236 -14 q 81 286 81 143 q 99 439 81 358 q 268 794 150 681 q 589 908 386 908 q 823 837 746 908 q 900 618 900 765 q 879 439 900 539 q 392 -14 782 -14 m 400 21 q 687 127 576 21 q 842 439 797 233 q 864 622 864 542 q 795 815 864 756 q 581 874 726 874 q 296 772 407 874 q 136 439 185 669 q 117 281 117 349 q 186 86 117 151 q 400 21 256 21 m 342 -142 l 393 -142 l 382 -193 l 331 -193 l 342 -142 z "},"Ò":{"ha":947,"x_min":81,"x_max":900,"o":"m 538 1163 l 579 1163 l 622 956 l 590 956 l 538 1163 m 392 -14 q 158 65 236 -14 q 81 286 81 143 q 99 439 81 358 q 268 794 150 681 q 589 908 386 908 q 823 837 746 908 q 900 618 900 765 q 879 439 900 539 q 392 -14 782 -14 m 400 21 q 687 127 576 21 q 842 439 797 233 q 864 622 864 542 q 795 815 864 756 q 581 874 726 874 q 296 772 407 874 q 136 439 185 669 q 117 281 117 349 q 186 86 117 151 q 400 21 256 21 z "},"Ỏ":{"ha":947,"x_min":81,"x_max":900,"o":"m 607 1060 q 696 1072 665 1061 q 740 1102 726 1083 q 760 1153 753 1121 q 763 1176 763 1169 q 738 1222 763 1207 q 656 1236 713 1236 q 604 1231 632 1236 q 557 1219 576 1226 l 564 1254 q 613 1266 582 1261 q 665 1271 643 1271 q 763 1247 729 1271 q 797 1179 797 1224 q 794 1153 797 1172 q 747 1067 782 1096 q 640 1033 713 1039 l 624 956 l 585 956 l 607 1060 m 392 -14 q 158 65 236 -14 q 81 286 81 143 q 99 439 81 358 q 268 794 150 681 q 589 908 386 908 q 823 837 746 908 q 900 618 900 765 q 879 439 900 539 q 392 -14 782 -14 m 400 21 q 687 127 576 21 q 842 439 797 233 q 864 622 864 542 q 795 815 864 756 q 581 874 726 874 q 296 772 407 874 q 136 439 185 669 q 117 281 117 349 q 186 86 117 151 q 400 21 256 21 z "},"Ơ":{"ha":1026,"x_min":81,"x_max":1110,"o":"m 392 -14 q 157 63 233 -14 q 81 282 81 139 q 99 439 81 357 q 266 795 150 682 q 589 908 382 908 q 869 776 801 908 q 1007 815 961 776 q 1075 956 1053 854 l 1110 956 q 1030 794 1085 842 q 883 742 975 747 q 900 621 900 690 q 879 439 900 542 q 392 -14 782 -14 m 400 21 q 842 439 753 21 q 864 624 864 542 q 795 815 864 757 q 581 874 726 874 q 372 831 458 874 q 228 692 286 788 q 136 439 169 597 q 117 283 117 349 q 186 87 117 153 q 400 21 256 21 z "},"Ớ":{"ha":1026,"x_min":81,"x_max":1110,"o":"m 733 1163 l 775 1163 l 633 956 l 601 956 l 733 1163 m 392 -14 q 157 63 233 -14 q 81 282 81 139 q 99 439 81 357 q 266 795 150 682 q 589 908 382 908 q 869 776 801 908 q 1007 815 961 776 q 1075 956 1053 854 l 1110 956 q 1030 794 1085 842 q 883 742 975 747 q 900 621 900 690 q 879 439 900 542 q 392 -14 782 -14 m 400 21 q 842 439 753 21 q 864 624 864 542 q 795 815 864 757 q 581 874 726 874 q 372 831 458 874 q 228 692 286 788 q 136 439 169 597 q 117 283 117 349 q 186 87 117 153 q 400 21 256 21 z "},"Ợ":{"ha":1026,"x_min":81,"x_max":1110,"o":"m 392 -14 q 157 63 233 -14 q 81 282 81 139 q 99 439 81 357 q 266 795 150 682 q 589 908 382 908 q 869 776 801 908 q 1007 815 961 776 q 1075 956 1053 854 l 1110 956 q 1030 794 1085 842 q 883 742 975 747 q 900 621 900 690 q 879 439 900 542 q 392 -14 782 -14 m 400 21 q 842 439 753 21 q 864 624 864 542 q 795 815 864 757 q 581 874 726 874 q 372 831 458 874 q 228 692 286 788 q 136 439 169 597 q 117 283 117 349 q 186 87 117 153 q 400 21 256 21 m 347 -142 l 399 -142 l 388 -193 l 336 -193 l 347 -142 z "},"Ờ":{"ha":1026,"x_min":81,"x_max":1110,"o":"m 574 1163 l 615 1163 l 658 956 l 626 956 l 574 1163 m 392 -14 q 157 63 233 -14 q 81 282 81 139 q 99 439 81 357 q 266 795 150 682 q 589 908 382 908 q 869 776 801 908 q 1007 815 961 776 q 1075 956 1053 854 l 1110 956 q 1030 794 1085 842 q 883 742 975 747 q 900 621 900 690 q 879 439 900 542 q 392 -14 782 -14 m 400 21 q 842 439 753 21 q 864 624 864 542 q 795 815 864 757 q 581 874 726 874 q 372 831 458 874 q 228 692 286 788 q 136 439 169 597 q 117 283 117 349 q 186 87 117 153 q 400 21 256 21 z "},"Ở":{"ha":1026,"x_min":81,"x_max":1110,"o":"m 617 1060 q 706 1072 675 1061 q 749 1102 736 1083 q 769 1153 763 1121 q 772 1176 772 1169 q 747 1222 772 1207 q 665 1236 722 1236 q 614 1231 642 1236 q 567 1219 586 1226 l 574 1254 q 622 1266 592 1261 q 675 1271 653 1271 q 773 1247 739 1271 q 807 1179 807 1224 q 804 1153 807 1172 q 757 1067 792 1096 q 650 1033 722 1039 l 633 956 l 594 956 l 617 1060 m 392 -14 q 157 63 233 -14 q 81 282 81 139 q 99 439 81 357 q 266 795 150 682 q 589 908 382 908 q 869 776 801 908 q 1007 815 961 776 q 1075 956 1053 854 l 1110 956 q 1030 794 1085 842 q 883 742 975 747 q 900 621 900 690 q 879 439 900 542 q 392 -14 782 -14 m 400 21 q 842 439 753 21 q 864 624 864 542 q 795 815 864 757 q 581 874 726 874 q 372 831 458 874 q 228 692 286 788 q 136 439 169 597 q 117 283 117 349 q 186 87 117 153 q 400 21 256 21 z "},"Ỡ":{"ha":1026,"x_min":81,"x_max":1110,"o":"m 726 997 q 685 1003 704 997 q 639 1024 667 1010 q 601 1041 617 1035 q 569 1047 585 1047 q 456 1000 503 1047 l 464 1043 q 513 1072 483 1061 q 572 1082 542 1082 q 613 1076 596 1082 q 656 1056 631 1069 q 694 1038 679 1043 q 729 1032 710 1032 q 786 1042 761 1032 q 835 1079 811 1053 l 825 1036 q 726 997 789 997 m 392 -14 q 157 63 233 -14 q 81 282 81 139 q 99 439 81 357 q 266 795 150 682 q 589 908 382 908 q 869 776 801 908 q 1007 815 961 776 q 1075 956 1053 854 l 1110 956 q 1030 794 1085 842 q 883 742 975 747 q 900 621 900 690 q 879 439 900 542 q 392 -14 782 -14 m 400 21 q 842 439 753 21 q 864 624 864 542 q 795 815 864 757 q 581 874 726 874 q 372 831 458 874 q 228 692 286 788 q 136 439 169 597 q 117 283 117 349 q 186 87 117 153 q 400 21 256 21 z "},"Ő":{"ha":947,"x_min":81,"x_max":900,"o":"m 553 1135 l 593 1135 l 460 956 l 429 956 l 553 1135 m 819 1135 l 860 1135 l 725 956 l 694 956 l 819 1135 m 392 -14 q 158 65 236 -14 q 81 286 81 143 q 99 439 81 358 q 268 794 150 681 q 589 908 386 908 q 823 837 746 908 q 900 618 900 765 q 879 439 900 539 q 392 -14 782 -14 m 400 21 q 687 127 576 21 q 842 439 797 233 q 864 622 864 542 q 795 815 864 756 q 581 874 726 874 q 296 772 407 874 q 136 439 185 669 q 117 281 117 349 q 186 86 117 151 q 400 21 256 21 z "},"Ō":{"ha":947,"x_min":81,"x_max":900,"o":"m 431 1032 l 800 1032 l 792 997 l 422 997 l 431 1032 m 392 -14 q 158 65 236 -14 q 81 286 81 143 q 99 439 81 358 q 268 794 150 681 q 589 908 386 908 q 823 837 746 908 q 900 618 900 765 q 879 439 900 539 q 392 -14 782 -14 m 400 21 q 687 127 576 21 q 842 439 797 233 q 864 622 864 542 q 795 815 864 756 q 581 874 726 874 q 296 772 407 874 q 136 439 185 669 q 117 281 117 349 q 186 86 117 151 q 400 21 256 21 z "},"Ø":{"ha":947,"x_min":81,"x_max":900,"o":"m 211 25 q 81 286 81 96 q 99 439 81 358 q 268 794 150 681 q 589 908 386 908 q 704 896 654 908 l 743 963 l 781 963 l 738 886 q 900 617 900 831 q 879 439 900 539 q 392 -14 782 -14 q 240 11 303 -14 l 193 -74 l 156 -74 l 211 25 m 686 864 q 581 874 633 874 q 296 772 407 874 q 136 439 185 669 q 117 281 117 349 q 228 56 117 114 l 686 864 m 400 21 q 687 127 576 21 q 842 439 797 233 q 864 622 864 542 q 828 776 864 719 q 719 856 793 832 l 258 42 q 400 21 317 21 z "},"Ǿ":{"ha":947,"x_min":81,"x_max":900,"o":"m 717 1163 l 758 1163 l 617 956 l 585 956 l 717 1163 m 211 25 q 81 286 81 96 q 99 439 81 358 q 268 794 150 681 q 589 908 386 908 q 704 896 654 908 l 743 963 l 781 963 l 738 886 q 900 617 900 831 q 879 439 900 539 q 392 -14 782 -14 q 240 11 303 -14 l 193 -74 l 156 -74 l 211 25 m 686 864 q 581 874 633 874 q 296 772 407 874 q 136 439 185 669 q 117 281 117 349 q 228 56 117 114 l 686 864 m 400 21 q 687 127 576 21 q 842 439 797 233 q 864 622 864 542 q 828 776 864 719 q 719 856 793 832 l 258 42 q 400 21 317 21 z "},"Õ":{"ha":947,"x_min":81,"x_max":900,"o":"m 699 997 q 658 1003 676 997 q 611 1024 639 1010 q 573 1041 589 1035 q 542 1047 557 1047 q 428 1000 475 1047 l 436 1043 q 485 1072 456 1061 q 544 1082 514 1082 q 585 1076 568 1082 q 628 1056 603 1069 q 667 1038 651 1043 q 701 1032 682 1032 q 758 1042 733 1032 q 807 1079 783 1053 l 797 1036 q 699 997 761 997 m 392 -14 q 158 65 236 -14 q 81 286 81 143 q 99 439 81 358 q 268 794 150 681 q 589 908 386 908 q 823 837 746 908 q 900 618 900 765 q 879 439 900 539 q 392 -14 782 -14 m 400 21 q 687 127 576 21 q 842 439 797 233 q 864 622 864 542 q 795 815 864 756 q 581 874 726 874 q 296 772 407 874 q 136 439 185 669 q 117 281 117 349 q 186 86 117 151 q 400 21 256 21 z "},"Œ":{"ha":1479,"x_min":83,"x_max":1507,"o":"m 394 -14 q 161 65 239 -14 q 83 286 83 143 q 101 439 83 358 q 271 794 153 681 q 592 908 389 908 q 897 692 863 908 l 940 894 l 1507 894 l 1500 860 l 972 860 l 889 465 l 1368 465 l 1360 431 l 881 431 l 797 35 l 1325 35 l 1318 0 l 751 0 l 794 203 q 394 -14 665 -14 m 403 21 q 690 124 578 21 q 842 428 803 228 l 851 476 q 867 622 867 564 q 798 815 867 756 q 583 874 729 874 q 299 772 410 874 q 139 439 188 669 q 119 281 119 349 q 189 86 119 151 q 403 21 258 21 z "},"P":{"ha":778,"x_min":33,"x_max":786,"o":"m 222 894 l 557 894 q 729 845 672 894 q 786 706 786 796 q 776 626 786 675 q 663 431 750 500 q 439 363 576 363 l 149 363 l 72 0 l 33 0 l 222 894 m 449 397 q 644 458 571 397 q 739 626 717 518 q 749 706 749 678 q 703 821 749 782 q 561 860 657 860 l 254 860 l 156 397 l 449 397 z "},"Þ":{"ha":806,"x_min":33,"x_max":747,"o":"m 222 894 l 261 894 l 224 713 l 519 713 q 691 663 635 713 q 747 522 747 614 q 739 444 747 486 q 622 250 713 319 q 400 181 532 181 l 110 181 l 72 0 l 33 0 l 222 894 m 410 215 q 603 276 528 215 q 701 444 678 338 q 710 514 710 482 q 661 635 710 593 q 515 676 613 676 l 215 676 l 117 215 l 410 215 z "},"Q":{"ha":947,"x_min":79,"x_max":901,"o":"m 479 -239 q 381 -207 411 -239 q 351 -112 351 -175 q 363 -12 351 -72 q 149 69 219 -7 q 79 282 79 146 q 99 439 79 350 q 268 794 150 681 q 589 908 386 908 q 825 838 749 908 q 901 622 901 768 q 879 439 901 540 q 715 107 832 225 q 400 -14 597 -11 q 388 -112 388 -75 q 410 -181 388 -160 q 486 -203 433 -203 q 537 -199 507 -203 q 589 -189 567 -194 l 581 -225 q 479 -239 532 -239 m 400 21 q 687 127 576 21 q 842 439 797 233 q 865 626 865 550 q 797 816 865 758 q 581 874 728 874 q 296 772 406 874 q 136 439 186 671 q 117 278 117 346 q 185 85 117 150 q 400 21 254 21 z "},"R":{"ha":808,"x_min":33,"x_max":788,"o":"m 222 894 l 578 894 q 735 849 683 894 q 788 717 788 803 q 779 639 788 681 q 691 465 756 531 q 522 386 626 400 q 563 351 551 372 q 585 289 575 331 l 647 0 l 608 0 l 544 281 q 521 340 535 319 q 476 369 507 360 q 385 379 444 379 l 153 379 l 72 0 l 33 0 l 222 894 m 463 414 q 742 639 694 414 q 751 719 751 679 q 709 825 751 790 q 575 860 667 860 l 254 860 l 160 414 l 463 414 z "},"Ŕ":{"ha":808,"x_min":33,"x_max":788,"o":"m 643 1163 l 685 1163 l 543 956 l 511 956 l 643 1163 m 222 894 l 578 894 q 735 849 683 894 q 788 717 788 803 q 779 639 788 681 q 691 465 756 531 q 522 386 626 400 q 563 351 551 372 q 585 289 575 331 l 647 0 l 608 0 l 544 281 q 521 340 535 319 q 476 369 507 360 q 385 379 444 379 l 153 379 l 72 0 l 33 0 l 222 894 m 463 414 q 742 639 694 414 q 751 719 751 679 q 709 825 751 790 q 575 860 667 860 l 254 860 l 160 414 l 463 414 z "},"Ř":{"ha":808,"x_min":33,"x_max":788,"o":"m 422 1125 l 460 1125 l 542 981 l 685 1125 l 728 1125 l 560 956 l 518 956 l 422 1125 m 222 894 l 578 894 q 735 849 683 894 q 788 717 788 803 q 779 639 788 681 q 691 465 756 531 q 522 386 626 400 q 563 351 551 372 q 585 289 575 331 l 647 0 l 608 0 l 544 281 q 521 340 535 319 q 476 369 507 360 q 385 379 444 379 l 153 379 l 72 0 l 33 0 l 222 894 m 463 414 q 742 639 694 414 q 751 719 751 679 q 709 825 751 790 q 575 860 667 860 l 254 860 l 160 414 l 463 414 z "},"Ŗ":{"ha":808,"x_min":33,"x_max":788,"o":"m 222 894 l 578 894 q 735 849 683 894 q 788 717 788 803 q 779 639 788 681 q 691 465 756 531 q 522 386 626 400 q 563 351 551 372 q 585 289 575 331 l 647 0 l 608 0 l 544 281 q 521 340 535 319 q 476 369 507 360 q 385 379 444 379 l 153 379 l 72 0 l 33 0 l 222 894 m 463 414 q 742 639 694 414 q 751 719 751 679 q 709 825 751 790 q 575 860 667 860 l 254 860 l 160 414 l 463 414 m 263 -51 l 308 -51 l 214 -264 l 183 -264 l 263 -51 z "},"Ṛ":{"ha":808,"x_min":33,"x_max":788,"o":"m 222 894 l 578 894 q 735 849 683 894 q 788 717 788 803 q 779 639 788 681 q 691 465 756 531 q 522 386 626 400 q 563 351 551 372 q 585 289 575 331 l 647 0 l 608 0 l 544 281 q 521 340 535 319 q 476 369 507 360 q 385 379 444 379 l 153 379 l 72 0 l 33 0 l 222 894 m 463 414 q 742 639 694 414 q 751 719 751 679 q 709 825 751 790 q 575 860 667 860 l 254 860 l 160 414 l 463 414 m 299 -142 l 350 -142 l 339 -193 l 288 -193 l 299 -142 z "},"Ṝ":{"ha":808,"x_min":33,"x_max":788,"o":"m 361 1032 l 731 1032 l 722 997 l 353 997 l 361 1032 m 222 894 l 578 894 q 735 849 683 894 q 788 717 788 803 q 779 639 788 681 q 691 465 756 531 q 522 386 626 400 q 563 351 551 372 q 585 289 575 331 l 647 0 l 608 0 l 544 281 q 521 340 535 319 q 476 369 507 360 q 385 379 444 379 l 153 379 l 72 0 l 33 0 l 222 894 m 463 414 q 742 639 694 414 q 751 719 751 679 q 709 825 751 790 q 575 860 667 860 l 254 860 l 160 414 l 463 414 m 268 -142 l 319 -142 l 308 -193 l 257 -193 l 268 -142 z "},"Ṟ":{"ha":808,"x_min":33,"x_max":788,"o":"m 222 894 l 578 894 q 735 849 683 894 q 788 717 788 803 q 779 639 788 681 q 691 465 756 531 q 522 386 626 400 q 563 351 551 372 q 585 289 575 331 l 647 0 l 608 0 l 544 281 q 521 340 535 319 q 476 369 507 360 q 385 379 444 379 l 153 379 l 72 0 l 33 0 l 222 894 m 463 414 q 742 639 694 414 q 751 719 751 679 q 709 825 751 790 q 575 860 667 860 l 254 860 l 160 414 l 463 414 m 110 -106 l 479 -106 l 472 -140 l 103 -140 l 110 -106 z "},"S":{"ha":765,"x_min":35,"x_max":735,"o":"m 275 -14 q 35 22 124 -14 l 42 57 q 282 19 144 19 q 508 69 425 19 q 614 222 592 118 q 619 269 619 244 q 563 376 619 338 q 378 442 507 414 q 198 512 253 469 q 143 622 143 554 q 149 674 143 650 q 261 846 172 783 q 510 908 350 908 q 638 899 576 908 q 735 876 700 889 l 726 842 q 513 874 635 874 q 290 825 371 874 q 186 674 208 776 q 181 628 181 651 q 232 534 181 568 q 413 469 283 500 q 601 393 544 439 q 657 275 657 347 q 651 222 657 249 q 531 44 625 103 q 275 -14 438 -14 z "},"Ś":{"ha":765,"x_min":35,"x_max":735,"o":"m 615 1179 l 657 1179 l 515 972 l 483 972 l 615 1179 m 275 -14 q 35 22 124 -14 l 42 57 q 282 19 144 19 q 508 69 425 19 q 614 222 592 118 q 619 269 619 244 q 563 376 619 338 q 378 442 507 414 q 198 512 253 469 q 143 622 143 554 q 149 674 143 650 q 261 846 172 783 q 510 908 350 908 q 638 899 576 908 q 735 876 700 889 l 726 842 q 513 874 635 874 q 290 825 371 874 q 186 674 208 776 q 181 628 181 651 q 232 534 181 568 q 413 469 283 500 q 601 393 544 439 q 657 275 657 347 q 651 222 657 249 q 531 44 625 103 q 275 -14 438 -14 z "},"Š":{"ha":765,"x_min":35,"x_max":735,"o":"m 407 1125 l 444 1125 l 526 981 l 669 1125 l 713 1125 l 544 956 l 503 956 l 407 1125 m 275 -14 q 35 22 124 -14 l 42 57 q 282 19 144 19 q 508 69 425 19 q 614 222 592 118 q 619 269 619 244 q 563 376 619 338 q 378 442 507 414 q 198 512 253 469 q 143 622 143 554 q 149 674 143 650 q 261 846 172 783 q 510 908 350 908 q 638 899 576 908 q 735 876 700 889 l 726 842 q 513 874 635 874 q 290 825 371 874 q 186 674 208 776 q 181 628 181 651 q 232 534 181 568 q 413 469 283 500 q 601 393 544 439 q 657 275 657 347 q 651 222 657 249 q 531 44 625 103 q 275 -14 438 -14 z "},"Ş":{"ha":765,"x_min":35,"x_max":735,"o":"m 207 -333 q 122 -322 161 -333 l 131 -287 q 217 -299 167 -299 q 333 -275 292 -299 q 386 -196 374 -251 q 389 -169 389 -176 q 360 -120 389 -135 q 268 -106 332 -106 l 229 -106 l 281 -14 q 35 22 124 -14 l 42 57 q 282 19 144 19 q 508 69 425 19 q 614 222 592 118 q 619 269 619 244 q 563 376 619 338 q 378 442 507 414 q 198 512 253 469 q 143 622 143 554 q 149 674 143 650 q 261 846 172 783 q 510 908 350 908 q 638 899 576 908 q 735 876 700 889 l 726 842 q 513 874 635 874 q 290 825 371 874 q 186 674 208 776 q 181 628 181 651 q 232 534 181 568 q 413 469 283 500 q 601 393 544 439 q 657 275 657 347 q 651 222 657 249 q 545 53 628 111 q 321 -12 463 -4 l 286 -74 q 390 -97 353 -74 q 426 -167 426 -121 q 424 -193 426 -174 q 356 -298 408 -262 q 207 -333 304 -333 z "},"Ŝ":{"ha":765,"x_min":35,"x_max":735,"o":"m 526 1169 l 568 1169 l 664 1000 l 626 1000 l 544 1144 l 401 1000 l 360 1000 l 526 1169 m 275 -14 q 35 22 124 -14 l 42 57 q 282 19 144 19 q 508 69 425 19 q 614 222 592 118 q 619 269 619 244 q 563 376 619 338 q 378 442 507 414 q 198 512 253 469 q 143 622 143 554 q 149 674 143 650 q 261 846 172 783 q 510 908 350 908 q 638 899 576 908 q 735 876 700 889 l 726 842 q 513 874 635 874 q 290 825 371 874 q 186 674 208 776 q 181 628 181 651 q 232 534 181 568 q 413 469 283 500 q 601 393 544 439 q 657 275 657 347 q 651 222 657 249 q 531 44 625 103 q 275 -14 438 -14 z "},"Ș":{"ha":765,"x_min":35,"x_max":735,"o":"m 275 -14 q 35 22 124 -14 l 42 57 q 282 19 144 19 q 508 69 425 19 q 614 222 592 118 q 619 269 619 244 q 563 376 619 338 q 378 442 507 414 q 198 512 253 469 q 143 622 143 554 q 149 674 143 650 q 261 846 172 783 q 510 908 350 908 q 638 899 576 908 q 735 876 700 889 l 726 842 q 513 874 635 874 q 290 825 371 874 q 186 674 208 776 q 181 628 181 651 q 232 534 181 568 q 413 469 283 500 q 601 393 544 439 q 657 275 657 347 q 651 222 657 249 q 531 44 625 103 q 275 -14 438 -14 m 267 -79 l 311 -79 l 218 -292 l 188 -292 l 267 -79 z "},"Ṡ":{"ha":765,"x_min":35,"x_max":735,"o":"m 493 1046 l 542 1046 l 532 997 l 483 997 l 493 1046 m 275 -14 q 35 22 124 -14 l 42 57 q 282 19 144 19 q 508 69 425 19 q 614 222 592 118 q 619 269 619 244 q 563 376 619 338 q 378 442 507 414 q 198 512 253 469 q 143 622 143 554 q 149 674 143 650 q 261 846 172 783 q 510 908 350 908 q 638 899 576 908 q 735 876 700 889 l 726 842 q 513 874 635 874 q 290 825 371 874 q 186 674 208 776 q 181 628 181 651 q 232 534 181 568 q 413 469 283 500 q 601 393 544 439 q 657 275 657 347 q 651 222 657 249 q 531 44 625 103 q 275 -14 438 -14 z "},"Ṣ":{"ha":765,"x_min":35,"x_max":735,"o":"m 275 -14 q 35 22 124 -14 l 42 57 q 282 19 144 19 q 508 69 425 19 q 614 222 592 118 q 619 269 619 244 q 563 376 619 338 q 378 442 507 414 q 198 512 253 469 q 143 622 143 554 q 149 674 143 650 q 261 846 172 783 q 510 908 350 908 q 638 899 576 908 q 735 876 700 889 l 726 842 q 513 874 635 874 q 290 825 371 874 q 186 674 208 776 q 181 628 181 651 q 232 534 181 568 q 413 469 283 500 q 601 393 544 439 q 657 275 657 347 q 651 222 657 249 q 531 44 625 103 q 275 -14 438 -14 m 247 -142 l 299 -142 l 288 -193 l 236 -193 l 247 -142 z "},"ẞ":{"ha":851,"x_min":26,"x_max":786,"o":"m 419 -14 q 226 17 296 -14 l 235 53 q 428 21 303 21 q 704 247 658 21 q 714 321 714 296 q 671 417 714 386 q 529 447 628 447 l 388 447 l 396 488 l 743 678 q 749 728 749 701 q 525 872 749 872 q 306 813 386 872 q 197 624 225 753 l 65 0 l 26 0 l 160 629 q 533 908 218 908 q 724 859 661 908 q 786 724 786 810 q 779 663 786 697 l 449 482 l 544 482 q 750 317 750 482 q 742 247 750 285 q 634 51 714 115 q 419 -14 554 -14 z "},"Ə":{"ha":910,"x_min":65,"x_max":863,"o":"m 349 -14 q 134 53 203 -14 q 65 233 65 119 q 76 335 65 279 l 106 476 l 811 476 q 826 618 826 560 q 747 811 826 749 q 481 874 668 874 q 240 826 368 874 l 249 864 q 372 897 306 885 q 497 908 438 908 q 775 837 688 908 q 863 614 863 765 q 842 440 863 539 q 675 103 794 219 q 349 -14 556 -14 m 357 21 q 651 127 543 21 q 804 440 760 233 l 138 440 l 115 338 q 103 231 103 279 q 165 73 103 125 q 357 21 226 21 z "},"T":{"ha":790,"x_min":160,"x_max":846,"o":"m 481 860 l 160 860 l 167 894 l 846 894 l 839 860 l 519 860 l 338 0 l 299 0 l 481 860 z "},"Ŧ":{"ha":790,"x_min":160,"x_max":846,"o":"m 519 860 l 447 517 l 671 517 l 663 482 l 439 482 l 338 0 l 299 0 l 400 482 l 171 482 l 179 517 l 408 517 l 481 860 l 160 860 l 167 894 l 846 894 l 839 860 l 519 860 z "},"Ť":{"ha":790,"x_min":160,"x_max":846,"o":"m 411 1169 l 449 1169 l 531 1025 l 674 1169 l 717 1169 l 549 1000 l 507 1000 l 411 1169 m 481 860 l 160 860 l 167 894 l 846 894 l 839 860 l 519 860 l 338 0 l 299 0 l 481 860 z "},"Ţ":{"ha":790,"x_min":132,"x_max":846,"o":"m 217 -333 q 132 -322 171 -333 l 140 -287 q 226 -299 176 -299 q 342 -275 301 -299 q 396 -196 383 -251 q 399 -169 399 -176 q 370 -120 399 -135 q 278 -106 342 -106 l 239 -106 l 299 0 l 481 860 l 160 860 l 167 894 l 846 894 l 839 860 l 519 860 l 338 0 l 296 -74 q 399 -97 363 -74 q 436 -167 436 -121 q 433 -193 436 -174 q 366 -298 418 -262 q 217 -333 314 -333 z "},"Ț":{"ha":790,"x_min":160,"x_max":846,"o":"m 481 860 l 160 860 l 167 894 l 846 894 l 839 860 l 519 860 l 338 0 l 299 0 l 481 860 m 282 -51 l 328 -51 l 233 -264 l 203 -264 l 282 -51 z "},"Ṭ":{"ha":790,"x_min":160,"x_max":846,"o":"m 481 860 l 160 860 l 167 894 l 846 894 l 839 860 l 519 860 l 338 0 l 299 0 l 481 860 m 263 -142 l 314 -142 l 303 -193 l 251 -193 l 263 -142 z "},"Ṯ":{"ha":790,"x_min":103,"x_max":846,"o":"m 481 860 l 160 860 l 167 894 l 846 894 l 839 860 l 519 860 l 338 0 l 299 0 l 481 860 m 110 -106 l 479 -106 l 472 -140 l 103 -140 l 110 -106 z "},"U":{"ha":911,"x_min":82,"x_max":918,"o":"m 374 -14 q 82 215 82 -14 q 94 321 82 265 l 215 894 l 254 894 l 129 304 q 119 217 119 260 q 185 69 119 117 q 382 22 250 22 q 631 92 539 22 q 754 304 724 161 l 879 894 l 918 894 l 797 321 q 661 68 761 150 q 374 -14 561 -14 z "},"Ú":{"ha":911,"x_min":82,"x_max":918,"o":"m 686 1163 l 728 1163 l 586 956 l 554 956 l 686 1163 m 374 -14 q 82 215 82 -14 q 94 321 82 265 l 215 894 l 254 894 l 129 304 q 119 217 119 260 q 185 69 119 117 q 382 22 250 22 q 631 92 539 22 q 754 304 724 161 l 879 894 l 918 894 l 797 321 q 661 68 761 150 q 374 -14 561 -14 z "},"Ŭ":{"ha":911,"x_min":82,"x_max":918,"o":"m 567 956 q 490 985 519 956 q 460 1058 460 1014 q 463 1088 460 1078 l 494 1088 q 492 1065 492 1071 q 514 1011 492 1032 q 571 990 536 990 q 647 1018 614 990 q 690 1088 681 1046 l 728 1088 q 669 994 715 1032 q 567 956 622 956 m 374 -14 q 82 215 82 -14 q 94 321 82 265 l 215 894 l 254 894 l 129 304 q 119 217 119 260 q 185 69 119 117 q 382 22 250 22 q 631 92 539 22 q 754 304 724 161 l 879 894 l 918 894 l 797 321 q 661 68 761 150 q 374 -14 561 -14 z "},"Ǔ":{"ha":911,"x_min":82,"x_max":918,"o":"m 464 1125 l 501 1125 l 583 981 l 726 1125 l 769 1125 l 601 956 l 560 956 l 464 1125 m 374 -14 q 82 215 82 -14 q 94 321 82 265 l 215 894 l 254 894 l 129 304 q 119 217 119 260 q 185 69 119 117 q 382 22 250 22 q 631 92 539 22 q 754 304 724 161 l 879 894 l 918 894 l 797 321 q 661 68 761 150 q 374 -14 561 -14 z "},"Û":{"ha":911,"x_min":82,"x_max":918,"o":"m 596 1125 l 638 1125 l 733 956 l 696 956 l 614 1100 l 471 956 l 429 956 l 596 1125 m 374 -14 q 82 215 82 -14 q 94 321 82 265 l 215 894 l 254 894 l 129 304 q 119 217 119 260 q 185 69 119 117 q 382 22 250 22 q 631 92 539 22 q 754 304 724 161 l 879 894 l 918 894 l 797 321 q 661 68 761 150 q 374 -14 561 -14 z "},"Ü":{"ha":911,"x_min":82,"x_max":918,"o":"m 465 1046 l 514 1046 l 504 997 l 456 997 l 465 1046 m 683 1046 l 732 1046 l 722 997 l 674 997 l 683 1046 m 374 -14 q 82 215 82 -14 q 94 321 82 265 l 215 894 l 254 894 l 129 304 q 119 217 119 260 q 185 69 119 117 q 382 22 250 22 q 631 92 539 22 q 754 304 724 161 l 879 894 l 918 894 l 797 321 q 661 68 761 150 q 374 -14 561 -14 z "},"Ǘ":{"ha":911,"x_min":82,"x_max":918,"o":"m 689 1204 l 729 1204 l 607 1053 l 576 1053 l 689 1204 m 457 1004 l 506 1004 l 496 956 l 447 956 l 457 1004 m 675 1004 l 724 1004 l 714 956 l 665 956 l 675 1004 m 374 -14 q 82 215 82 -14 q 94 321 82 265 l 215 894 l 254 894 l 129 304 q 119 217 119 260 q 185 69 119 117 q 382 22 250 22 q 631 92 539 22 q 754 304 724 161 l 879 894 l 918 894 l 797 321 q 661 68 761 150 q 374 -14 561 -14 z "},"Ǚ":{"ha":911,"x_min":82,"x_max":918,"o":"m 479 1194 l 519 1194 l 607 1075 l 743 1194 l 783 1194 l 622 1053 l 581 1053 l 479 1194 m 458 1004 l 507 1004 l 497 956 l 449 956 l 458 1004 m 676 1004 l 724 1004 l 714 956 l 667 956 l 676 1004 m 374 -14 q 82 215 82 -14 q 94 321 82 265 l 215 894 l 254 894 l 129 304 q 119 217 119 260 q 185 69 119 117 q 382 22 250 22 q 631 92 539 22 q 754 304 724 161 l 879 894 l 918 894 l 797 321 q 661 68 761 150 q 374 -14 561 -14 z "},"Ǜ":{"ha":911,"x_min":82,"x_max":918,"o":"m 538 1204 l 578 1204 l 624 1053 l 593 1053 l 538 1204 m 457 1004 l 506 1004 l 496 956 l 447 956 l 457 1004 m 675 1004 l 724 1004 l 714 956 l 665 956 l 675 1004 m 374 -14 q 82 215 82 -14 q 94 321 82 265 l 215 894 l 254 894 l 129 304 q 119 217 119 260 q 185 69 119 117 q 382 22 250 22 q 631 92 539 22 q 754 304 724 161 l 879 894 l 918 894 l 797 321 q 661 68 761 150 q 374 -14 561 -14 z "},"Ǖ":{"ha":911,"x_min":82,"x_max":918,"o":"m 447 1192 l 817 1192 l 808 1157 l 439 1157 l 447 1192 m 465 1046 l 514 1046 l 504 997 l 456 997 l 465 1046 m 683 1046 l 732 1046 l 722 997 l 674 997 l 683 1046 m 374 -14 q 82 215 82 -14 q 94 321 82 265 l 215 894 l 254 894 l 129 304 q 119 217 119 260 q 185 69 119 117 q 382 22 250 22 q 631 92 539 22 q 754 304 724 161 l 879 894 l 918 894 l 797 321 q 661 68 761 150 q 374 -14 561 -14 z "},"Ụ":{"ha":911,"x_min":82,"x_max":918,"o":"m 374 -14 q 82 215 82 -14 q 94 321 82 265 l 215 894 l 254 894 l 129 304 q 119 217 119 260 q 185 69 119 117 q 382 22 250 22 q 631 92 539 22 q 754 304 724 161 l 879 894 l 918 894 l 797 321 q 661 68 761 150 q 374 -14 561 -14 m 324 -142 l 375 -142 l 364 -193 l 313 -193 l 324 -142 z "},"Ù":{"ha":911,"x_min":82,"x_max":918,"o":"m 544 1163 l 586 1163 l 629 956 l 597 956 l 544 1163 m 374 -14 q 82 215 82 -14 q 94 321 82 265 l 215 894 l 254 894 l 129 304 q 119 217 119 260 q 185 69 119 117 q 382 22 250 22 q 631 92 539 22 q 754 304 724 161 l 879 894 l 918 894 l 797 321 q 661 68 761 150 q 374 -14 561 -14 z "},"Ủ":{"ha":911,"x_min":82,"x_max":918,"o":"m 579 1060 q 668 1072 638 1061 q 712 1102 699 1083 q 732 1153 725 1121 q 735 1176 735 1169 q 710 1222 735 1207 q 628 1236 685 1236 q 576 1231 604 1236 q 529 1219 549 1226 l 536 1254 q 585 1266 554 1261 q 638 1271 615 1271 q 735 1247 701 1271 q 769 1179 769 1224 q 767 1153 769 1172 q 719 1067 754 1096 q 613 1033 685 1039 l 596 956 l 557 956 l 579 1060 m 374 -14 q 82 215 82 -14 q 94 321 82 265 l 215 894 l 254 894 l 129 304 q 119 217 119 260 q 185 69 119 117 q 382 22 250 22 q 631 92 539 22 q 754 304 724 161 l 879 894 l 918 894 l 797 321 q 661 68 761 150 q 374 -14 561 -14 z "},"Ư":{"ha":1064,"x_min":82,"x_max":1133,"o":"m 374 -14 q 155 45 228 -14 q 82 219 82 104 q 94 321 82 267 l 215 894 l 254 894 l 129 304 q 119 219 119 261 q 185 71 119 119 q 382 22 250 22 q 630 92 536 22 q 754 304 724 163 l 879 894 l 918 894 l 893 776 q 1031 815 985 776 q 1099 956 1078 854 l 1133 956 q 1049 789 1108 835 q 886 742 989 743 l 797 321 q 659 69 761 151 q 374 -14 557 -14 z "},"Ứ":{"ha":1064,"x_min":82,"x_max":1133,"o":"m 713 1163 l 754 1163 l 613 956 l 581 956 l 713 1163 m 374 -14 q 155 45 228 -14 q 82 219 82 104 q 94 321 82 267 l 215 894 l 254 894 l 129 304 q 119 219 119 261 q 185 71 119 119 q 382 22 250 22 q 630 92 536 22 q 754 304 724 163 l 879 894 l 918 894 l 893 776 q 1031 815 985 776 q 1099 956 1078 854 l 1133 956 q 1049 789 1108 835 q 886 742 989 743 l 797 321 q 659 69 761 151 q 374 -14 557 -14 z "},"Ự":{"ha":1064,"x_min":82,"x_max":1133,"o":"m 374 -14 q 155 45 228 -14 q 82 219 82 104 q 94 321 82 267 l 215 894 l 254 894 l 129 304 q 119 219 119 261 q 185 71 119 119 q 382 22 250 22 q 630 92 536 22 q 754 304 724 163 l 879 894 l 918 894 l 893 776 q 1031 815 985 776 q 1099 956 1078 854 l 1133 956 q 1049 789 1108 835 q 886 742 989 743 l 797 321 q 659 69 761 151 q 374 -14 557 -14 m 318 -142 l 369 -142 l 358 -193 l 307 -193 l 318 -142 z "},"Ừ":{"ha":1064,"x_min":82,"x_max":1133,"o":"m 526 1163 l 568 1163 l 611 956 l 579 956 l 526 1163 m 374 -14 q 155 45 228 -14 q 82 219 82 104 q 94 321 82 267 l 215 894 l 254 894 l 129 304 q 119 219 119 261 q 185 71 119 119 q 382 22 250 22 q 630 92 536 22 q 754 304 724 163 l 879 894 l 918 894 l 893 776 q 1031 815 985 776 q 1099 956 1078 854 l 1133 956 q 1049 789 1108 835 q 886 742 989 743 l 797 321 q 659 69 761 151 q 374 -14 557 -14 z "},"Ử":{"ha":1064,"x_min":82,"x_max":1133,"o":"m 594 1060 q 683 1072 653 1061 q 727 1102 714 1083 q 747 1153 740 1121 q 750 1176 750 1169 q 725 1222 750 1207 q 643 1236 700 1236 q 592 1231 619 1236 q 544 1219 564 1226 l 551 1254 q 600 1266 569 1261 q 653 1271 631 1271 q 751 1247 717 1271 q 785 1179 785 1224 q 782 1153 785 1172 q 735 1067 769 1096 q 628 1033 700 1039 l 611 956 l 572 956 l 594 1060 m 374 -14 q 155 45 228 -14 q 82 219 82 104 q 94 321 82 267 l 215 894 l 254 894 l 129 304 q 119 219 119 261 q 185 71 119 119 q 382 22 250 22 q 630 92 536 22 q 754 304 724 163 l 879 894 l 918 894 l 893 776 q 1031 815 985 776 q 1099 956 1078 854 l 1133 956 q 1049 789 1108 835 q 886 742 989 743 l 797 321 q 659 69 761 151 q 374 -14 557 -14 z "},"Ữ":{"ha":1064,"x_min":82,"x_max":1133,"o":"m 676 997 q 635 1003 654 997 q 589 1024 617 1010 q 551 1041 567 1035 q 519 1047 535 1047 q 406 1000 453 1047 l 414 1043 q 463 1072 433 1061 q 522 1082 492 1082 q 563 1076 546 1082 q 606 1056 581 1069 q 644 1038 629 1043 q 679 1032 660 1032 q 736 1042 711 1032 q 785 1079 761 1053 l 775 1036 q 676 997 739 997 m 374 -14 q 155 45 228 -14 q 82 219 82 104 q 94 321 82 267 l 215 894 l 254 894 l 129 304 q 119 219 119 261 q 185 71 119 119 q 382 22 250 22 q 630 92 536 22 q 754 304 724 163 l 879 894 l 918 894 l 893 776 q 1031 815 985 776 q 1099 956 1078 854 l 1133 956 q 1049 789 1108 835 q 886 742 989 743 l 797 321 q 659 69 761 151 q 374 -14 557 -14 z "},"Ű":{"ha":911,"x_min":82,"x_max":918,"o":"m 515 1135 l 556 1135 l 422 956 l 392 956 l 515 1135 m 782 1135 l 822 1135 l 688 956 l 657 956 l 782 1135 m 374 -14 q 82 215 82 -14 q 94 321 82 265 l 215 894 l 254 894 l 129 304 q 119 217 119 260 q 185 69 119 117 q 382 22 250 22 q 631 92 539 22 q 754 304 724 161 l 879 894 l 918 894 l 797 321 q 661 68 761 150 q 374 -14 561 -14 z "},"Ū":{"ha":911,"x_min":82,"x_max":918,"o":"m 413 1032 l 782 1032 l 774 997 l 404 997 l 413 1032 m 374 -14 q 82 215 82 -14 q 94 321 82 265 l 215 894 l 254 894 l 129 304 q 119 217 119 260 q 185 69 119 117 q 382 22 250 22 q 631 92 539 22 q 754 304 724 161 l 879 894 l 918 894 l 797 321 q 661 68 761 150 q 374 -14 561 -14 z "},"Ų":{"ha":911,"x_min":82,"x_max":918,"o":"m 329 -306 q 260 -286 286 -306 q 235 -224 235 -267 q 272 -110 235 -167 q 361 -14 308 -53 q 82 215 82 -10 q 94 321 82 263 l 215 894 l 254 894 l 129 304 q 119 217 119 260 q 185 69 119 117 q 382 22 250 22 q 631 92 539 22 q 754 304 724 161 l 879 894 l 918 894 l 797 321 q 669 75 763 157 q 401 -12 575 -7 q 305 -115 338 -60 q 272 -222 272 -169 q 287 -259 272 -247 q 336 -271 301 -271 q 407 -256 379 -271 l 400 -290 q 329 -306 369 -306 z "},"Ů":{"ha":911,"x_min":82,"x_max":918,"o":"m 581 956 q 502 984 531 956 q 474 1057 474 1013 q 522 1173 474 1125 q 636 1221 569 1221 q 715 1192 686 1221 q 744 1117 744 1164 q 722 1037 744 1074 q 663 978 700 1000 q 581 956 625 956 m 588 990 q 674 1028 638 990 q 710 1119 710 1067 q 629 1186 710 1186 q 553 1158 588 1186 q 511 1088 519 1131 q 507 1057 507 1071 q 527 1008 507 1026 q 588 990 547 990 m 374 -14 q 82 215 82 -14 q 94 321 82 265 l 215 894 l 254 894 l 129 304 q 119 217 119 260 q 185 69 119 117 q 382 22 250 22 q 631 92 539 22 q 754 304 724 161 l 879 894 l 918 894 l 797 321 q 661 68 761 150 q 374 -14 561 -14 z "},"Ũ":{"ha":911,"x_min":82,"x_max":918,"o":"m 681 997 q 640 1003 658 997 q 593 1024 621 1010 q 555 1041 571 1035 q 524 1047 539 1047 q 410 1000 457 1047 l 418 1043 q 467 1072 438 1061 q 526 1082 496 1082 q 567 1076 550 1082 q 610 1056 585 1069 q 649 1038 633 1043 q 683 1032 664 1032 q 740 1042 715 1032 q 789 1079 765 1053 l 779 1036 q 681 997 743 997 m 374 -14 q 82 215 82 -14 q 94 321 82 265 l 215 894 l 254 894 l 129 304 q 119 217 119 260 q 185 69 119 117 q 382 22 250 22 q 631 92 539 22 q 754 304 724 161 l 879 894 l 918 894 l 797 321 q 661 68 761 150 q 374 -14 561 -14 z "},"V":{"ha":903,"x_min":194,"x_max":931,"o":"m 194 894 l 232 894 l 375 22 l 888 894 l 931 894 l 406 0 l 343 0 l 194 894 z "},"W":{"ha":1167,"x_min":194,"x_max":1194,"o":"m 194 894 l 235 894 l 253 28 l 660 814 l 676 894 l 710 894 l 771 28 l 1156 894 l 1194 894 l 799 0 l 739 0 l 686 792 l 281 0 l 214 0 l 194 894 z "},"Ẃ":{"ha":1167,"x_min":194,"x_max":1194,"o":"m 842 1163 l 883 1163 l 742 956 l 710 956 l 842 1163 m 194 894 l 235 894 l 253 28 l 660 814 l 676 894 l 710 894 l 771 28 l 1156 894 l 1194 894 l 799 0 l 739 0 l 686 792 l 281 0 l 214 0 l 194 894 z "},"Ŵ":{"ha":1167,"x_min":194,"x_max":1194,"o":"m 733 1125 l 775 1125 l 871 956 l 833 956 l 751 1100 l 608 956 l 567 956 l 733 1125 m 194 894 l 235 894 l 253 28 l 660 814 l 676 894 l 710 894 l 771 28 l 1156 894 l 1194 894 l 799 0 l 739 0 l 686 792 l 281 0 l 214 0 l 194 894 z "},"Ẅ":{"ha":1167,"x_min":194,"x_max":1194,"o":"m 603 1046 l 651 1046 l 642 997 l 593 997 l 603 1046 m 821 1046 l 869 1046 l 860 997 l 811 997 l 821 1046 m 194 894 l 235 894 l 253 28 l 660 814 l 676 894 l 710 894 l 771 28 l 1156 894 l 1194 894 l 799 0 l 739 0 l 686 792 l 281 0 l 214 0 l 194 894 z "},"Ẁ":{"ha":1167,"x_min":194,"x_max":1194,"o":"m 640 1163 l 682 1163 l 725 956 l 693 956 l 640 1163 m 194 894 l 235 894 l 253 28 l 660 814 l 676 894 l 710 894 l 771 28 l 1156 894 l 1194 894 l 799 0 l 739 0 l 686 792 l 281 0 l 214 0 l 194 894 z "},"X":{"ha":828,"x_min":6,"x_max":856,"o":"m 406 440 l 194 894 l 235 894 l 433 463 l 815 894 l 856 894 l 451 440 l 667 0 l 626 0 l 424 415 l 46 0 l 6 0 l 406 440 z "},"Y":{"ha":842,"x_min":194,"x_max":869,"o":"m 394 336 l 194 894 l 232 894 l 418 372 l 826 894 l 869 894 l 433 336 l 363 0 l 324 0 l 394 336 z "},"Ý":{"ha":842,"x_min":194,"x_max":869,"o":"m 642 1163 l 683 1163 l 542 956 l 510 956 l 642 1163 m 394 336 l 194 894 l 232 894 l 418 372 l 826 894 l 869 894 l 433 336 l 363 0 l 324 0 l 394 336 z "},"Ŷ":{"ha":842,"x_min":194,"x_max":869,"o":"m 561 1125 l 603 1125 l 699 956 l 661 956 l 579 1100 l 436 956 l 394 956 l 561 1125 m 394 336 l 194 894 l 232 894 l 418 372 l 826 894 l 869 894 l 433 336 l 363 0 l 324 0 l 394 336 z "},"Ÿ":{"ha":842,"x_min":194,"x_max":869,"o":"m 431 1046 l 479 1046 l 469 997 l 421 997 l 431 1046 m 649 1046 l 697 1046 l 688 997 l 639 997 l 649 1046 m 394 336 l 194 894 l 232 894 l 418 372 l 826 894 l 869 894 l 433 336 l 363 0 l 324 0 l 394 336 z "},"Ẏ":{"ha":842,"x_min":194,"x_max":869,"o":"m 540 1046 l 589 1046 l 579 997 l 531 997 l 540 1046 m 394 336 l 194 894 l 232 894 l 418 372 l 826 894 l 869 894 l 433 336 l 363 0 l 324 0 l 394 336 z "},"Ỵ":{"ha":842,"x_min":194,"x_max":869,"o":"m 394 336 l 194 894 l 232 894 l 418 372 l 826 894 l 869 894 l 433 336 l 363 0 l 324 0 l 394 336 m 294 -114 l 346 -114 l 335 -165 l 283 -165 l 294 -114 z "},"Ỳ":{"ha":842,"x_min":194,"x_max":869,"o":"m 499 1163 l 540 1163 l 583 956 l 551 956 l 499 1163 m 394 336 l 194 894 l 232 894 l 418 372 l 826 894 l 869 894 l 433 336 l 363 0 l 324 0 l 394 336 z "},"Ỷ":{"ha":842,"x_min":194,"x_max":869,"o":"m 531 1060 q 619 1072 589 1061 q 663 1102 650 1083 q 683 1153 676 1121 q 686 1176 686 1169 q 661 1222 686 1207 q 579 1236 636 1236 q 528 1231 556 1236 q 481 1219 500 1226 l 488 1254 q 536 1266 506 1261 q 589 1271 567 1271 q 687 1247 653 1271 q 721 1179 721 1224 q 718 1153 721 1172 q 671 1067 706 1096 q 564 1033 636 1039 l 547 956 l 508 956 l 531 1060 m 394 336 l 194 894 l 232 894 l 418 372 l 826 894 l 869 894 l 433 336 l 363 0 l 324 0 l 394 336 z "},"Ỹ":{"ha":842,"x_min":194,"x_max":869,"o":"m 646 997 q 605 1003 624 997 q 558 1024 586 1010 q 520 1041 536 1035 q 489 1047 504 1047 q 375 1000 422 1047 l 383 1043 q 432 1072 403 1061 q 492 1082 461 1082 q 533 1076 515 1082 q 575 1056 550 1069 q 614 1038 599 1043 q 649 1032 629 1032 q 706 1042 681 1032 q 754 1079 731 1053 l 744 1036 q 646 997 708 997 m 394 336 l 194 894 l 232 894 l 418 372 l 826 894 l 869 894 l 433 336 l 363 0 l 324 0 l 394 336 z "},"Z":{"ha":783,"x_min":6,"x_max":811,"o":"m 11 31 l 760 860 l 211 860 l 218 894 l 811 894 l 804 858 l 61 35 l 636 35 l 629 0 l 6 0 l 11 31 z "},"Ź":{"ha":783,"x_min":6,"x_max":811,"o":"m 674 1163 l 715 1163 l 574 956 l 542 956 l 674 1163 m 11 31 l 760 860 l 211 860 l 218 894 l 811 894 l 804 858 l 61 35 l 636 35 l 629 0 l 6 0 l 11 31 z "},"Ž":{"ha":783,"x_min":6,"x_max":811,"o":"m 443 1125 l 481 1125 l 563 981 l 706 1125 l 749 1125 l 581 956 l 539 956 l 443 1125 m 11 31 l 760 860 l 211 860 l 218 894 l 811 894 l 804 858 l 61 35 l 636 35 l 629 0 l 6 0 l 11 31 z "},"Ż":{"ha":783,"x_min":6,"x_max":811,"o":"m 543 1046 l 592 1046 l 582 997 l 533 997 l 543 1046 m 11 31 l 760 860 l 211 860 l 218 894 l 811 894 l 804 858 l 61 35 l 636 35 l 629 0 l 6 0 l 11 31 z "},"Ẓ":{"ha":783,"x_min":6,"x_max":811,"o":"m 11 31 l 760 860 l 211 860 l 218 894 l 811 894 l 804 858 l 61 35 l 636 35 l 629 0 l 6 0 l 11 31 m 292 -142 l 343 -142 l 332 -193 l 281 -193 l 292 -142 z "},"a":{"ha":769,"x_min":57,"x_max":719,"o":"m 294 -14 q 57 196 57 -14 q 69 303 57 243 q 210 576 107 479 q 451 672 313 672 q 574 656 525 672 q 668 597 622 639 l 681 658 l 719 658 l 581 0 l 549 0 l 560 79 q 436 8 500 31 q 294 -14 372 -14 m 310 21 q 444 44 382 21 q 567 119 507 68 l 660 557 q 577 617 625 597 q 457 638 529 638 q 233 550 325 638 q 107 303 142 463 q 94 196 94 243 q 147 63 94 104 q 310 21 199 21 z "},"á":{"ha":731,"x_min":57,"x_max":719,"o":"m 571 932 l 613 932 l 471 725 l 439 725 l 571 932 m 294 -14 q 57 196 57 -14 q 69 303 57 243 q 210 576 107 479 q 451 672 313 672 q 574 656 525 672 q 668 597 622 639 l 681 658 l 719 658 l 581 0 l 549 0 l 560 79 q 436 8 500 31 q 294 -14 372 -14 m 310 21 q 444 44 382 21 q 567 119 507 68 l 660 557 q 577 617 625 597 q 457 638 529 638 q 233 550 325 638 q 107 303 142 463 q 94 196 94 243 q 147 63 94 104 q 310 21 199 21 z "},"ă":{"ha":725,"x_min":57,"x_max":719,"o":"m 475 725 q 398 754 428 725 q 368 828 368 783 q 371 857 368 847 l 403 857 q 400 835 400 840 q 422 781 400 801 q 479 760 444 760 q 556 788 522 760 q 599 857 589 815 l 636 857 q 577 763 624 801 q 475 725 531 725 m 294 -14 q 57 196 57 -14 q 69 303 57 243 q 210 576 107 479 q 451 672 313 672 q 574 656 525 672 q 668 597 622 639 l 681 658 l 719 658 l 581 0 l 549 0 l 560 79 q 436 8 500 31 q 294 -14 372 -14 m 310 21 q 444 44 382 21 q 567 119 507 68 l 660 557 q 577 617 625 597 q 457 638 529 638 q 233 550 325 638 q 107 303 142 463 q 94 196 94 243 q 147 63 94 104 q 310 21 199 21 z "},"ắ":{"ha":725,"x_min":57,"x_max":719,"o":"m 579 1004 l 619 1004 l 497 853 l 467 853 l 579 1004 m 474 725 q 366 756 408 725 q 324 850 324 786 q 329 897 324 875 l 363 897 q 358 856 358 875 q 479 760 358 760 q 593 794 546 760 q 654 897 640 828 l 690 897 q 613 766 672 807 q 474 725 554 725 m 294 -14 q 57 196 57 -14 q 69 303 57 243 q 210 576 107 479 q 451 672 313 672 q 574 656 525 672 q 668 597 622 639 l 681 658 l 719 658 l 581 0 l 549 0 l 560 79 q 436 8 500 31 q 294 -14 372 -14 m 310 21 q 444 44 382 21 q 567 119 507 68 l 660 557 q 577 617 625 597 q 457 638 529 638 q 233 550 325 638 q 107 303 142 463 q 94 196 94 243 q 147 63 94 104 q 310 21 199 21 z "},"ặ":{"ha":725,"x_min":57,"x_max":719,"o":"m 464 725 q 387 754 417 725 q 357 828 357 783 q 360 857 357 847 l 392 857 q 389 835 389 840 q 411 781 389 801 q 468 760 433 760 q 544 788 511 760 q 588 857 578 815 l 625 857 q 566 763 613 801 q 464 725 519 725 m 294 -14 q 57 196 57 -14 q 69 303 57 243 q 210 576 107 479 q 451 672 313 672 q 574 656 525 672 q 668 597 622 639 l 681 658 l 719 658 l 581 0 l 549 0 l 560 79 q 436 8 500 31 q 294 -14 372 -14 m 310 21 q 444 44 382 21 q 567 119 507 68 l 660 557 q 577 617 625 597 q 457 638 529 638 q 233 550 325 638 q 107 303 142 463 q 94 196 94 243 q 147 63 94 104 q 310 21 199 21 m 258 -142 l 310 -142 l 299 -193 l 247 -193 l 258 -142 z "},"ằ":{"ha":725,"x_min":57,"x_max":719,"o":"m 442 1004 l 482 1004 l 528 853 l 497 853 l 442 1004 m 468 725 q 360 756 403 725 q 318 850 318 786 q 324 897 318 875 l 357 897 q 353 856 353 875 q 474 760 353 760 q 588 794 540 760 q 649 897 635 828 l 685 897 q 608 766 667 807 q 468 725 549 725 m 294 -14 q 57 196 57 -14 q 69 303 57 243 q 210 576 107 479 q 451 672 313 672 q 574 656 525 672 q 668 597 622 639 l 681 658 l 719 658 l 581 0 l 549 0 l 560 79 q 436 8 500 31 q 294 -14 372 -14 m 310 21 q 444 44 382 21 q 567 119 507 68 l 660 557 q 577 617 625 597 q 457 638 529 638 q 233 550 325 638 q 107 303 142 463 q 94 196 94 243 q 147 63 94 104 q 310 21 199 21 z "},"ẳ":{"ha":725,"x_min":57,"x_max":719,"o":"m 469 901 q 567 921 542 906 q 601 971 593 936 q 603 989 603 978 q 588 1022 603 1011 q 538 1033 572 1033 q 450 1015 496 1033 l 458 1050 q 544 1067 499 1067 q 613 1048 588 1067 q 639 993 639 1029 q 636 971 639 988 q 595 903 626 926 q 503 875 564 881 l 492 824 l 453 824 l 469 901 m 476 725 q 369 756 411 725 q 326 850 326 786 q 332 897 326 875 l 365 897 q 361 856 361 875 q 482 760 361 760 q 596 794 549 760 q 657 897 643 828 l 693 897 q 616 766 675 807 q 476 725 557 725 m 294 -14 q 57 196 57 -14 q 69 303 57 243 q 210 576 107 479 q 451 672 313 672 q 574 656 525 672 q 668 597 622 639 l 681 658 l 719 658 l 581 0 l 549 0 l 560 79 q 436 8 500 31 q 294 -14 372 -14 m 310 21 q 444 44 382 21 q 567 119 507 68 l 660 557 q 577 617 625 597 q 457 638 529 638 q 233 550 325 638 q 107 303 142 463 q 94 196 94 243 q 147 63 94 104 q 310 21 199 21 z "},"ẵ":{"ha":725,"x_min":57,"x_max":719,"o":"m 358 990 q 464 1026 401 1026 q 501 1021 486 1026 q 540 1003 517 1015 q 573 987 558 992 q 607 982 588 982 q 664 992 639 982 q 718 1026 689 1001 l 708 983 q 604 947 668 947 q 565 953 582 947 q 525 971 549 958 q 491 986 506 981 q 461 992 476 992 q 403 982 429 992 q 350 947 378 972 l 358 990 m 481 725 q 373 756 415 725 q 331 850 331 786 q 336 897 331 875 l 369 897 q 365 856 365 875 q 486 760 365 760 q 600 794 553 760 q 661 897 647 828 l 697 897 q 620 766 679 807 q 481 725 561 725 m 294 -14 q 57 196 57 -14 q 69 303 57 243 q 210 576 107 479 q 451 672 313 672 q 574 656 525 672 q 668 597 622 639 l 681 658 l 719 658 l 581 0 l 549 0 l 560 79 q 436 8 500 31 q 294 -14 372 -14 m 310 21 q 444 44 382 21 q 567 119 507 68 l 660 557 q 577 617 625 597 q 457 638 529 638 q 233 550 325 638 q 107 303 142 463 q 94 196 94 243 q 147 63 94 104 q 310 21 199 21 z "},"ǎ":{"ha":725,"x_min":57,"x_max":719,"o":"m 339 894 l 376 894 l 458 750 l 601 894 l 644 894 l 476 725 l 435 725 l 339 894 m 294 -14 q 57 196 57 -14 q 69 303 57 243 q 210 576 107 479 q 451 672 313 672 q 574 656 525 672 q 668 597 622 639 l 681 658 l 719 658 l 581 0 l 549 0 l 560 79 q 436 8 500 31 q 294 -14 372 -14 m 310 21 q 444 44 382 21 q 567 119 507 68 l 660 557 q 577 617 625 597 q 457 638 529 638 q 233 550 325 638 q 107 303 142 463 q 94 196 94 243 q 147 63 94 104 q 310 21 199 21 z "},"â":{"ha":725,"x_min":57,"x_max":719,"o":"m 472 894 l 514 894 l 610 725 l 572 725 l 490 869 l 347 725 l 306 725 l 472 894 m 294 -14 q 57 196 57 -14 q 69 303 57 243 q 210 576 107 479 q 451 672 313 672 q 574 656 525 672 q 668 597 622 639 l 681 658 l 719 658 l 581 0 l 549 0 l 560 79 q 436 8 500 31 q 294 -14 372 -14 m 310 21 q 444 44 382 21 q 567 119 507 68 l 660 557 q 577 617 625 597 q 457 638 529 638 q 233 550 325 638 q 107 303 142 463 q 94 196 94 243 q 147 63 94 104 q 310 21 199 21 z "},"ấ":{"ha":725,"x_min":57,"x_max":732,"o":"m 693 1018 l 732 1018 l 611 867 l 581 867 l 693 1018 m 478 867 l 519 867 l 622 725 l 585 725 l 497 844 l 360 725 l 317 725 l 478 867 m 294 -14 q 57 196 57 -14 q 69 303 57 243 q 210 576 107 479 q 451 672 313 672 q 574 656 525 672 q 668 597 622 639 l 681 658 l 719 658 l 581 0 l 549 0 l 560 79 q 436 8 500 31 q 294 -14 372 -14 m 310 21 q 444 44 382 21 q 567 119 507 68 l 660 557 q 577 617 625 597 q 457 638 529 638 q 233 550 325 638 q 107 303 142 463 q 94 196 94 243 q 147 63 94 104 q 310 21 199 21 z "},"ậ":{"ha":725,"x_min":57,"x_max":719,"o":"m 476 894 l 518 894 l 614 725 l 576 725 l 494 869 l 351 725 l 310 725 l 476 894 m 294 -14 q 57 196 57 -14 q 69 303 57 243 q 210 576 107 479 q 451 672 313 672 q 574 656 525 672 q 668 597 622 639 l 681 658 l 719 658 l 581 0 l 549 0 l 560 79 q 436 8 500 31 q 294 -14 372 -14 m 310 21 q 444 44 382 21 q 567 119 507 68 l 660 557 q 577 617 625 597 q 457 638 529 638 q 233 550 325 638 q 107 303 142 463 q 94 196 94 243 q 147 63 94 104 q 310 21 199 21 m 256 -142 l 307 -142 l 296 -193 l 244 -193 l 256 -142 z "},"ầ":{"ha":725,"x_min":57,"x_max":719,"o":"m 329 1018 l 369 1018 l 415 867 l 385 867 l 329 1018 m 476 867 l 518 867 l 621 725 l 583 725 l 496 844 l 358 725 l 315 725 l 476 867 m 294 -14 q 57 196 57 -14 q 69 303 57 243 q 210 576 107 479 q 451 672 313 672 q 574 656 525 672 q 668 597 622 639 l 681 658 l 719 658 l 581 0 l 549 0 l 560 79 q 436 8 500 31 q 294 -14 372 -14 m 310 21 q 444 44 382 21 q 567 119 507 68 l 660 557 q 577 617 625 597 q 457 638 529 638 q 233 550 325 638 q 107 303 142 463 q 94 196 94 243 q 147 63 94 104 q 310 21 199 21 z "},"ẩ":{"ha":744,"x_min":57,"x_max":761,"o":"m 593 915 q 690 935 664 919 q 724 985 717 950 q 726 1003 726 999 q 660 1047 726 1047 q 574 1029 619 1047 l 582 1064 q 667 1081 622 1081 q 736 1063 711 1081 q 761 1010 761 1044 q 758 985 761 1001 q 719 919 750 942 q 626 889 688 896 l 615 838 l 576 838 l 593 915 m 469 867 l 511 867 l 614 725 l 576 725 l 489 844 l 351 725 l 308 725 l 469 867 m 294 -14 q 57 196 57 -14 q 69 303 57 243 q 210 576 107 479 q 451 672 313 672 q 574 656 525 672 q 668 597 622 639 l 681 658 l 719 658 l 581 0 l 549 0 l 560 79 q 436 8 500 31 q 294 -14 372 -14 m 310 21 q 444 44 382 21 q 567 119 507 68 l 660 557 q 577 617 625 597 q 457 638 529 638 q 233 550 325 638 q 107 303 142 463 q 94 196 94 243 q 147 63 94 104 q 310 21 199 21 z "},"ẫ":{"ha":725,"x_min":57,"x_max":719,"o":"m 338 928 q 442 964 378 964 q 479 958 464 964 q 518 940 494 953 q 551 924 536 929 q 585 919 565 919 q 642 929 617 919 q 694 964 667 939 l 686 921 q 582 885 643 885 q 543 890 560 885 q 503 908 526 896 q 469 924 483 918 q 439 929 454 929 q 382 919 407 929 q 328 885 357 910 l 338 928 m 475 867 l 517 867 l 619 725 l 582 725 l 494 844 l 357 725 l 314 725 l 475 867 m 294 -14 q 57 196 57 -14 q 69 303 57 243 q 210 576 107 479 q 451 672 313 672 q 574 656 525 672 q 668 597 622 639 l 681 658 l 719 658 l 581 0 l 549 0 l 560 79 q 436 8 500 31 q 294 -14 372 -14 m 310 21 q 444 44 382 21 q 567 119 507 68 l 660 557 q 577 617 625 597 q 457 638 529 638 q 233 550 325 638 q 107 303 142 463 q 94 196 94 243 q 147 63 94 104 q 310 21 199 21 z "},"ä":{"ha":725,"x_min":57,"x_max":719,"o":"m 349 815 l 397 815 l 388 767 l 339 767 l 349 815 m 567 815 l 615 815 l 606 767 l 557 767 l 567 815 m 294 -14 q 57 196 57 -14 q 69 303 57 243 q 210 576 107 479 q 451 672 313 672 q 574 656 525 672 q 668 597 622 639 l 681 658 l 719 658 l 581 0 l 549 0 l 560 79 q 436 8 500 31 q 294 -14 372 -14 m 310 21 q 444 44 382 21 q 567 119 507 68 l 660 557 q 577 617 625 597 q 457 638 529 638 q 233 550 325 638 q 107 303 142 463 q 94 196 94 243 q 147 63 94 104 q 310 21 199 21 z "},"ạ":{"ha":725,"x_min":57,"x_max":719,"o":"m 294 -14 q 57 196 57 -14 q 69 303 57 243 q 210 576 107 479 q 451 672 313 672 q 574 656 525 672 q 668 597 622 639 l 681 658 l 719 658 l 581 0 l 549 0 l 560 79 q 436 8 500 31 q 294 -14 372 -14 m 310 21 q 444 44 382 21 q 567 119 507 68 l 660 557 q 577 617 625 597 q 457 638 529 638 q 233 550 325 638 q 107 303 142 463 q 94 196 94 243 q 147 63 94 104 q 310 21 199 21 m 256 -142 l 307 -142 l 296 -193 l 244 -193 l 256 -142 z "},"à":{"ha":725,"x_min":57,"x_max":719,"o":"m 408 932 l 450 932 l 493 725 l 461 725 l 408 932 m 294 -14 q 57 196 57 -14 q 69 303 57 243 q 210 576 107 479 q 451 672 313 672 q 574 656 525 672 q 668 597 622 639 l 681 658 l 719 658 l 581 0 l 549 0 l 560 79 q 436 8 500 31 q 294 -14 372 -14 m 310 21 q 444 44 382 21 q 567 119 507 68 l 660 557 q 577 617 625 597 q 457 638 529 638 q 233 550 325 638 q 107 303 142 463 q 94 196 94 243 q 147 63 94 104 q 310 21 199 21 z "},"ả":{"ha":725,"x_min":57,"x_max":719,"o":"m 446 815 q 535 828 504 817 q 578 858 565 839 q 599 908 592 876 q 601 932 601 925 q 576 977 601 963 q 494 992 551 992 q 443 987 471 992 q 396 975 415 982 l 403 1010 q 451 1022 421 1017 q 504 1026 482 1026 q 602 1003 568 1026 q 636 935 636 979 q 633 908 636 928 q 586 823 621 851 q 479 789 551 794 l 463 711 l 424 711 l 446 815 m 294 -14 q 57 196 57 -14 q 69 303 57 243 q 210 576 107 479 q 451 672 313 672 q 574 656 525 672 q 668 597 622 639 l 681 658 l 719 658 l 581 0 l 549 0 l 560 79 q 436 8 500 31 q 294 -14 372 -14 m 310 21 q 444 44 382 21 q 567 119 507 68 l 660 557 q 577 617 625 597 q 457 638 529 638 q 233 550 325 638 q 107 303 142 463 q 94 196 94 243 q 147 63 94 104 q 310 21 199 21 z "},"ɑ":{"ha":769,"x_min":57,"x_max":719,"o":"m 294 -14 q 57 196 57 -14 q 69 303 57 243 q 210 576 107 479 q 451 672 313 672 q 574 656 525 672 q 668 597 622 639 l 681 658 l 719 658 l 581 0 l 549 0 l 560 79 q 436 8 500 31 q 294 -14 372 -14 m 310 21 q 444 44 382 21 q 567 119 507 68 l 660 557 q 577 617 625 597 q 457 638 529 638 q 233 550 325 638 q 107 303 142 463 q 94 196 94 243 q 147 63 94 104 q 310 21 199 21 z "},"ā":{"ha":725,"x_min":57,"x_max":719,"o":"m 292 801 l 661 801 l 653 767 l 283 767 l 292 801 m 294 -14 q 57 196 57 -14 q 69 303 57 243 q 210 576 107 479 q 451 672 313 672 q 574 656 525 672 q 668 597 622 639 l 681 658 l 719 658 l 581 0 l 549 0 l 560 79 q 436 8 500 31 q 294 -14 372 -14 m 310 21 q 444 44 382 21 q 567 119 507 68 l 660 557 q 577 617 625 597 q 457 638 529 638 q 233 550 325 638 q 107 303 142 463 q 94 196 94 243 q 147 63 94 104 q 310 21 199 21 z "},"ą":{"ha":779,"x_min":57,"x_max":719,"o":"m 488 -306 q 419 -286 444 -306 q 393 -224 393 -267 q 439 -97 393 -160 q 549 0 485 -33 l 560 79 q 436 8 500 31 q 294 -14 372 -14 q 57 196 57 -14 q 69 303 57 243 q 210 576 107 479 q 451 672 313 672 q 574 656 525 672 q 668 597 622 639 l 681 658 l 719 658 l 581 0 q 435 -187 457 -86 q 431 -222 431 -208 q 445 -259 431 -247 q 494 -271 460 -271 q 565 -256 538 -271 l 558 -290 q 488 -306 528 -306 m 310 21 q 444 44 382 21 q 567 119 507 68 l 660 557 q 577 617 625 597 q 457 638 529 638 q 233 550 325 638 q 107 303 142 463 q 94 196 94 243 q 147 63 94 104 q 310 21 199 21 z "},"å":{"ha":725,"x_min":57,"x_max":719,"o":"m 471 725 q 392 753 421 725 q 364 826 364 782 q 412 942 364 894 q 526 990 460 990 q 606 962 576 990 q 635 886 635 933 q 613 806 635 843 q 553 747 590 769 q 471 725 515 725 m 478 760 q 564 798 528 760 q 600 889 600 836 q 519 956 600 956 q 444 928 478 956 q 401 857 410 900 q 397 826 397 840 q 417 778 397 796 q 478 760 438 760 m 294 -14 q 57 196 57 -14 q 69 303 57 243 q 210 576 107 479 q 451 672 313 672 q 574 656 525 672 q 668 597 622 639 l 681 658 l 719 658 l 581 0 l 549 0 l 560 79 q 436 8 500 31 q 294 -14 372 -14 m 310 21 q 444 44 382 21 q 567 119 507 68 l 660 557 q 577 617 625 597 q 457 638 529 638 q 233 550 325 638 q 107 303 142 463 q 94 196 94 243 q 147 63 94 104 q 310 21 199 21 z "},"ǻ":{"ha":725,"x_min":57,"x_max":726,"o":"m 685 1249 l 726 1249 l 585 1083 l 553 1083 l 685 1249 m 464 725 q 385 753 414 725 q 357 826 357 782 q 405 942 357 894 q 519 990 453 990 q 599 962 569 990 q 628 886 628 933 q 606 806 628 843 q 546 747 583 769 q 464 725 508 725 m 471 760 q 557 798 521 760 q 593 889 593 836 q 513 956 593 956 q 437 928 471 956 q 394 857 403 900 q 390 826 390 840 q 410 778 390 796 q 471 760 431 760 m 294 -14 q 57 196 57 -14 q 69 303 57 243 q 210 576 107 479 q 451 672 313 672 q 574 656 525 672 q 668 597 622 639 l 681 658 l 719 658 l 581 0 l 549 0 l 560 79 q 436 8 500 31 q 294 -14 372 -14 m 310 21 q 444 44 382 21 q 567 119 507 68 l 660 557 q 577 617 625 597 q 457 638 529 638 q 233 550 325 638 q 107 303 142 463 q 94 196 94 243 q 147 63 94 104 q 310 21 199 21 z "},"ã":{"ha":725,"x_min":57,"x_max":719,"o":"m 563 767 q 522 773 540 767 q 475 793 503 779 q 437 810 453 804 q 406 817 421 817 q 292 769 339 817 l 300 813 q 349 841 319 831 q 408 851 378 851 q 449 845 432 851 q 492 825 467 839 q 531 807 515 813 q 565 801 546 801 q 622 812 597 801 q 671 849 647 822 l 661 806 q 563 767 625 767 m 294 -14 q 57 196 57 -14 q 69 303 57 243 q 210 576 107 479 q 451 672 313 672 q 574 656 525 672 q 668 597 622 639 l 681 658 l 719 658 l 581 0 l 549 0 l 560 79 q 436 8 500 31 q 294 -14 372 -14 m 310 21 q 444 44 382 21 q 567 119 507 68 l 660 557 q 577 617 625 597 q 457 638 529 638 q 233 550 325 638 q 107 303 142 463 q 94 196 94 243 q 147 63 94 104 q 310 21 199 21 z "},"æ":{"ha":1218,"x_min":35,"x_max":1153,"o":"m 229 -14 q 88 19 142 -14 q 35 122 35 53 q 40 167 35 136 q 125 306 60 257 q 317 356 190 356 l 579 356 l 597 440 q 610 528 610 503 q 568 613 610 588 q 419 638 526 638 q 207 603 308 638 l 214 639 q 435 672 306 672 q 594 636 543 672 q 644 518 646 600 q 940 672 742 672 q 1101 622 1049 672 q 1153 489 1153 572 q 1144 417 1153 454 l 1121 303 l 607 303 q 593 196 593 236 q 652 62 593 103 q 846 21 711 21 q 1024 56 929 21 l 1015 19 q 831 -14 924 -14 q 640 25 703 -14 q 563 150 576 64 q 229 -14 461 -14 m 1089 339 l 1104 411 q 1114 493 1114 451 q 1072 601 1114 564 q 933 638 1029 638 q 722 561 797 638 q 614 339 646 485 l 1089 339 m 247 21 q 381 44 317 21 q 491 112 446 68 q 549 214 536 156 l 571 319 l 311 319 q 147 282 199 319 q 78 167 94 244 q 74 131 74 149 q 247 21 74 21 z "},"ǽ":{"ha":1218,"x_min":35,"x_max":1153,"o":"m 824 932 l 865 932 l 724 725 l 692 725 l 824 932 m 229 -14 q 88 19 142 -14 q 35 122 35 53 q 40 167 35 136 q 125 306 60 257 q 317 356 190 356 l 579 356 l 597 440 q 610 528 610 503 q 568 613 610 588 q 419 638 526 638 q 207 603 308 638 l 214 639 q 435 672 306 672 q 594 636 543 672 q 644 518 646 600 q 940 672 742 672 q 1101 622 1049 672 q 1153 489 1153 572 q 1144 417 1153 454 l 1121 303 l 607 303 q 593 196 593 236 q 652 62 593 103 q 846 21 711 21 q 1024 56 929 21 l 1015 19 q 831 -14 924 -14 q 640 25 703 -14 q 563 150 576 64 q 229 -14 461 -14 m 1089 339 l 1104 411 q 1114 493 1114 451 q 1072 601 1114 564 q 933 638 1029 638 q 722 561 797 638 q 614 339 646 485 l 1089 339 m 247 21 q 381 44 317 21 q 491 112 446 68 q 549 214 536 156 l 571 319 l 311 319 q 147 282 199 319 q 78 167 94 244 q 74 131 74 149 q 247 21 74 21 z "},"b":{"ha":769,"x_min":33,"x_max":693,"o":"m 311 -14 q 181 9 235 -14 q 88 79 126 32 l 65 0 l 33 0 l 232 936 l 271 936 l 199 597 q 324 654 261 636 q 460 672 386 672 q 693 456 693 672 q 679 335 693 399 q 311 -14 604 -14 m 313 21 q 529 99 450 21 q 642 335 608 178 q 657 457 657 407 q 605 594 657 551 q 440 638 553 638 q 190 557 307 638 l 97 119 q 186 44 135 68 q 313 21 238 21 z "},"c":{"ha":661,"x_min":61,"x_max":635,"o":"m 315 -14 q 61 211 61 -14 q 75 329 61 268 q 215 585 111 499 q 475 672 319 672 q 568 665 533 672 q 635 639 603 657 l 628 603 q 554 629 590 621 q 472 638 518 638 q 238 560 329 638 q 113 329 146 483 q 97 208 97 257 q 153 67 97 113 q 333 21 208 21 q 511 56 421 21 l 503 19 q 315 -14 418 -14 z "},"ć":{"ha":661,"x_min":61,"x_max":635,"o":"m 565 932 l 607 932 l 465 725 l 433 725 l 565 932 m 315 -14 q 61 211 61 -14 q 75 329 61 268 q 215 585 111 499 q 475 672 319 672 q 568 665 533 672 q 635 639 603 657 l 628 603 q 554 629 590 621 q 472 638 518 638 q 238 560 329 638 q 113 329 146 483 q 97 208 97 257 q 153 67 97 113 q 333 21 208 21 q 511 56 421 21 l 503 19 q 315 -14 418 -14 z "},"č":{"ha":661,"x_min":61,"x_max":649,"o":"m 343 894 l 381 894 l 463 750 l 606 894 l 649 894 l 481 725 l 439 725 l 343 894 m 315 -14 q 61 211 61 -14 q 75 329 61 268 q 215 585 111 499 q 475 672 319 672 q 568 665 533 672 q 635 639 603 657 l 628 603 q 554 629 590 621 q 472 638 518 638 q 238 560 329 638 q 113 329 146 483 q 97 208 97 257 q 153 67 97 113 q 333 21 208 21 q 511 56 421 21 l 503 19 q 315 -14 418 -14 z "},"ç":{"ha":661,"x_min":61,"x_max":635,"o":"m 189 -333 q 104 -322 143 -333 l 113 -287 q 199 -299 149 -299 q 315 -275 274 -299 q 368 -196 356 -251 q 371 -169 371 -176 q 342 -120 371 -135 q 250 -106 314 -106 l 211 -106 l 264 -11 q 61 210 61 8 q 75 329 61 268 q 215 585 111 499 q 475 672 319 672 q 568 665 533 672 q 635 639 603 657 l 628 603 q 554 629 590 621 q 472 638 518 638 q 238 560 329 638 q 113 329 146 483 q 97 208 97 257 q 153 67 97 113 q 333 21 208 21 q 511 56 421 21 l 503 19 q 301 -14 418 -14 l 268 -74 q 372 -97 335 -74 q 408 -167 408 -121 q 406 -193 408 -174 q 338 -298 390 -262 q 189 -333 286 -333 z "},"ĉ":{"ha":661,"x_min":61,"x_max":635,"o":"m 482 894 l 524 894 l 619 725 l 582 725 l 500 869 l 357 725 l 315 725 l 482 894 m 315 -14 q 61 211 61 -14 q 75 329 61 268 q 215 585 111 499 q 475 672 319 672 q 568 665 533 672 q 635 639 603 657 l 628 603 q 554 629 590 621 q 472 638 518 638 q 238 560 329 638 q 113 329 146 483 q 97 208 97 257 q 153 67 97 113 q 333 21 208 21 q 511 56 421 21 l 503 19 q 315 -14 418 -14 z "},"ċ":{"ha":661,"x_min":61,"x_max":635,"o":"m 464 815 l 513 815 l 503 767 l 454 767 l 464 815 m 315 -14 q 61 211 61 -14 q 75 329 61 268 q 215 585 111 499 q 475 672 319 672 q 568 665 533 672 q 635 639 603 657 l 628 603 q 554 629 590 621 q 472 638 518 638 q 238 560 329 638 q 113 329 146 483 q 97 208 97 257 q 153 67 97 113 q 333 21 208 21 q 511 56 421 21 l 503 19 q 315 -14 418 -14 z "},"d":{"ha":769,"x_min":61,"x_max":779,"o":"m 294 -14 q 125 42 189 -14 q 61 214 61 99 q 74 321 61 263 q 210 584 110 496 q 451 672 310 672 q 574 656 525 672 q 668 597 622 639 l 740 936 l 779 936 l 581 0 l 549 0 l 560 79 q 436 8 500 31 q 294 -14 372 -14 m 310 21 q 444 44 382 21 q 567 119 507 68 l 660 557 q 574 617 621 597 q 457 638 528 638 q 233 558 321 638 q 111 321 144 479 q 99 213 99 261 q 151 68 99 115 q 310 21 203 21 z "},"ð":{"ha":789,"x_min":54,"x_max":851,"o":"m 301 -14 q 117 41 181 -14 q 54 193 54 96 q 63 269 54 228 q 183 478 92 406 q 422 550 275 550 q 548 527 483 550 q 665 458 613 504 l 685 550 q 700 681 700 624 q 678 789 700 744 l 469 706 l 478 740 l 663 814 q 507 874 614 874 q 308 847 392 874 l 317 883 q 515 908 407 908 q 700 829 644 908 l 851 890 l 843 856 l 714 804 q 738 681 738 757 q 722 546 738 622 l 674 317 q 545 65 638 143 q 301 -14 453 -14 m 311 21 q 629 289 572 21 l 657 422 q 547 490 610 464 q 418 515 485 515 q 201 451 278 515 q 100 269 125 388 q 92 201 92 235 q 147 68 92 115 q 311 21 203 21 z "},"ď":{"ha":933,"x_min":61,"x_max":1024,"o":"m 982 992 l 1024 992 l 883 785 l 851 785 l 982 992 m 294 -14 q 125 42 189 -14 q 61 214 61 99 q 74 321 61 263 q 210 584 110 496 q 451 672 310 672 q 574 656 525 672 q 668 597 622 639 l 740 936 l 779 936 l 581 0 l 549 0 l 560 79 q 436 8 500 31 q 294 -14 372 -14 m 310 21 q 444 44 382 21 q 567 119 507 68 l 660 557 q 574 617 621 597 q 457 638 528 638 q 233 558 321 638 q 111 321 144 479 q 99 213 99 261 q 151 68 99 115 q 310 21 203 21 z "},"đ":{"ha":796,"x_min":61,"x_max":851,"o":"m 294 -14 q 125 42 189 -14 q 61 214 61 99 q 74 321 61 263 q 210 584 110 496 q 451 672 310 672 q 574 656 525 672 q 668 597 622 639 l 708 789 l 476 789 l 485 824 l 717 824 l 740 936 l 779 936 l 756 824 l 851 824 l 843 789 l 747 789 l 581 0 l 549 0 l 560 79 q 436 8 500 31 q 294 -14 372 -14 m 310 21 q 444 44 382 21 q 567 119 507 68 l 660 557 q 574 617 621 597 q 457 638 528 638 q 233 558 321 638 q 111 321 144 479 q 99 213 99 261 q 151 68 99 115 q 310 21 203 21 z "},"ḍ":{"ha":769,"x_min":61,"x_max":779,"o":"m 294 -14 q 125 42 189 -14 q 61 214 61 99 q 74 321 61 263 q 210 584 110 496 q 451 672 310 672 q 574 656 525 672 q 668 597 622 639 l 740 936 l 779 936 l 581 0 l 549 0 l 560 79 q 436 8 500 31 q 294 -14 372 -14 m 310 21 q 444 44 382 21 q 567 119 507 68 l 660 557 q 574 617 621 597 q 457 638 528 638 q 233 558 321 638 q 111 321 144 479 q 99 213 99 261 q 151 68 99 115 q 310 21 203 21 m 293 -142 l 344 -142 l 333 -193 l 282 -193 l 293 -142 z "},"ḏ":{"ha":769,"x_min":61,"x_max":779,"o":"m 294 -14 q 125 42 189 -14 q 61 214 61 99 q 74 321 61 263 q 210 584 110 496 q 451 672 310 672 q 574 656 525 672 q 668 597 622 639 l 740 936 l 779 936 l 581 0 l 549 0 l 560 79 q 436 8 500 31 q 294 -14 372 -14 m 310 21 q 444 44 382 21 q 567 119 507 68 l 660 557 q 574 617 621 597 q 457 638 528 638 q 233 558 321 638 q 111 321 144 479 q 99 213 99 261 q 151 68 99 115 q 310 21 203 21 m 114 -106 l 483 -106 l 476 -140 l 107 -140 l 114 -106 z "},"e":{"ha":719,"x_min":60,"x_max":654,"o":"m 332 -14 q 125 38 190 -14 q 60 201 60 90 q 76 335 60 260 q 198 587 111 501 q 442 672 285 672 q 602 622 550 672 q 654 489 654 572 q 646 417 654 454 l 622 303 l 108 303 q 96 197 96 244 q 153 63 96 106 q 347 21 211 21 q 525 56 431 21 l 517 19 q 332 -14 425 -14 m 590 339 l 606 411 q 615 489 615 460 q 572 599 615 561 q 435 638 529 638 q 224 560 301 638 q 115 339 147 483 l 590 339 z "},"é":{"ha":719,"x_min":60,"x_max":654,"o":"m 558 932 l 600 932 l 458 725 l 426 725 l 558 932 m 332 -14 q 125 38 190 -14 q 60 201 60 90 q 76 335 60 260 q 198 587 111 501 q 442 672 285 672 q 602 622 550 672 q 654 489 654 572 q 646 417 654 454 l 622 303 l 108 303 q 96 197 96 244 q 153 63 96 106 q 347 21 211 21 q 525 56 431 21 l 517 19 q 332 -14 425 -14 m 590 339 l 606 411 q 615 489 615 460 q 572 599 615 561 q 435 638 529 638 q 224 560 301 638 q 115 339 147 483 l 590 339 z "},"ĕ":{"ha":719,"x_min":60,"x_max":654,"o":"m 458 725 q 381 754 411 725 q 351 828 351 783 q 354 857 351 847 l 386 857 q 383 835 383 840 q 406 781 383 801 q 463 760 428 760 q 539 788 506 760 q 582 857 572 815 l 619 857 q 560 763 607 801 q 458 725 514 725 m 332 -14 q 125 38 190 -14 q 60 201 60 90 q 76 335 60 260 q 198 587 111 501 q 442 672 285 672 q 602 622 550 672 q 654 489 654 572 q 646 417 654 454 l 622 303 l 108 303 q 96 197 96 244 q 153 63 96 106 q 347 21 211 21 q 525 56 431 21 l 517 19 q 332 -14 425 -14 m 590 339 l 606 411 q 615 489 615 460 q 572 599 615 561 q 435 638 529 638 q 224 560 301 638 q 115 339 147 483 l 590 339 z "},"ě":{"ha":719,"x_min":60,"x_max":656,"o":"m 350 894 l 388 894 l 469 750 l 613 894 l 656 894 l 488 725 l 446 725 l 350 894 m 332 -14 q 125 38 190 -14 q 60 201 60 90 q 76 335 60 260 q 198 587 111 501 q 442 672 285 672 q 602 622 550 672 q 654 489 654 572 q 646 417 654 454 l 622 303 l 108 303 q 96 197 96 244 q 153 63 96 106 q 347 21 211 21 q 525 56 431 21 l 517 19 q 332 -14 425 -14 m 590 339 l 606 411 q 615 489 615 460 q 572 599 615 561 q 435 638 529 638 q 224 560 301 638 q 115 339 147 483 l 590 339 z "},"ê":{"ha":719,"x_min":60,"x_max":654,"o":"m 468 894 l 510 894 l 606 725 l 568 725 l 486 869 l 343 725 l 301 725 l 468 894 m 332 -14 q 125 38 190 -14 q 60 201 60 90 q 76 335 60 260 q 198 587 111 501 q 442 672 285 672 q 602 622 550 672 q 654 489 654 572 q 646 417 654 454 l 622 303 l 108 303 q 96 197 96 244 q 153 63 96 106 q 347 21 211 21 q 525 56 431 21 l 517 19 q 332 -14 425 -14 m 590 339 l 606 411 q 615 489 615 460 q 572 599 615 561 q 435 638 529 638 q 224 560 301 638 q 115 339 147 483 l 590 339 z "},"ế":{"ha":719,"x_min":60,"x_max":718,"o":"m 679 1018 l 718 1018 l 597 867 l 567 867 l 679 1018 m 464 867 l 506 867 l 608 725 l 571 725 l 483 844 l 346 725 l 303 725 l 464 867 m 332 -14 q 125 38 190 -14 q 60 201 60 90 q 76 335 60 260 q 198 587 111 501 q 442 672 285 672 q 602 622 550 672 q 654 489 654 572 q 646 417 654 454 l 622 303 l 108 303 q 96 197 96 244 q 153 63 96 106 q 347 21 211 21 q 525 56 431 21 l 517 19 q 332 -14 425 -14 m 590 339 l 606 411 q 615 489 615 460 q 572 599 615 561 q 435 638 529 638 q 224 560 301 638 q 115 339 147 483 l 590 339 z "},"ệ":{"ha":719,"x_min":60,"x_max":654,"o":"m 479 894 l 521 894 l 617 725 l 579 725 l 497 869 l 354 725 l 313 725 l 479 894 m 332 -14 q 125 38 190 -14 q 60 201 60 90 q 76 335 60 260 q 198 587 111 501 q 442 672 285 672 q 602 622 550 672 q 654 489 654 572 q 646 417 654 454 l 622 303 l 108 303 q 96 197 96 244 q 153 63 96 106 q 347 21 211 21 q 525 56 431 21 l 517 19 q 332 -14 425 -14 m 590 339 l 606 411 q 615 489 615 460 q 572 599 615 561 q 435 638 529 638 q 224 560 301 638 q 115 339 147 483 l 590 339 m 257 -142 l 308 -142 l 297 -193 l 246 -193 l 257 -142 z "},"ề":{"ha":719,"x_min":60,"x_max":654,"o":"m 336 1046 l 376 1046 l 422 894 l 392 894 l 336 1046 m 483 894 l 525 894 l 628 753 l 590 753 l 503 872 l 365 753 l 322 753 l 483 894 m 332 -14 q 125 38 190 -14 q 60 201 60 90 q 76 335 60 260 q 198 587 111 501 q 442 672 285 672 q 602 622 550 672 q 654 489 654 572 q 646 417 654 454 l 622 303 l 108 303 q 96 197 96 244 q 153 63 96 106 q 347 21 211 21 q 525 56 431 21 l 517 19 q 332 -14 425 -14 m 590 339 l 606 411 q 615 489 615 460 q 572 599 615 561 q 435 638 529 638 q 224 560 301 638 q 115 339 147 483 l 590 339 z "},"ể":{"ha":719,"x_min":60,"x_max":756,"o":"m 588 915 q 685 935 658 919 q 718 985 711 950 q 721 1003 721 999 q 654 1047 721 1047 q 568 1029 614 1047 l 576 1064 q 661 1081 617 1081 q 731 1063 706 1081 q 756 1010 756 1044 q 753 985 756 1001 q 713 919 744 942 q 621 889 682 896 l 610 838 l 571 838 l 588 915 m 464 867 l 506 867 l 608 725 l 571 725 l 483 844 l 346 725 l 303 725 l 464 867 m 332 -14 q 125 38 190 -14 q 60 201 60 90 q 76 335 60 260 q 198 587 111 501 q 442 672 285 672 q 602 622 550 672 q 654 489 654 572 q 646 417 654 454 l 622 303 l 108 303 q 96 197 96 244 q 153 63 96 106 q 347 21 211 21 q 525 56 431 21 l 517 19 q 332 -14 425 -14 m 590 339 l 606 411 q 615 489 615 460 q 572 599 615 561 q 435 638 529 638 q 224 560 301 638 q 115 339 147 483 l 590 339 z "},"ễ":{"ha":719,"x_min":60,"x_max":692,"o":"m 335 928 q 439 964 375 964 q 476 958 461 964 q 515 940 492 953 q 548 924 533 929 q 582 919 563 919 q 639 929 614 919 q 692 964 664 939 l 683 921 q 579 885 640 885 q 540 890 557 885 q 500 908 524 896 q 466 924 481 918 q 436 929 451 929 q 379 919 404 929 q 325 885 354 910 l 335 928 m 472 867 l 514 867 l 617 725 l 579 725 l 492 844 l 354 725 l 311 725 l 472 867 m 332 -14 q 125 38 190 -14 q 60 201 60 90 q 76 335 60 260 q 198 587 111 501 q 442 672 285 672 q 602 622 550 672 q 654 489 654 572 q 646 417 654 454 l 622 303 l 108 303 q 96 197 96 244 q 153 63 96 106 q 347 21 211 21 q 525 56 431 21 l 517 19 q 332 -14 425 -14 m 590 339 l 606 411 q 615 489 615 460 q 572 599 615 561 q 435 638 529 638 q 224 560 301 638 q 115 339 147 483 l 590 339 z "},"ë":{"ha":719,"x_min":60,"x_max":654,"o":"m 338 815 l 386 815 l 376 767 l 328 767 l 338 815 m 556 815 l 604 815 l 594 767 l 546 767 l 556 815 m 332 -14 q 125 38 190 -14 q 60 201 60 90 q 76 335 60 260 q 198 587 111 501 q 442 672 285 672 q 602 622 550 672 q 654 489 654 572 q 646 417 654 454 l 622 303 l 108 303 q 96 197 96 244 q 153 63 96 106 q 347 21 211 21 q 525 56 431 21 l 517 19 q 332 -14 425 -14 m 590 339 l 606 411 q 615 489 615 460 q 572 599 615 561 q 435 638 529 638 q 224 560 301 638 q 115 339 147 483 l 590 339 z "},"ė":{"ha":719,"x_min":60,"x_max":654,"o":"m 451 815 l 500 815 l 490 767 l 442 767 l 451 815 m 332 -14 q 125 38 190 -14 q 60 201 60 90 q 76 335 60 260 q 198 587 111 501 q 442 672 285 672 q 602 622 550 672 q 654 489 654 572 q 646 417 654 454 l 622 303 l 108 303 q 96 197 96 244 q 153 63 96 106 q 347 21 211 21 q 525 56 431 21 l 517 19 q 332 -14 425 -14 m 590 339 l 606 411 q 615 489 615 460 q 572 599 615 561 q 435 638 529 638 q 224 560 301 638 q 115 339 147 483 l 590 339 z "},"ẹ":{"ha":719,"x_min":60,"x_max":654,"o":"m 332 -14 q 125 38 190 -14 q 60 201 60 90 q 76 335 60 260 q 198 587 111 501 q 442 672 285 672 q 602 622 550 672 q 654 489 654 572 q 646 417 654 454 l 622 303 l 108 303 q 96 197 96 244 q 153 63 96 106 q 347 21 211 21 q 525 56 431 21 l 517 19 q 332 -14 425 -14 m 590 339 l 606 411 q 615 489 615 460 q 572 599 615 561 q 435 638 529 638 q 224 560 301 638 q 115 339 147 483 l 590 339 m 243 -142 l 294 -142 l 283 -193 l 232 -193 l 243 -142 z "},"è":{"ha":719,"x_min":60,"x_max":654,"o":"m 388 932 l 429 932 l 472 725 l 440 725 l 388 932 m 332 -14 q 125 38 190 -14 q 60 201 60 90 q 76 335 60 260 q 198 587 111 501 q 442 672 285 672 q 602 622 550 672 q 654 489 654 572 q 646 417 654 454 l 622 303 l 108 303 q 96 197 96 244 q 153 63 96 106 q 347 21 211 21 q 525 56 431 21 l 517 19 q 332 -14 425 -14 m 590 339 l 606 411 q 615 489 615 460 q 572 599 615 561 q 435 638 529 638 q 224 560 301 638 q 115 339 147 483 l 590 339 z "},"ẻ":{"ha":719,"x_min":60,"x_max":654,"o":"m 463 829 q 551 842 521 831 q 595 872 582 853 q 615 922 608 890 q 618 946 618 939 q 593 991 618 976 q 511 1006 568 1006 q 460 1001 488 1006 q 413 989 432 996 l 419 1024 q 468 1035 438 1031 q 521 1040 499 1040 q 619 1017 585 1040 q 653 949 653 993 q 650 922 653 942 q 603 837 638 865 q 496 803 568 808 l 479 725 l 440 725 l 463 829 m 332 -14 q 125 38 190 -14 q 60 201 60 90 q 76 335 60 260 q 198 587 111 501 q 442 672 285 672 q 602 622 550 672 q 654 489 654 572 q 646 417 654 454 l 622 303 l 108 303 q 96 197 96 244 q 153 63 96 106 q 347 21 211 21 q 525 56 431 21 l 517 19 q 332 -14 425 -14 m 590 339 l 606 411 q 615 489 615 460 q 572 599 615 561 q 435 638 529 638 q 224 560 301 638 q 115 339 147 483 l 590 339 z "},"ē":{"ha":719,"x_min":60,"x_max":683,"o":"m 314 801 l 683 801 l 675 767 l 306 767 l 314 801 m 332 -14 q 125 38 190 -14 q 60 201 60 90 q 76 335 60 260 q 198 587 111 501 q 442 672 285 672 q 602 622 550 672 q 654 489 654 572 q 646 417 654 454 l 622 303 l 108 303 q 96 197 96 244 q 153 63 96 106 q 347 21 211 21 q 525 56 431 21 l 517 19 q 332 -14 425 -14 m 590 339 l 606 411 q 615 489 615 460 q 572 599 615 561 q 435 638 529 638 q 224 560 301 638 q 115 339 147 483 l 590 339 z "},"ę":{"ha":719,"x_min":60,"x_max":654,"o":"m 358 -306 q 290 -286 315 -306 q 264 -224 264 -267 q 303 -106 264 -164 q 396 -10 342 -47 q 332 -14 363 -14 q 125 38 190 -14 q 60 201 60 90 q 76 335 60 260 q 198 587 111 501 q 442 672 285 672 q 602 622 550 672 q 654 489 654 572 q 646 417 654 454 l 622 303 l 108 303 q 96 197 96 244 q 153 63 96 106 q 347 21 211 21 q 525 56 431 21 l 517 19 q 450 0 482 6 l 451 0 q 340 -106 378 -47 q 301 -222 301 -164 q 316 -259 301 -247 q 365 -271 331 -271 q 436 -256 408 -271 l 429 -290 q 358 -306 399 -306 m 590 339 l 606 411 q 615 489 615 460 q 572 599 615 561 q 435 638 529 638 q 224 560 301 638 q 115 339 147 483 l 590 339 z "},"ẽ":{"ha":719,"x_min":60,"x_max":663,"o":"m 554 767 q 513 773 532 767 q 467 793 494 779 q 428 810 444 804 q 397 817 413 817 q 283 769 331 817 l 292 813 q 340 841 311 831 q 400 851 369 851 q 441 845 424 851 q 483 825 458 839 q 522 807 507 813 q 557 801 538 801 q 614 812 589 801 q 663 849 639 822 l 653 806 q 554 767 617 767 m 332 -14 q 125 38 190 -14 q 60 201 60 90 q 76 335 60 260 q 198 587 111 501 q 442 672 285 672 q 602 622 550 672 q 654 489 654 572 q 646 417 654 454 l 622 303 l 108 303 q 96 197 96 244 q 153 63 96 106 q 347 21 211 21 q 525 56 431 21 l 517 19 q 332 -14 425 -14 m 590 339 l 606 411 q 615 489 615 460 q 572 599 615 561 q 435 638 529 638 q 224 560 301 638 q 115 339 147 483 l 590 339 z "},"f":{"ha":463,"x_min":82,"x_max":557,"o":"m 214 622 l 110 622 l 117 658 l 221 658 l 249 785 q 465 958 285 958 q 557 944 515 958 l 550 908 q 469 924 508 924 q 345 891 388 924 q 288 788 303 858 l 260 658 l 450 658 l 440 622 l 253 622 l 121 0 l 82 0 l 214 622 z "},"g":{"ha":769,"x_min":63,"x_max":719,"o":"m 236 -244 q 154 -240 200 -244 q 86 -231 108 -236 l 94 -194 q 233 -210 140 -210 q 435 -160 353 -210 q 538 -19 518 -110 l 560 89 q 444 31 501 49 q 310 14 388 14 q 127 62 192 14 q 63 221 63 110 q 75 329 63 269 q 440 672 149 672 q 572 650 518 672 q 665 579 626 628 l 688 658 l 719 658 l 576 -19 q 510 -139 561 -87 q 387 -217 460 -190 q 236 -244 314 -244 m 326 49 q 456 69 397 49 q 568 129 514 90 l 656 539 q 565 614 617 590 q 440 638 513 638 q 113 329 178 638 q 99 221 99 260 q 153 88 99 126 q 326 49 208 49 z "},"ğ":{"ha":747,"x_min":63,"x_max":719,"o":"m 465 725 q 388 754 418 725 q 358 828 358 783 q 361 857 358 847 l 393 857 q 390 835 390 840 q 413 781 390 801 q 469 760 435 760 q 546 788 513 760 q 589 857 579 815 l 626 857 q 567 763 614 801 q 465 725 521 725 m 236 -244 q 154 -240 200 -244 q 86 -231 108 -236 l 94 -194 q 233 -210 140 -210 q 435 -160 353 -210 q 538 -19 518 -110 l 560 89 q 444 31 501 49 q 310 14 388 14 q 127 62 192 14 q 63 221 63 110 q 75 329 63 269 q 440 672 149 672 q 572 650 518 672 q 665 579 626 628 l 688 658 l 719 658 l 576 -19 q 510 -139 561 -87 q 387 -217 460 -190 q 236 -244 314 -244 m 326 49 q 456 69 397 49 q 568 129 514 90 l 656 539 q 565 614 617 590 q 440 638 513 638 q 113 329 178 638 q 99 221 99 260 q 153 88 99 126 q 326 49 208 49 z "},"ǧ":{"ha":747,"x_min":63,"x_max":719,"o":"m 361 894 l 399 894 l 481 750 l 624 894 l 667 894 l 499 725 l 457 725 l 361 894 m 236 -244 q 154 -240 200 -244 q 86 -231 108 -236 l 94 -194 q 233 -210 140 -210 q 435 -160 353 -210 q 538 -19 518 -110 l 560 89 q 444 31 501 49 q 310 14 388 14 q 127 62 192 14 q 63 221 63 110 q 75 329 63 269 q 440 672 149 672 q 572 650 518 672 q 665 579 626 628 l 688 658 l 719 658 l 576 -19 q 510 -139 561 -87 q 387 -217 460 -190 q 236 -244 314 -244 m 326 49 q 456 69 397 49 q 568 129 514 90 l 656 539 q 565 614 617 590 q 440 638 513 638 q 113 329 178 638 q 99 221 99 260 q 153 88 99 126 q 326 49 208 49 z "},"ĝ":{"ha":747,"x_min":63,"x_max":719,"o":"m 471 894 l 513 894 l 608 725 l 571 725 l 489 869 l 346 725 l 304 725 l 471 894 m 236 -244 q 154 -240 200 -244 q 86 -231 108 -236 l 94 -194 q 233 -210 140 -210 q 435 -160 353 -210 q 538 -19 518 -110 l 560 89 q 444 31 501 49 q 310 14 388 14 q 127 62 192 14 q 63 221 63 110 q 75 329 63 269 q 440 672 149 672 q 572 650 518 672 q 665 579 626 628 l 688 658 l 719 658 l 576 -19 q 510 -139 561 -87 q 387 -217 460 -190 q 236 -244 314 -244 m 326 49 q 456 69 397 49 q 568 129 514 90 l 656 539 q 565 614 617 590 q 440 638 513 638 q 113 329 178 638 q 99 221 99 260 q 153 88 99 126 q 326 49 208 49 z "},"ģ":{"ha":747,"x_min":63,"x_max":719,"o":"m 490 938 l 521 938 l 442 725 l 396 725 l 490 938 m 236 -244 q 154 -240 200 -244 q 86 -231 108 -236 l 94 -194 q 233 -210 140 -210 q 435 -160 353 -210 q 538 -19 518 -110 l 560 89 q 444 31 501 49 q 310 14 388 14 q 127 62 192 14 q 63 221 63 110 q 75 329 63 269 q 440 672 149 672 q 572 650 518 672 q 665 579 626 628 l 688 658 l 719 658 l 576 -19 q 510 -139 561 -87 q 387 -217 460 -190 q 236 -244 314 -244 m 326 49 q 456 69 397 49 q 568 129 514 90 l 656 539 q 565 614 617 590 q 440 638 513 638 q 113 329 178 638 q 99 221 99 260 q 153 88 99 126 q 326 49 208 49 z "},"ġ":{"ha":747,"x_min":63,"x_max":719,"o":"m 456 815 l 504 815 l 494 767 l 446 767 l 456 815 m 236 -244 q 154 -240 200 -244 q 86 -231 108 -236 l 94 -194 q 233 -210 140 -210 q 435 -160 353 -210 q 538 -19 518 -110 l 560 89 q 444 31 501 49 q 310 14 388 14 q 127 62 192 14 q 63 221 63 110 q 75 329 63 269 q 440 672 149 672 q 572 650 518 672 q 665 579 626 628 l 688 658 l 719 658 l 576 -19 q 510 -139 561 -87 q 387 -217 460 -190 q 236 -244 314 -244 m 326 49 q 456 69 397 49 q 568 129 514 90 l 656 539 q 565 614 617 590 q 440 638 513 638 q 113 329 178 638 q 99 221 99 260 q 153 88 99 126 q 326 49 208 49 z "},"ḡ":{"ha":747,"x_min":63,"x_max":719,"o":"m 307 801 l 676 801 l 668 767 l 299 767 l 307 801 m 236 -244 q 154 -240 200 -244 q 86 -231 108 -236 l 94 -194 q 233 -210 140 -210 q 435 -160 353 -210 q 538 -19 518 -110 l 560 89 q 444 31 501 49 q 310 14 388 14 q 127 62 192 14 q 63 221 63 110 q 75 329 63 269 q 440 672 149 672 q 572 650 518 672 q 665 579 626 628 l 688 658 l 719 658 l 576 -19 q 510 -139 561 -87 q 387 -217 460 -190 q 236 -244 314 -244 m 326 49 q 456 69 397 49 q 568 129 514 90 l 656 539 q 565 614 617 590 q 440 638 513 638 q 113 329 178 638 q 99 221 99 260 q 153 88 99 126 q 326 49 208 49 z "},"h":{"ha":761,"x_min":33,"x_max":682,"o":"m 232 936 l 271 936 l 193 572 q 330 647 258 621 q 492 672 401 672 q 634 635 586 672 q 682 518 682 597 q 672 440 682 492 l 579 0 l 540 0 l 633 440 q 644 522 644 492 q 603 611 644 585 q 464 638 563 638 q 183 529 321 638 l 72 0 l 33 0 l 232 936 z "},"ħ":{"ha":800,"x_min":72,"x_max":721,"o":"m 531 672 q 673 635 625 672 q 721 518 721 597 q 711 440 721 492 l 618 0 l 579 0 l 672 440 q 683 522 683 492 q 642 611 683 585 q 503 638 601 638 q 222 529 360 638 l 111 0 l 72 0 l 235 768 l 140 768 l 147 803 l 243 803 l 271 936 l 310 936 l 281 803 l 535 803 l 528 768 l 274 768 l 232 572 q 369 647 297 621 q 531 672 440 672 z "},"ḫ":{"ha":761,"x_min":33,"x_max":682,"o":"m 232 936 l 271 936 l 193 572 q 330 647 258 621 q 492 672 401 672 q 634 635 586 672 q 682 518 682 597 q 672 440 682 492 l 579 0 l 540 0 l 633 440 q 644 522 644 492 q 603 611 644 585 q 464 638 563 638 q 183 529 321 638 l 72 0 l 33 0 l 232 936 m 258 -242 q 138 -210 186 -242 q 90 -106 90 -178 q 96 -56 90 -79 l 131 -56 q 125 -101 125 -78 q 265 -207 125 -207 q 392 -170 339 -207 q 463 -56 446 -133 l 497 -56 q 412 -198 476 -154 q 258 -242 347 -242 z "},"ĥ":{"ha":761,"x_min":33,"x_max":682,"o":"m 408 1139 l 450 1139 l 546 969 l 508 969 l 426 1114 l 283 969 l 242 969 l 408 1139 m 232 936 l 271 936 l 193 572 q 330 647 258 621 q 492 672 401 672 q 634 635 586 672 q 682 518 682 597 q 672 440 682 492 l 579 0 l 540 0 l 633 440 q 644 522 644 492 q 603 611 644 585 q 464 638 563 638 q 183 529 321 638 l 72 0 l 33 0 l 232 936 z "},"ḥ":{"ha":761,"x_min":33,"x_max":682,"o":"m 232 936 l 271 936 l 193 572 q 330 647 258 621 q 492 672 401 672 q 634 635 586 672 q 682 518 682 597 q 672 440 682 492 l 579 0 l 540 0 l 633 440 q 644 522 644 492 q 603 611 644 585 q 464 638 563 638 q 183 529 321 638 l 72 0 l 33 0 l 232 936 m 254 -142 l 306 -142 l 294 -193 l 243 -193 l 254 -142 z "},"i":{"ha":368,"x_min":139,"x_max":372,"o":"m 324 908 l 372 908 l 358 847 l 310 847 l 324 908 m 271 622 l 165 622 l 178 658 l 317 658 l 178 0 l 139 0 l 271 622 z "},"ı":{"ha":368,"x_min":140,"x_max":318,"o":"m 272 622 l 165 622 l 172 658 l 318 658 l 179 0 l 140 0 l 272 622 z "},"í":{"ha":368,"x_min":140,"x_max":454,"o":"m 413 932 l 454 932 l 313 725 l 281 725 l 413 932 m 272 622 l 165 622 l 172 658 l 318 658 l 179 0 l 140 0 l 272 622 z "},"ĭ":{"ha":368,"x_min":140,"x_max":428,"o":"m 267 725 q 190 754 219 725 q 160 828 160 783 q 163 857 160 847 l 194 857 q 192 835 192 840 q 214 781 192 801 q 271 760 236 760 q 347 788 314 760 q 390 857 381 815 l 428 857 q 369 763 415 801 q 267 725 322 725 m 272 622 l 165 622 l 172 658 l 318 658 l 179 0 l 140 0 l 272 622 z "},"ǐ":{"ha":368,"x_min":140,"x_max":465,"o":"m 160 894 l 197 894 l 279 750 l 422 894 l 465 894 l 297 725 l 256 725 l 160 894 m 272 622 l 165 622 l 172 658 l 318 658 l 179 0 l 140 0 l 272 622 z "},"î":{"ha":368,"x_min":115,"x_max":419,"o":"m 282 894 l 324 894 l 419 725 l 382 725 l 300 869 l 157 725 l 115 725 l 282 894 m 272 622 l 165 622 l 172 658 l 318 658 l 179 0 l 140 0 l 272 622 z "},"ï":{"ha":368,"x_min":136,"x_max":413,"o":"m 146 815 l 194 815 l 185 767 l 136 767 l 146 815 m 364 815 l 413 815 l 403 767 l 354 767 l 364 815 m 272 622 l 165 622 l 172 658 l 318 658 l 179 0 l 140 0 l 272 622 z "},"ị":{"ha":368,"x_min":94,"x_max":372,"o":"m 324 908 l 372 908 l 358 847 l 310 847 l 324 908 m 271 622 l 165 622 l 178 658 l 317 658 l 178 0 l 139 0 l 271 622 m 106 -142 l 157 -142 l 146 -193 l 94 -193 l 106 -142 z "},"ì":{"ha":368,"x_min":140,"x_max":325,"o":"m 240 932 l 282 932 l 325 725 l 293 725 l 240 932 m 272 622 l 165 622 l 172 658 l 318 658 l 179 0 l 140 0 l 272 622 z "},"ỉ":{"ha":368,"x_min":140,"x_max":463,"o":"m 272 829 q 361 842 331 831 q 405 872 392 853 q 425 922 418 890 q 428 946 428 939 q 403 991 428 976 q 321 1006 378 1006 q 269 1001 297 1006 q 222 989 242 996 l 229 1024 q 278 1035 247 1031 q 331 1040 308 1040 q 428 1017 394 1040 q 463 949 463 993 q 460 922 463 942 q 413 837 447 865 q 306 803 378 808 l 289 725 l 250 725 l 272 829 m 272 622 l 165 622 l 172 658 l 318 658 l 179 0 l 140 0 l 272 622 z "},"ĳ":{"ha":628,"x_min":101,"x_max":632,"o":"m 324 908 l 372 908 l 358 847 l 310 847 l 324 908 m 583 908 l 632 908 l 618 847 l 569 847 l 583 908 m 196 -325 q 101 -311 143 -325 l 108 -275 q 190 -290 150 -290 q 310 -256 269 -290 q 365 -153 351 -222 l 531 622 l 425 622 l 438 658 l 576 658 l 404 -153 q 333 -280 388 -235 q 196 -325 279 -325 m 271 622 l 165 622 l 178 658 l 317 658 l 178 0 l 139 0 l 271 622 z "},"ī":{"ha":368,"x_min":83,"x_max":463,"o":"m 92 801 l 463 801 l 454 767 l 83 767 l 92 801 m 272 622 l 165 622 l 172 658 l 318 658 l 179 0 l 140 0 l 272 622 z "},"į":{"ha":368,"x_min":-10,"x_max":372,"o":"m 324 908 l 372 908 l 358 847 l 310 847 l 324 908 m 85 -306 q 16 -286 42 -306 q -10 -224 -10 -267 q 35 -98 -10 -161 q 139 0 79 -35 l 271 622 l 165 622 l 178 658 l 317 658 l 178 0 q 66 -106 104 -47 q 28 -222 28 -164 q 42 -259 28 -247 q 92 -271 57 -271 q 163 -256 135 -271 l 156 -290 q 85 -306 125 -306 z "},"ĩ":{"ha":368,"x_min":79,"x_max":458,"o":"m 350 725 q 309 731 328 725 q 263 751 290 738 q 224 769 240 763 q 193 775 208 775 q 79 728 126 775 l 88 771 q 136 799 107 789 q 196 810 165 810 q 237 803 219 810 q 279 783 254 797 q 318 765 303 771 q 353 760 333 760 q 410 770 385 760 q 458 807 435 781 l 449 764 q 350 725 413 725 m 272 622 l 165 622 l 172 658 l 318 658 l 179 0 l 140 0 l 272 622 z "},"j":{"ha":300,"x_min":-226,"x_max":304,"o":"m 256 908 l 304 908 l 290 847 l 242 847 l 256 908 m -132 -325 q -226 -311 -185 -325 l -219 -275 q -137 -290 -178 -290 q -17 -256 -58 -290 q 38 -153 24 -222 l 203 622 l 97 622 l 110 658 l 249 658 l 76 -153 q 6 -280 60 -235 q -132 -325 -49 -325 z "},"ȷ":{"ha":299,"x_min":-226,"x_max":249,"o":"m -132 -325 q -226 -311 -185 -325 l -219 -275 q -137 -290 -178 -290 q -19 -256 -61 -290 q 38 -153 24 -221 l 203 622 l 97 622 l 110 658 l 249 658 l 76 -153 q 5 -279 60 -233 q -132 -325 -50 -325 z "},"ĵ":{"ha":299,"x_min":-226,"x_max":353,"o":"m 215 894 l 257 894 l 353 725 l 315 725 l 233 869 l 90 725 l 49 725 l 215 894 m -132 -325 q -226 -311 -185 -325 l -219 -275 q -137 -290 -178 -290 q -19 -256 -61 -290 q 38 -153 24 -221 l 203 622 l 97 622 l 110 658 l 249 658 l 76 -153 q 5 -279 60 -233 q -132 -325 -50 -325 z "},"k":{"ha":671,"x_min":33,"x_max":632,"o":"m 232 936 l 271 936 l 139 317 l 582 658 l 632 658 l 307 406 l 510 0 l 468 0 l 275 382 l 129 269 l 72 0 l 33 0 l 232 936 z "},"ķ":{"ha":671,"x_min":33,"x_max":632,"o":"m 232 936 l 271 936 l 139 317 l 582 658 l 632 658 l 307 406 l 510 0 l 468 0 l 275 382 l 129 269 l 72 0 l 33 0 l 232 936 m 218 -51 l 264 -51 l 169 -264 l 139 -264 l 218 -51 z "},"ĸ":{"ha":671,"x_min":33,"x_max":632,"o":"m 172 658 l 211 658 l 132 285 l 582 658 l 632 658 l 301 385 l 510 0 l 468 0 l 272 360 l 121 235 l 72 0 l 33 0 l 172 658 z "},"l":{"ha":318,"x_min":51,"x_max":271,"o":"m 131 -14 q 72 3 92 -14 q 51 60 51 19 q 57 111 51 85 l 232 936 l 271 936 l 94 106 q 89 65 89 75 q 101 32 89 42 q 136 22 113 22 q 197 29 171 22 l 189 -7 q 131 -14 165 -14 z "},"ĺ":{"ha":318,"x_min":51,"x_max":426,"o":"m 385 1206 l 426 1206 l 285 999 l 253 999 l 385 1206 m 131 -14 q 72 3 92 -14 q 51 60 51 19 q 57 111 51 85 l 232 936 l 271 936 l 94 106 q 89 65 89 75 q 101 32 89 42 q 136 22 113 22 q 197 29 171 22 l 189 -7 q 131 -14 165 -14 z "},"ľ":{"ha":371,"x_min":51,"x_max":471,"o":"m 425 1072 l 471 1072 l 376 860 l 346 860 l 425 1072 m 131 -14 q 72 3 92 -14 q 51 60 51 19 q 57 111 51 85 l 232 936 l 271 936 l 94 106 q 89 65 89 75 q 101 32 89 42 q 136 22 113 22 q 197 29 171 22 l 189 -7 q 131 -14 165 -14 z "},"ļ":{"ha":318,"x_min":21,"x_max":271,"o":"m 131 -14 q 72 3 92 -14 q 51 60 51 19 q 57 111 51 85 l 232 936 l 271 936 l 94 106 q 89 65 89 75 q 101 32 89 42 q 136 22 113 22 q 197 29 171 22 l 189 -7 q 131 -14 165 -14 m 100 -51 l 146 -51 l 51 -264 l 21 -264 l 100 -51 z "},"ŀ":{"ha":318,"x_min":51,"x_max":307,"o":"m 131 -14 q 72 3 92 -14 q 51 60 51 19 q 57 111 51 85 l 232 936 l 271 936 l 94 106 q 89 65 89 75 q 101 32 89 42 q 136 22 113 22 q 197 29 171 22 l 189 -7 q 131 -14 165 -14 m 258 413 l 307 413 l 297 364 l 249 364 l 258 413 z "},"ḷ":{"ha":318,"x_min":28,"x_max":271,"o":"m 131 -14 q 72 3 92 -14 q 51 60 51 19 q 57 111 51 85 l 232 936 l 271 936 l 94 106 q 89 65 89 75 q 101 32 89 42 q 136 22 113 22 q 197 29 171 22 l 189 -7 q 131 -14 165 -14 m 39 -142 l 90 -142 l 79 -193 l 28 -193 l 39 -142 z "},"ḹ":{"ha":318,"x_min":51,"x_max":457,"o":"m 88 1033 l 457 1033 l 449 999 l 79 999 l 88 1033 m 131 -14 q 72 3 92 -14 q 51 60 51 19 q 57 111 51 85 l 232 936 l 271 936 l 94 106 q 89 65 89 75 q 101 32 89 42 q 136 22 113 22 q 197 29 171 22 l 189 -7 q 131 -14 165 -14 m 76 -142 l 114 -142 l 122 -179 l 85 -179 l 76 -142 z "},"ḻ":{"ha":318,"x_min":-133,"x_max":271,"o":"m 131 -14 q 72 3 92 -14 q 51 60 51 19 q 57 111 51 85 l 232 936 l 271 936 l 94 106 q 89 65 89 75 q 101 32 89 42 q 136 22 113 22 q 197 29 171 22 l 189 -7 q 131 -14 165 -14 m -126 -106 l 243 -106 l 236 -140 l -133 -140 l -126 -106 z "},"ł":{"ha":318,"x_min":-39,"x_max":353,"o":"m 94 106 q 89 65 89 75 q 101 32 89 42 q 136 22 113 22 q 197 29 171 22 l 189 -7 q 131 -14 165 -14 q 72 3 92 -14 q 51 60 51 19 q 57 111 51 85 l 125 432 l -39 367 l -32 401 l 132 467 l 232 936 l 271 936 l 175 483 l 353 554 l 346 519 l 167 449 l 94 106 z "},"m":{"ha":1175,"x_min":33,"x_max":1096,"o":"m 172 658 l 204 658 l 193 572 q 465 672 332 672 q 581 647 542 672 q 629 574 619 622 q 761 646 692 619 q 914 672 831 672 q 1096 521 1096 672 q 1086 443 1096 494 l 993 0 l 954 0 l 1047 442 q 1056 514 1056 483 q 1017 609 1056 581 q 894 638 978 638 q 758 613 825 638 q 636 540 690 588 q 625 435 639 496 l 533 0 l 494 0 l 586 435 q 597 525 597 490 q 565 611 597 585 q 456 638 532 638 q 318 607 390 638 q 183 529 246 576 l 72 0 l 33 0 l 172 658 z "},"ṃ":{"ha":1175,"x_min":33,"x_max":1096,"o":"m 172 658 l 204 658 l 193 572 q 465 672 332 672 q 581 647 542 672 q 629 574 619 622 q 761 646 692 619 q 914 672 831 672 q 1096 521 1096 672 q 1086 443 1096 494 l 993 0 l 954 0 l 1047 442 q 1056 514 1056 483 q 1017 609 1056 581 q 894 638 978 638 q 758 613 825 638 q 636 540 690 588 q 625 435 639 496 l 533 0 l 494 0 l 586 435 q 597 525 597 490 q 565 611 597 585 q 456 638 532 638 q 318 607 390 638 q 183 529 246 576 l 72 0 l 33 0 l 172 658 m 467 -142 l 518 -142 l 507 -193 l 456 -193 l 467 -142 z "},"n":{"ha":761,"x_min":33,"x_max":682,"o":"m 172 658 l 204 658 l 193 572 q 330 647 258 621 q 492 672 401 672 q 635 635 588 672 q 682 521 682 599 q 672 440 682 483 l 579 0 l 540 0 l 633 440 q 644 522 644 492 q 603 611 644 585 q 464 638 563 638 q 183 529 321 638 l 72 0 l 33 0 l 172 658 z "},"ń":{"ha":761,"x_min":33,"x_max":682,"o":"m 588 932 l 629 932 l 488 725 l 456 725 l 588 932 m 172 658 l 204 658 l 193 572 q 330 647 258 621 q 492 672 401 672 q 635 635 588 672 q 682 521 682 599 q 672 440 682 483 l 579 0 l 540 0 l 633 440 q 644 522 644 492 q 603 611 644 585 q 464 638 563 638 q 183 529 321 638 l 72 0 l 33 0 l 172 658 z "},"ŉ":{"ha":824,"x_min":96,"x_max":744,"o":"m 190 906 l 236 906 l 142 693 l 111 693 l 190 906 m 235 658 l 267 658 l 256 572 q 392 647 321 621 q 554 672 464 672 q 697 635 650 672 q 744 521 744 599 q 735 440 744 483 l 642 0 l 603 0 l 696 440 q 707 522 707 492 q 666 611 707 585 q 526 638 625 638 q 246 529 383 638 l 135 0 l 96 0 l 235 658 z "},"ň":{"ha":761,"x_min":33,"x_max":682,"o":"m 350 894 l 388 894 l 469 750 l 613 894 l 656 894 l 488 725 l 446 725 l 350 894 m 172 658 l 204 658 l 193 572 q 330 647 258 621 q 492 672 401 672 q 635 635 588 672 q 682 521 682 599 q 672 440 682 483 l 579 0 l 540 0 l 633 440 q 644 522 644 492 q 603 611 644 585 q 464 638 563 638 q 183 529 321 638 l 72 0 l 33 0 l 172 658 z "},"ņ":{"ha":761,"x_min":33,"x_max":682,"o":"m 172 658 l 204 658 l 193 572 q 330 647 258 621 q 492 672 401 672 q 635 635 588 672 q 682 521 682 599 q 672 440 682 483 l 579 0 l 540 0 l 633 440 q 644 522 644 492 q 603 611 644 585 q 464 638 563 638 q 183 529 321 638 l 72 0 l 33 0 l 172 658 m 285 -51 l 331 -51 l 236 -264 l 206 -264 l 285 -51 z "},"ṅ":{"ha":761,"x_min":33,"x_max":682,"o":"m 471 815 l 519 815 l 510 767 l 461 767 l 471 815 m 172 658 l 204 658 l 193 572 q 330 647 258 621 q 492 672 401 672 q 635 635 588 672 q 682 521 682 599 q 672 440 682 483 l 579 0 l 540 0 l 633 440 q 644 522 644 492 q 603 611 644 585 q 464 638 563 638 q 183 529 321 638 l 72 0 l 33 0 l 172 658 z "},"ṇ":{"ha":761,"x_min":33,"x_max":682,"o":"m 172 658 l 204 658 l 193 572 q 330 647 258 621 q 492 672 401 672 q 635 635 588 672 q 682 521 682 599 q 672 440 682 483 l 579 0 l 540 0 l 633 440 q 644 522 644 492 q 603 611 644 585 q 464 638 563 638 q 183 529 321 638 l 72 0 l 33 0 l 172 658 m 272 -142 l 324 -142 l 313 -193 l 261 -193 l 272 -142 z "},"ŋ":{"ha":761,"x_min":33,"x_max":682,"o":"m 336 -325 q 242 -311 283 -325 l 249 -275 q 331 -290 290 -290 q 451 -256 408 -290 q 507 -153 493 -221 l 633 440 q 644 522 644 492 q 603 611 644 585 q 464 638 563 638 q 183 529 321 638 l 72 0 l 33 0 l 172 658 l 204 658 l 193 572 q 330 647 258 621 q 492 672 401 672 q 634 635 586 672 q 682 518 682 597 q 672 440 682 492 l 546 -153 q 475 -280 529 -235 q 336 -325 421 -325 z "},"ṉ":{"ha":761,"x_min":33,"x_max":682,"o":"m 172 658 l 204 658 l 193 572 q 330 647 258 621 q 492 672 401 672 q 635 635 588 672 q 682 521 682 599 q 672 440 682 483 l 579 0 l 540 0 l 633 440 q 644 522 644 492 q 603 611 644 585 q 464 638 563 638 q 183 529 321 638 l 72 0 l 33 0 l 172 658 m 113 -106 l 482 -106 l 475 -140 l 106 -140 l 113 -106 z "},"ñ":{"ha":761,"x_min":33,"x_max":688,"o":"m 579 767 q 538 773 557 767 q 492 793 519 779 q 453 810 469 804 q 422 817 438 817 q 308 769 356 817 l 317 813 q 365 841 336 831 q 425 851 394 851 q 466 845 449 851 q 508 825 483 839 q 547 807 532 813 q 582 801 563 801 q 639 812 614 801 q 688 849 664 822 l 678 806 q 579 767 642 767 m 172 658 l 204 658 l 193 572 q 330 647 258 621 q 492 672 401 672 q 635 635 588 672 q 682 521 682 599 q 672 440 682 483 l 579 0 l 540 0 l 633 440 q 644 522 644 492 q 603 611 644 585 q 464 638 563 638 q 183 529 321 638 l 72 0 l 33 0 l 172 658 z "},"o":{"ha":767,"x_min":60,"x_max":690,"o":"m 301 -14 q 118 40 176 -14 q 60 201 60 94 q 75 329 60 256 q 200 587 111 501 q 447 672 289 672 q 631 617 572 672 q 690 454 690 563 q 675 329 690 401 q 551 71 639 156 q 301 -14 464 -14 m 310 21 q 527 96 451 21 q 638 329 603 171 q 653 457 653 406 q 603 594 653 550 q 440 638 554 638 q 223 563 300 638 q 113 329 146 488 q 96 197 96 254 q 146 64 96 107 q 310 21 196 21 z "},"ó":{"ha":767,"x_min":60,"x_max":690,"o":"m 585 932 l 626 932 l 485 725 l 453 725 l 585 932 m 301 -14 q 118 40 176 -14 q 60 201 60 94 q 75 329 60 256 q 200 587 111 501 q 447 672 289 672 q 631 617 572 672 q 690 454 690 563 q 675 329 690 401 q 551 71 639 156 q 301 -14 464 -14 m 310 21 q 527 96 451 21 q 638 329 603 171 q 653 457 653 406 q 603 594 653 550 q 440 638 554 638 q 223 563 300 638 q 113 329 146 488 q 96 197 96 254 q 146 64 96 107 q 310 21 196 21 z "},"ŏ":{"ha":767,"x_min":60,"x_max":690,"o":"m 458 725 q 381 754 411 725 q 351 828 351 783 q 354 857 351 847 l 386 857 q 383 835 383 840 q 406 781 383 801 q 463 760 428 760 q 539 788 506 760 q 582 857 572 815 l 619 857 q 560 763 607 801 q 458 725 514 725 m 301 -14 q 118 40 176 -14 q 60 201 60 94 q 75 329 60 256 q 200 587 111 501 q 447 672 289 672 q 631 617 572 672 q 690 454 690 563 q 675 329 690 401 q 551 71 639 156 q 301 -14 464 -14 m 310 21 q 527 96 451 21 q 638 329 603 171 q 653 457 653 406 q 603 594 653 550 q 440 638 554 638 q 223 563 300 638 q 113 329 146 488 q 96 197 96 254 q 146 64 96 107 q 310 21 196 21 z "},"ǒ":{"ha":767,"x_min":60,"x_max":690,"o":"m 342 894 l 379 894 l 461 750 l 604 894 l 647 894 l 479 725 l 438 725 l 342 894 m 301 -14 q 118 40 176 -14 q 60 201 60 94 q 75 329 60 256 q 200 587 111 501 q 447 672 289 672 q 631 617 572 672 q 690 454 690 563 q 675 329 690 401 q 551 71 639 156 q 301 -14 464 -14 m 310 21 q 527 96 451 21 q 638 329 603 171 q 653 457 653 406 q 603 594 653 550 q 440 638 554 638 q 223 563 300 638 q 113 329 146 488 q 96 197 96 254 q 146 64 96 107 q 310 21 196 21 z "},"ô":{"ha":767,"x_min":60,"x_max":690,"o":"m 467 894 l 508 894 l 604 725 l 567 725 l 485 869 l 342 725 l 300 725 l 467 894 m 301 -14 q 118 40 176 -14 q 60 201 60 94 q 75 329 60 256 q 200 587 111 501 q 447 672 289 672 q 631 617 572 672 q 690 454 690 563 q 675 329 690 401 q 551 71 639 156 q 301 -14 464 -14 m 310 21 q 527 96 451 21 q 638 329 603 171 q 653 457 653 406 q 603 594 653 550 q 440 638 554 638 q 223 563 300 638 q 113 329 146 488 q 96 197 96 254 q 146 64 96 107 q 310 21 196 21 z "},"ố":{"ha":767,"x_min":60,"x_max":744,"o":"m 706 1018 l 744 1018 l 624 867 l 593 867 l 706 1018 m 490 867 l 532 867 l 635 725 l 597 725 l 510 844 l 372 725 l 329 725 l 490 867 m 301 -14 q 118 40 176 -14 q 60 201 60 94 q 75 329 60 256 q 200 587 111 501 q 447 672 289 672 q 631 617 572 672 q 690 454 690 563 q 675 329 690 401 q 551 71 639 156 q 301 -14 464 -14 m 310 21 q 527 96 451 21 q 638 329 603 171 q 653 457 653 406 q 603 594 653 550 q 440 638 554 638 q 223 563 300 638 q 113 329 146 488 q 96 197 96 254 q 146 64 96 107 q 310 21 196 21 z "},"ộ":{"ha":767,"x_min":60,"x_max":690,"o":"m 474 894 l 515 894 l 611 725 l 574 725 l 492 869 l 349 725 l 307 725 l 474 894 m 301 -14 q 118 40 176 -14 q 60 201 60 94 q 75 329 60 256 q 200 587 111 501 q 447 672 289 672 q 631 617 572 672 q 690 454 690 563 q 675 329 690 401 q 551 71 639 156 q 301 -14 464 -14 m 310 21 q 527 96 451 21 q 638 329 603 171 q 653 457 653 406 q 603 594 653 550 q 440 638 554 638 q 223 563 300 638 q 113 329 146 488 q 96 197 96 254 q 146 64 96 107 q 310 21 196 21 m 251 -142 l 303 -142 l 292 -193 l 240 -193 l 251 -142 z "},"ồ":{"ha":767,"x_min":60,"x_max":690,"o":"m 329 1018 l 369 1018 l 415 867 l 385 867 l 329 1018 m 476 867 l 518 867 l 621 725 l 583 725 l 496 844 l 358 725 l 315 725 l 476 867 m 301 -14 q 118 40 176 -14 q 60 201 60 94 q 75 329 60 256 q 200 587 111 501 q 447 672 289 672 q 631 617 572 672 q 690 454 690 563 q 675 329 690 401 q 551 71 639 156 q 301 -14 464 -14 m 310 21 q 527 96 451 21 q 638 329 603 171 q 653 457 653 406 q 603 594 653 550 q 440 638 554 638 q 223 563 300 638 q 113 329 146 488 q 96 197 96 254 q 146 64 96 107 q 310 21 196 21 z "},"ổ":{"ha":767,"x_min":60,"x_max":782,"o":"m 614 915 q 711 935 685 919 q 744 985 738 950 q 747 1003 747 999 q 681 1047 747 1047 q 594 1029 640 1047 l 603 1064 q 688 1081 643 1081 q 757 1063 732 1081 q 782 1010 782 1044 q 779 985 782 1001 q 740 919 771 942 q 647 889 708 896 l 636 838 l 597 838 l 614 915 m 490 867 l 532 867 l 635 725 l 597 725 l 510 844 l 372 725 l 329 725 l 490 867 m 301 -14 q 118 40 176 -14 q 60 201 60 94 q 75 329 60 256 q 200 587 111 501 q 447 672 289 672 q 631 617 572 672 q 690 454 690 563 q 675 329 690 401 q 551 71 639 156 q 301 -14 464 -14 m 310 21 q 527 96 451 21 q 638 329 603 171 q 653 457 653 406 q 603 594 653 550 q 440 638 554 638 q 223 563 300 638 q 113 329 146 488 q 96 197 96 254 q 146 64 96 107 q 310 21 196 21 z "},"ỗ":{"ha":767,"x_min":60,"x_max":697,"o":"m 338 990 q 443 1026 381 1026 q 481 1021 465 1026 q 519 1003 496 1015 q 552 987 538 992 q 586 982 567 982 q 643 992 618 982 q 697 1026 668 1001 l 688 983 q 583 947 647 947 q 544 953 561 947 q 504 971 528 958 q 470 986 485 981 q 440 992 456 992 q 383 982 408 992 q 329 947 357 972 l 338 990 m 460 725 q 352 756 394 725 q 310 850 310 786 q 315 897 310 875 l 349 897 q 344 856 344 875 q 465 760 344 760 q 579 794 532 760 q 640 897 626 828 l 676 897 q 599 766 658 807 q 460 725 540 725 m 301 -14 q 118 40 176 -14 q 60 201 60 94 q 75 329 60 256 q 200 587 111 501 q 447 672 289 672 q 631 617 572 672 q 690 454 690 563 q 675 329 690 401 q 551 71 639 156 q 301 -14 464 -14 m 310 21 q 527 96 451 21 q 638 329 603 171 q 653 457 653 406 q 603 594 653 550 q 440 638 554 638 q 223 563 300 638 q 113 329 146 488 q 96 197 96 254 q 146 64 96 107 q 310 21 196 21 z "},"ö":{"ha":767,"x_min":60,"x_max":690,"o":"m 344 815 l 393 815 l 383 767 l 335 767 l 344 815 m 563 815 l 611 815 l 601 767 l 553 767 l 563 815 m 301 -14 q 118 40 176 -14 q 60 201 60 94 q 75 329 60 256 q 200 587 111 501 q 447 672 289 672 q 631 617 572 672 q 690 454 690 563 q 675 329 690 401 q 551 71 639 156 q 301 -14 464 -14 m 310 21 q 527 96 451 21 q 638 329 603 171 q 653 457 653 406 q 603 594 653 550 q 440 638 554 638 q 223 563 300 638 q 113 329 146 488 q 96 197 96 254 q 146 64 96 107 q 310 21 196 21 z "},"ọ":{"ha":767,"x_min":60,"x_max":690,"o":"m 301 -14 q 118 40 176 -14 q 60 201 60 94 q 75 329 60 256 q 200 587 111 501 q 447 672 289 672 q 631 617 572 672 q 690 454 690 563 q 675 329 690 401 q 551 71 639 156 q 301 -14 464 -14 m 310 21 q 527 96 451 21 q 638 329 603 171 q 653 457 653 406 q 603 594 653 550 q 440 638 554 638 q 223 563 300 638 q 113 329 146 488 q 96 197 96 254 q 146 64 96 107 q 310 21 196 21 m 251 -142 l 303 -142 l 292 -193 l 240 -193 l 251 -142 z "},"ò":{"ha":767,"x_min":60,"x_max":690,"o":"m 404 932 l 446 932 l 489 725 l 457 725 l 404 932 m 301 -14 q 118 40 176 -14 q 60 201 60 94 q 75 329 60 256 q 200 587 111 501 q 447 672 289 672 q 631 617 572 672 q 690 454 690 563 q 675 329 690 401 q 551 71 639 156 q 301 -14 464 -14 m 310 21 q 527 96 451 21 q 638 329 603 171 q 653 457 653 406 q 603 594 653 550 q 440 638 554 638 q 223 563 300 638 q 113 329 146 488 q 96 197 96 254 q 146 64 96 107 q 310 21 196 21 z "},"ỏ":{"ha":767,"x_min":60,"x_max":690,"o":"m 464 829 q 553 842 522 831 q 597 872 583 853 q 617 922 610 890 q 619 946 619 939 q 594 991 619 976 q 513 1006 569 1006 q 461 1001 489 1006 q 414 989 433 996 l 421 1024 q 469 1035 439 1031 q 522 1040 500 1040 q 620 1017 586 1040 q 654 949 654 993 q 651 922 654 942 q 604 837 639 865 q 497 803 569 808 l 481 725 l 442 725 l 464 829 m 301 -14 q 118 40 176 -14 q 60 201 60 94 q 75 329 60 256 q 200 587 111 501 q 447 672 289 672 q 631 617 572 672 q 690 454 690 563 q 675 329 690 401 q 551 71 639 156 q 301 -14 464 -14 m 310 21 q 527 96 451 21 q 638 329 603 171 q 653 457 653 406 q 603 594 653 550 q 440 638 554 638 q 223 563 300 638 q 113 329 146 488 q 96 197 96 254 q 146 64 96 107 q 310 21 196 21 z "},"ơ":{"ha":863,"x_min":60,"x_max":900,"o":"m 301 -14 q 118 40 176 -14 q 60 201 60 94 q 75 329 60 256 q 201 586 111 500 q 447 672 292 672 q 667 565 617 672 q 799 606 754 567 q 865 744 843 644 l 900 744 q 823 585 876 632 q 679 532 769 538 q 689 451 689 499 q 675 329 689 394 q 551 71 639 156 q 301 -14 463 -14 m 310 21 q 527 96 451 21 q 638 329 603 171 q 653 457 653 406 q 603 594 653 550 q 440 638 554 638 q 225 561 304 638 q 113 329 146 485 q 96 200 96 257 q 146 65 96 108 q 310 21 196 21 z "},"ớ":{"ha":863,"x_min":60,"x_max":900,"o":"m 593 932 l 635 932 l 493 725 l 461 725 l 593 932 m 301 -14 q 118 40 176 -14 q 60 201 60 94 q 75 329 60 256 q 201 586 111 500 q 447 672 292 672 q 667 565 617 672 q 799 606 754 567 q 865 744 843 644 l 900 744 q 823 585 876 632 q 679 532 769 538 q 689 451 689 499 q 675 329 689 394 q 551 71 639 156 q 301 -14 463 -14 m 310 21 q 527 96 451 21 q 638 329 603 171 q 653 457 653 406 q 603 594 653 550 q 440 638 554 638 q 225 561 304 638 q 113 329 146 485 q 96 200 96 257 q 146 65 96 108 q 310 21 196 21 z "},"ợ":{"ha":863,"x_min":60,"x_max":900,"o":"m 301 -14 q 118 40 176 -14 q 60 201 60 94 q 75 329 60 256 q 201 586 111 500 q 447 672 292 672 q 667 565 617 672 q 799 606 754 567 q 865 744 843 644 l 900 744 q 823 585 876 632 q 679 532 769 538 q 689 451 689 499 q 675 329 689 394 q 551 71 639 156 q 301 -14 463 -14 m 310 21 q 527 96 451 21 q 638 329 603 171 q 653 457 653 406 q 603 594 653 550 q 440 638 554 638 q 225 561 304 638 q 113 329 146 485 q 96 200 96 257 q 146 65 96 108 q 310 21 196 21 m 275 -142 l 326 -142 l 315 -193 l 264 -193 l 275 -142 z "},"ờ":{"ha":863,"x_min":60,"x_max":900,"o":"m 429 932 l 471 932 l 514 725 l 482 725 l 429 932 m 301 -14 q 118 40 176 -14 q 60 201 60 94 q 75 329 60 256 q 201 586 111 500 q 447 672 292 672 q 667 565 617 672 q 799 606 754 567 q 865 744 843 644 l 900 744 q 823 585 876 632 q 679 532 769 538 q 689 451 689 499 q 675 329 689 394 q 551 71 639 156 q 301 -14 463 -14 m 310 21 q 527 96 451 21 q 638 329 603 171 q 653 457 653 406 q 603 594 653 550 q 440 638 554 638 q 225 561 304 638 q 113 329 146 485 q 96 200 96 257 q 146 65 96 108 q 310 21 196 21 z "},"ở":{"ha":863,"x_min":60,"x_max":900,"o":"m 461 829 q 550 842 519 831 q 594 872 581 853 q 614 922 607 890 q 617 946 617 939 q 592 991 617 976 q 510 1006 567 1006 q 458 1001 486 1006 q 411 989 431 996 l 418 1024 q 467 1035 436 1031 q 519 1040 497 1040 q 617 1017 583 1040 q 651 949 651 993 q 649 922 651 942 q 601 837 636 865 q 494 803 567 808 l 478 725 l 439 725 l 461 829 m 301 -14 q 118 40 176 -14 q 60 201 60 94 q 75 329 60 256 q 201 586 111 500 q 447 672 292 672 q 667 565 617 672 q 799 606 754 567 q 865 744 843 644 l 900 744 q 823 585 876 632 q 679 532 769 538 q 689 451 689 499 q 675 329 689 394 q 551 71 639 156 q 301 -14 463 -14 m 310 21 q 527 96 451 21 q 638 329 603 171 q 653 457 653 406 q 603 594 653 550 q 440 638 554 638 q 225 561 304 638 q 113 329 146 485 q 96 200 96 257 q 146 65 96 108 q 310 21 196 21 z "},"ỡ":{"ha":863,"x_min":60,"x_max":900,"o":"m 568 767 q 527 773 546 767 q 481 793 508 779 q 442 810 458 804 q 411 817 426 817 q 297 769 344 817 l 306 813 q 354 841 325 831 q 414 851 383 851 q 455 845 438 851 q 497 825 472 839 q 536 807 521 813 q 571 801 551 801 q 628 812 603 801 q 676 849 653 822 l 667 806 q 568 767 631 767 m 301 -14 q 118 40 176 -14 q 60 201 60 94 q 75 329 60 256 q 201 586 111 500 q 447 672 292 672 q 667 565 617 672 q 799 606 754 567 q 865 744 843 644 l 900 744 q 823 585 876 632 q 679 532 769 538 q 689 451 689 499 q 675 329 689 394 q 551 71 639 156 q 301 -14 463 -14 m 310 21 q 527 96 451 21 q 638 329 603 171 q 653 457 653 406 q 603 594 653 550 q 440 638 554 638 q 225 561 304 638 q 113 329 146 485 q 96 200 96 257 q 146 65 96 108 q 310 21 196 21 z "},"ő":{"ha":767,"x_min":60,"x_max":760,"o":"m 453 904 l 493 904 l 360 725 l 329 725 l 453 904 m 719 904 l 760 904 l 625 725 l 594 725 l 719 904 m 301 -14 q 118 40 176 -14 q 60 201 60 94 q 75 329 60 256 q 200 587 111 501 q 447 672 289 672 q 631 617 572 672 q 690 454 690 563 q 675 329 690 401 q 551 71 639 156 q 301 -14 464 -14 m 310 21 q 527 96 451 21 q 638 329 603 171 q 653 457 653 406 q 603 594 653 550 q 440 638 554 638 q 223 563 300 638 q 113 329 146 488 q 96 197 96 254 q 146 64 96 107 q 310 21 196 21 z "},"ō":{"ha":767,"x_min":60,"x_max":690,"o":"m 292 801 l 661 801 l 653 767 l 283 767 l 292 801 m 301 -14 q 118 40 176 -14 q 60 201 60 94 q 75 329 60 256 q 200 587 111 501 q 447 672 289 672 q 631 617 572 672 q 690 454 690 563 q 675 329 690 401 q 551 71 639 156 q 301 -14 464 -14 m 310 21 q 527 96 451 21 q 638 329 603 171 q 653 457 653 406 q 603 594 653 550 q 440 638 554 638 q 223 563 300 638 q 113 329 146 488 q 96 197 96 254 q 146 64 96 107 q 310 21 196 21 z "},"ø":{"ha":767,"x_min":60,"x_max":690,"o":"m 185 1 q 60 201 60 43 q 75 329 60 256 q 200 587 111 501 q 447 672 289 672 q 556 658 513 672 l 599 733 l 636 733 l 586 646 q 690 453 690 597 q 675 329 690 401 q 551 71 639 156 q 301 -14 464 -14 q 218 -6 254 -14 l 179 -75 l 142 -75 l 185 1 m 538 626 q 440 638 496 638 q 223 563 300 638 q 113 329 146 488 q 96 197 96 254 q 122 91 96 131 q 203 33 147 51 l 538 626 m 310 21 q 527 96 451 21 q 638 329 603 171 q 653 457 653 406 q 633 555 653 517 q 569 614 614 593 l 236 26 q 310 21 265 21 z "},"ǿ":{"ha":767,"x_min":60,"x_max":690,"o":"m 572 932 l 614 932 l 472 725 l 440 725 l 572 932 m 185 1 q 60 201 60 43 q 75 329 60 256 q 200 587 111 501 q 447 672 289 672 q 556 658 513 672 l 599 733 l 636 733 l 586 646 q 690 453 690 597 q 675 329 690 401 q 551 71 639 156 q 301 -14 464 -14 q 218 -6 254 -14 l 179 -75 l 142 -75 l 185 1 m 538 626 q 440 638 496 638 q 223 563 300 638 q 113 329 146 488 q 96 197 96 254 q 122 91 96 131 q 203 33 147 51 l 538 626 m 310 21 q 527 96 451 21 q 638 329 603 171 q 653 457 653 406 q 633 555 653 517 q 569 614 614 593 l 236 26 q 310 21 265 21 z "},"õ":{"ha":767,"x_min":60,"x_max":690,"o":"m 560 767 q 519 773 538 767 q 472 793 500 779 q 434 810 450 804 q 403 817 418 817 q 289 769 336 817 l 297 813 q 346 841 317 831 q 406 851 375 851 q 447 845 429 851 q 489 825 464 839 q 528 807 513 813 q 563 801 543 801 q 619 812 594 801 q 668 849 644 822 l 658 806 q 560 767 622 767 m 301 -14 q 118 40 176 -14 q 60 201 60 94 q 75 329 60 256 q 200 587 111 501 q 447 672 289 672 q 631 617 572 672 q 690 454 690 563 q 675 329 690 401 q 551 71 639 156 q 301 -14 464 -14 m 310 21 q 527 96 451 21 q 638 329 603 171 q 653 457 653 406 q 603 594 653 550 q 440 638 554 638 q 223 563 300 638 q 113 329 146 488 q 96 197 96 254 q 146 64 96 107 q 310 21 196 21 z "},"œ":{"ha":1282,"x_min":60,"x_max":1217,"o":"m 301 -14 q 119 40 178 -14 q 60 203 60 94 q 75 329 60 256 q 199 587 111 501 q 447 672 288 672 q 688 483 672 672 q 812 624 735 576 q 1004 672 889 672 q 1165 622 1113 672 q 1217 489 1217 572 q 1208 417 1217 454 l 1185 303 l 671 303 q 660 206 660 244 q 718 65 660 110 q 910 21 776 21 q 1088 56 993 21 l 1079 19 q 894 -14 988 -14 q 624 175 632 -14 q 499 34 576 82 q 301 -14 421 -14 m 310 21 q 526 97 447 21 q 639 335 604 174 q 653 453 653 399 q 601 592 653 547 q 440 638 550 638 q 224 562 301 638 q 113 329 146 486 q 96 200 96 257 q 146 65 96 108 q 310 21 196 21 m 1153 339 l 1168 411 q 1178 490 1178 463 q 1135 601 1178 564 q 997 638 1092 638 q 785 561 861 638 q 678 339 710 485 l 1153 339 z "},"p":{"ha":769,"x_min":-31,"x_max":693,"o":"m 172 658 l 204 658 l 193 579 q 316 650 253 628 q 457 672 379 672 q 693 454 693 672 q 679 333 693 397 q 303 -14 606 -14 q 178 3 228 -14 q 85 61 128 21 l 8 -300 l -31 -300 l 172 658 m 301 21 q 523 97 439 21 q 642 333 607 174 q 657 456 657 406 q 606 593 657 549 q 443 638 556 638 q 308 614 371 638 q 186 539 244 590 l 93 101 q 181 42 133 63 q 301 21 229 21 z "},"þ":{"ha":769,"x_min":-31,"x_max":693,"o":"m 239 972 l 278 972 l 194 579 q 317 650 254 628 q 457 672 379 672 q 693 454 693 672 q 679 333 693 397 q 543 72 642 158 q 303 -14 444 -14 q 178 3 228 -14 q 85 61 128 21 l 8 -300 l -31 -300 l 239 972 m 301 21 q 523 97 439 21 q 642 333 607 174 q 656 450 656 394 q 604 591 656 544 q 443 638 553 638 q 308 614 371 638 q 186 539 244 590 l 93 101 q 181 42 133 63 q 301 21 229 21 z "},"q":{"ha":826,"x_min":63,"x_max":719,"o":"m 594 -336 q 519 -313 543 -336 q 494 -243 494 -290 q 501 -185 494 -222 l 554 61 q 436 3 494 21 q 303 -14 378 -14 q 126 44 190 -14 q 63 219 63 103 q 76 333 63 264 q 203 591 114 510 q 440 672 293 672 q 572 650 518 672 q 665 579 626 628 l 688 658 l 719 658 l 540 -185 q 533 -240 533 -222 q 551 -286 533 -272 q 614 -300 569 -300 q 658 -293 633 -300 l 650 -329 q 594 -336 619 -336 m 321 21 q 449 42 393 21 q 563 101 506 63 l 656 539 q 567 614 617 590 q 440 638 517 638 q 226 562 306 638 q 114 333 146 486 q 100 215 100 269 q 153 69 100 117 q 321 21 207 21 z "},"r":{"ha":456,"x_min":33,"x_max":464,"o":"m 172 658 l 204 658 l 190 560 q 324 627 251 597 q 464 672 396 657 l 457 636 q 312 588 392 621 q 182 522 232 554 l 72 0 l 33 0 l 172 658 z "},"ŕ":{"ha":467,"x_min":44,"x_max":486,"o":"m 444 932 l 486 932 l 344 725 l 313 725 l 444 932 m 183 658 l 215 658 l 201 560 q 335 627 263 597 q 475 672 407 657 l 468 636 q 323 588 403 621 q 193 522 243 554 l 83 0 l 44 0 l 183 658 z "},"ř":{"ha":478,"x_min":33,"x_max":464,"o":"m 158 894 l 196 894 l 278 750 l 421 894 l 464 894 l 296 725 l 254 725 l 158 894 m 172 658 l 204 658 l 190 560 q 324 627 251 597 q 464 672 396 657 l 457 636 q 312 588 392 621 q 182 522 232 554 l 72 0 l 33 0 l 172 658 z "},"ŗ":{"ha":456,"x_min":-60,"x_max":464,"o":"m 172 658 l 204 658 l 190 560 q 324 627 251 597 q 464 672 396 657 l 457 636 q 312 588 392 621 q 182 522 232 554 l 72 0 l 33 0 l 172 658 m 19 -51 l 65 -51 l -29 -264 l -60 -264 l 19 -51 z "},"ṛ":{"ha":456,"x_min":-14,"x_max":464,"o":"m 172 658 l 204 658 l 190 560 q 324 627 251 597 q 464 672 396 657 l 457 636 q 312 588 392 621 q 182 522 232 554 l 72 0 l 33 0 l 172 658 m -3 -142 l 49 -142 l 38 -193 l -14 -193 l -3 -142 z "},"ṝ":{"ha":538,"x_min":8,"x_max":488,"o":"m 108 801 l 478 801 l 469 767 l 100 767 l 108 801 m 196 658 l 228 658 l 214 560 q 347 627 275 597 q 488 672 419 657 l 481 636 q 335 588 415 621 q 206 522 256 554 l 96 0 l 57 0 l 196 658 m 19 -142 l 71 -142 l 60 -193 l 8 -193 l 19 -142 z "},"ṟ":{"ha":456,"x_min":-149,"x_max":464,"o":"m 172 658 l 204 658 l 190 560 q 324 627 251 597 q 464 672 396 657 l 457 636 q 312 588 392 621 q 182 522 232 554 l 72 0 l 33 0 l 172 658 m -142 -106 l 228 -106 l 221 -140 l -149 -140 l -142 -106 z "},"s":{"ha":607,"x_min":26,"x_max":533,"o":"m 210 -14 q 26 11 104 -14 l 35 47 q 214 21 118 21 q 373 53 319 21 q 442 161 426 86 q 446 200 446 182 q 428 253 446 233 q 382 285 410 272 q 276 325 354 297 l 247 336 q 171 368 197 354 q 126 406 144 382 q 108 467 108 429 q 113 507 108 485 q 191 632 131 592 q 372 672 251 672 q 533 651 469 672 l 526 615 q 371 638 451 638 q 214 607 263 638 q 150 508 165 576 q 146 472 146 488 q 178 409 146 431 q 294 358 210 388 q 403 316 365 333 q 463 272 440 299 q 485 204 485 246 q 479 161 485 182 q 392 26 458 67 q 210 -14 326 -14 z "},"ś":{"ha":607,"x_min":26,"x_max":546,"o":"m 504 932 l 546 932 l 404 725 l 372 725 l 504 932 m 210 -14 q 26 11 104 -14 l 35 47 q 214 21 118 21 q 373 53 319 21 q 442 161 426 86 q 446 200 446 182 q 428 253 446 233 q 382 285 410 272 q 276 325 354 297 l 247 336 q 171 368 197 354 q 126 406 144 382 q 108 467 108 429 q 113 507 108 485 q 191 632 131 592 q 372 672 251 672 q 533 651 469 672 l 526 615 q 371 638 451 638 q 214 607 263 638 q 150 508 165 576 q 146 472 146 488 q 178 409 146 431 q 294 358 210 388 q 403 316 365 333 q 463 272 440 299 q 485 204 485 246 q 479 161 485 182 q 392 26 458 67 q 210 -14 326 -14 z "},"š":{"ha":607,"x_min":26,"x_max":572,"o":"m 267 894 l 304 894 l 386 750 l 529 894 l 572 894 l 404 725 l 363 725 l 267 894 m 210 -14 q 26 11 104 -14 l 35 47 q 214 21 118 21 q 373 53 319 21 q 442 161 426 86 q 446 200 446 182 q 428 253 446 233 q 382 285 410 272 q 276 325 354 297 l 247 336 q 171 368 197 354 q 126 406 144 382 q 108 467 108 429 q 113 507 108 485 q 191 632 131 592 q 372 672 251 672 q 533 651 469 672 l 526 615 q 371 638 451 638 q 214 607 263 638 q 150 508 165 576 q 146 472 146 488 q 178 409 146 431 q 294 358 210 388 q 403 316 365 333 q 463 272 440 299 q 485 204 485 246 q 479 161 485 182 q 392 26 458 67 q 210 -14 326 -14 z "},"ş":{"ha":607,"x_min":26,"x_max":533,"o":"m 147 -333 q 63 -322 101 -333 l 71 -287 q 157 -299 107 -299 q 273 -275 232 -299 q 326 -196 314 -251 q 329 -169 329 -176 q 301 -120 329 -135 q 208 -106 272 -106 l 169 -106 l 221 -14 q 26 11 104 -14 l 35 47 q 214 21 118 21 q 373 53 319 21 q 442 161 426 86 q 446 200 446 182 q 428 253 446 233 q 382 285 410 272 q 276 325 354 297 l 247 336 q 171 368 197 354 q 126 406 144 382 q 108 467 108 429 q 113 507 108 485 q 191 632 131 592 q 372 672 251 672 q 533 651 469 672 l 526 615 q 371 638 451 638 q 214 607 263 638 q 150 508 165 576 q 146 472 146 488 q 178 409 146 431 q 294 358 210 388 q 403 316 365 333 q 463 272 440 299 q 485 204 485 246 q 479 161 485 182 q 407 37 461 78 q 261 -11 353 -4 l 226 -74 q 330 -97 293 -74 q 367 -167 367 -121 q 364 -193 367 -174 q 297 -298 349 -262 q 147 -333 244 -333 z "},"ŝ":{"ha":607,"x_min":26,"x_max":556,"o":"m 418 922 l 460 922 l 556 753 l 518 753 l 436 897 l 293 753 l 251 753 l 418 922 m 210 -14 q 26 11 104 -14 l 35 47 q 214 21 118 21 q 373 53 319 21 q 442 161 426 86 q 446 200 446 182 q 428 253 446 233 q 382 285 410 272 q 276 325 354 297 l 247 336 q 171 368 197 354 q 126 406 144 382 q 108 467 108 429 q 113 507 108 485 q 191 632 131 592 q 372 672 251 672 q 533 651 469 672 l 526 615 q 371 638 451 638 q 214 607 263 638 q 150 508 165 576 q 146 472 146 488 q 178 409 146 431 q 294 358 210 388 q 403 316 365 333 q 463 272 440 299 q 485 204 485 246 q 479 161 485 182 q 392 26 458 67 q 210 -14 326 -14 z "},"ș":{"ha":607,"x_min":26,"x_max":533,"o":"m 210 -14 q 26 11 104 -14 l 35 47 q 214 21 118 21 q 373 53 319 21 q 442 161 426 86 q 446 200 446 182 q 428 253 446 233 q 382 285 410 272 q 276 325 354 297 l 247 336 q 171 368 197 354 q 126 406 144 382 q 108 467 108 429 q 113 507 108 485 q 191 632 131 592 q 372 672 251 672 q 533 651 469 672 l 526 615 q 371 638 451 638 q 214 607 263 638 q 150 508 165 576 q 146 472 146 488 q 178 409 146 431 q 294 358 210 388 q 403 316 365 333 q 463 272 440 299 q 485 204 485 246 q 479 161 485 182 q 392 26 458 67 q 210 -14 326 -14 m 200 -79 l 244 -79 l 151 -292 l 121 -292 l 200 -79 z "},"ṡ":{"ha":607,"x_min":26,"x_max":533,"o":"m 389 815 l 438 815 l 428 767 l 379 767 l 389 815 m 210 -14 q 26 11 104 -14 l 35 47 q 214 21 118 21 q 373 53 319 21 q 442 161 426 86 q 446 200 446 182 q 428 253 446 233 q 382 285 410 272 q 276 325 354 297 l 247 336 q 171 368 197 354 q 126 406 144 382 q 108 467 108 429 q 113 507 108 485 q 191 632 131 592 q 372 672 251 672 q 533 651 469 672 l 526 615 q 371 638 451 638 q 214 607 263 638 q 150 508 165 576 q 146 472 146 488 q 178 409 146 431 q 294 358 210 388 q 403 316 365 333 q 463 272 440 299 q 485 204 485 246 q 479 161 485 182 q 392 26 458 67 q 210 -14 326 -14 z "},"ṣ":{"ha":607,"x_min":26,"x_max":533,"o":"m 210 -14 q 26 11 104 -14 l 35 47 q 214 21 118 21 q 373 53 319 21 q 442 161 426 86 q 446 200 446 182 q 428 253 446 233 q 382 285 410 272 q 276 325 354 297 l 247 336 q 171 368 197 354 q 126 406 144 382 q 108 467 108 429 q 113 507 108 485 q 191 632 131 592 q 372 672 251 672 q 533 651 469 672 l 526 615 q 371 638 451 638 q 214 607 263 638 q 150 508 165 576 q 146 472 146 488 q 178 409 146 431 q 294 358 210 388 q 403 316 365 333 q 463 272 440 299 q 485 204 485 246 q 479 161 485 182 q 392 26 458 67 q 210 -14 326 -14 m 199 -142 l 250 -142 l 239 -193 l 188 -193 l 199 -142 z "},"ß":{"ha":851,"x_min":26,"x_max":813,"o":"m 419 -14 q 226 17 296 -14 l 235 53 q 428 21 303 21 q 612 83 540 21 q 708 264 683 146 q 718 340 718 313 q 673 449 718 411 q 522 486 628 486 l 396 486 l 403 521 l 539 521 q 692 578 635 521 q 768 722 750 636 q 775 786 775 760 q 722 897 775 858 q 539 936 668 936 q 318 869 401 936 q 207 672 235 803 l 65 0 l 26 0 l 169 678 q 295 897 200 821 q 546 972 390 972 q 747 921 681 972 q 813 781 813 869 q 806 722 813 757 q 742 586 789 643 q 632 506 696 529 q 722 447 690 490 q 754 336 754 404 q 746 264 754 304 q 633 58 718 131 q 419 -14 549 -14 z "},"ə":{"ha":719,"x_min":47,"x_max":643,"o":"m 260 -14 q 99 36 150 -14 q 47 171 47 86 q 56 242 47 204 l 81 356 l 594 356 q 606 460 606 418 q 549 595 606 553 q 356 638 492 638 q 178 603 269 638 l 185 639 q 369 672 276 672 q 577 620 511 672 q 643 456 643 568 q 626 324 643 399 q 506 72 592 157 q 260 -14 419 -14 m 268 21 q 481 97 406 21 q 586 319 556 174 l 111 319 l 96 247 q 86 165 86 204 q 129 57 86 93 q 268 21 172 21 z "},"t":{"ha":475,"x_min":110,"x_max":461,"o":"m 247 -14 q 148 18 183 -14 q 113 108 113 50 q 118 158 113 135 l 217 622 l 110 622 l 117 658 l 224 658 l 263 842 l 304 856 l 263 658 l 461 658 l 451 622 l 256 622 l 157 158 q 151 110 151 135 q 178 43 151 65 q 263 21 204 21 q 349 36 301 21 l 342 0 q 247 -14 293 -14 z "},"ŧ":{"ha":486,"x_min":67,"x_max":461,"o":"m 256 622 l 203 375 l 418 375 l 411 340 l 196 340 l 157 158 q 151 110 151 135 q 178 43 151 65 q 263 21 204 21 q 349 36 301 21 l 342 0 q 247 -14 293 -14 q 148 18 183 -14 q 113 108 113 50 q 118 158 113 135 l 157 340 l 67 340 l 74 375 l 164 375 l 217 622 l 110 622 l 117 658 l 224 658 l 263 842 l 304 856 l 263 658 l 461 658 l 451 622 l 256 622 z "},"ť":{"ha":576,"x_min":110,"x_max":613,"o":"m 567 992 l 613 992 l 518 779 l 488 779 l 567 992 m 247 -14 q 148 18 183 -14 q 113 108 113 50 q 118 158 113 135 l 217 622 l 110 622 l 117 658 l 224 658 l 263 842 l 304 856 l 263 658 l 461 658 l 451 622 l 256 622 l 157 158 q 151 110 151 135 q 178 43 151 65 q 263 21 204 21 q 349 36 301 21 l 342 0 q 247 -14 293 -14 z "},"ţ":{"ha":536,"x_min":50,"x_max":461,"o":"m 135 -333 q 50 -322 89 -333 l 58 -287 q 144 -299 94 -299 q 260 -275 219 -299 q 314 -196 301 -251 q 317 -169 317 -176 q 288 -120 317 -135 q 196 -106 260 -106 l 157 -106 l 210 -11 q 138 28 163 -3 q 113 108 113 58 q 118 158 113 135 l 217 622 l 110 622 l 117 658 l 224 658 l 263 842 l 304 856 l 263 658 l 461 658 l 451 622 l 256 622 l 157 158 q 151 110 151 135 q 178 43 151 65 q 263 21 204 21 q 349 36 301 21 l 342 0 q 247 -14 293 -14 l 214 -74 q 317 -97 281 -74 q 354 -167 354 -121 q 351 -193 354 -174 q 284 -298 336 -262 q 135 -333 232 -333 z "},"ț":{"ha":475,"x_min":110,"x_max":461,"o":"m 247 -14 q 148 18 183 -14 q 113 108 113 50 q 118 158 113 135 l 217 622 l 110 622 l 117 658 l 224 658 l 263 842 l 304 856 l 263 658 l 461 658 l 451 622 l 256 622 l 157 158 q 151 110 151 135 q 178 43 151 65 q 263 21 204 21 q 349 36 301 21 l 342 0 q 247 -14 293 -14 m 217 -51 l 263 -51 l 168 -264 l 138 -264 l 217 -51 z "},"ẗ":{"ha":475,"x_min":110,"x_max":472,"o":"m 206 950 l 254 950 l 244 901 l 196 901 l 206 950 m 424 950 l 472 950 l 463 901 l 414 901 l 424 950 m 247 -14 q 148 18 183 -14 q 113 108 113 50 q 118 158 113 135 l 217 622 l 110 622 l 117 658 l 224 658 l 263 842 l 304 856 l 263 658 l 461 658 l 451 622 l 256 622 l 157 158 q 151 110 151 135 q 178 43 151 65 q 263 21 204 21 q 349 36 301 21 l 342 0 q 247 -14 293 -14 z "},"ṭ":{"ha":475,"x_min":110,"x_max":461,"o":"m 247 -14 q 148 18 183 -14 q 113 108 113 50 q 118 158 113 135 l 217 622 l 110 622 l 117 658 l 224 658 l 263 842 l 304 856 l 263 658 l 461 658 l 451 622 l 256 622 l 157 158 q 151 110 151 135 q 178 43 151 65 q 263 21 204 21 q 349 36 301 21 l 342 0 q 247 -14 293 -14 m 197 -142 l 249 -142 l 238 -193 l 186 -193 l 197 -142 z "},"ṯ":{"ha":507,"x_min":1,"x_max":461,"o":"m 247 -14 q 148 18 183 -14 q 113 108 113 50 q 118 158 113 135 l 217 622 l 110 622 l 117 658 l 224 658 l 263 842 l 304 856 l 263 658 l 461 658 l 451 622 l 256 622 l 157 158 q 151 110 151 135 q 178 43 151 65 q 263 21 204 21 q 349 36 301 21 l 342 0 q 247 -14 293 -14 m 8 -106 l 378 -106 l 371 -140 l 1 -140 l 8 -106 z "},"u":{"ha":761,"x_min":68,"x_max":711,"o":"m 265 -14 q 118 33 168 -14 q 68 165 68 79 q 76 242 68 200 l 165 658 l 204 658 l 115 242 q 106 160 106 199 q 149 55 106 89 q 290 21 193 21 q 560 129 432 21 l 672 658 l 711 658 l 572 0 l 540 0 l 551 86 q 419 10 483 35 q 265 -14 354 -14 z "},"ú":{"ha":761,"x_min":68,"x_max":711,"o":"m 557 932 l 599 932 l 457 725 l 425 725 l 557 932 m 265 -14 q 118 33 168 -14 q 68 165 68 79 q 76 242 68 200 l 165 658 l 204 658 l 115 242 q 106 160 106 199 q 149 55 106 89 q 290 21 193 21 q 560 129 432 21 l 672 658 l 711 658 l 572 0 l 540 0 l 551 86 q 419 10 483 35 q 265 -14 354 -14 z "},"ŭ":{"ha":761,"x_min":68,"x_max":711,"o":"m 465 725 q 388 754 418 725 q 358 828 358 783 q 361 857 358 847 l 393 857 q 390 835 390 840 q 413 781 390 801 q 469 760 435 760 q 546 788 513 760 q 589 857 579 815 l 626 857 q 567 763 614 801 q 465 725 521 725 m 265 -14 q 118 33 168 -14 q 68 165 68 79 q 76 242 68 200 l 165 658 l 204 658 l 115 242 q 106 160 106 199 q 149 55 106 89 q 290 21 193 21 q 560 129 432 21 l 672 658 l 711 658 l 572 0 l 540 0 l 551 86 q 419 10 483 35 q 265 -14 354 -14 z "},"ǔ":{"ha":761,"x_min":68,"x_max":711,"o":"m 340 894 l 378 894 l 460 750 l 603 894 l 646 894 l 478 725 l 436 725 l 340 894 m 265 -14 q 118 33 168 -14 q 68 165 68 79 q 76 242 68 200 l 165 658 l 204 658 l 115 242 q 106 160 106 199 q 149 55 106 89 q 290 21 193 21 q 560 129 432 21 l 672 658 l 711 658 l 572 0 l 540 0 l 551 86 q 419 10 483 35 q 265 -14 354 -14 z "},"û":{"ha":761,"x_min":68,"x_max":711,"o":"m 468 894 l 510 894 l 606 725 l 568 725 l 486 869 l 343 725 l 301 725 l 468 894 m 265 -14 q 118 33 168 -14 q 68 165 68 79 q 76 242 68 200 l 165 658 l 204 658 l 115 242 q 106 160 106 199 q 149 55 106 89 q 290 21 193 21 q 560 129 432 21 l 672 658 l 711 658 l 572 0 l 540 0 l 551 86 q 419 10 483 35 q 265 -14 354 -14 z "},"ü":{"ha":761,"x_min":68,"x_max":711,"o":"m 335 815 l 383 815 l 374 767 l 325 767 l 335 815 m 553 815 l 601 815 l 592 767 l 543 767 l 553 815 m 265 -14 q 118 33 168 -14 q 68 165 68 79 q 76 242 68 200 l 165 658 l 204 658 l 115 242 q 106 160 106 199 q 149 55 106 89 q 290 21 193 21 q 560 129 432 21 l 672 658 l 711 658 l 572 0 l 540 0 l 551 86 q 419 10 483 35 q 265 -14 354 -14 z "},"ǘ":{"ha":761,"x_min":68,"x_max":711,"o":"m 568 974 l 608 974 l 486 822 l 456 822 l 568 974 m 336 774 l 385 774 l 375 725 l 326 725 l 336 774 m 554 774 l 603 774 l 593 725 l 544 725 l 554 774 m 265 -14 q 118 33 168 -14 q 68 165 68 79 q 76 242 68 200 l 165 658 l 204 658 l 115 242 q 106 160 106 199 q 149 55 106 89 q 290 21 193 21 q 560 129 432 21 l 672 658 l 711 658 l 572 0 l 540 0 l 551 86 q 419 10 483 35 q 265 -14 354 -14 z "},"ǚ":{"ha":761,"x_min":68,"x_max":711,"o":"m 349 964 l 389 964 l 476 844 l 613 964 l 653 964 l 492 822 l 450 822 l 349 964 m 328 774 l 376 774 l 367 725 l 318 725 l 328 774 m 546 774 l 593 774 l 583 725 l 536 725 l 546 774 m 265 -14 q 118 33 168 -14 q 68 165 68 79 q 76 242 68 200 l 165 658 l 204 658 l 115 242 q 106 160 106 199 q 149 55 106 89 q 290 21 193 21 q 560 129 432 21 l 672 658 l 711 658 l 572 0 l 540 0 l 551 86 q 419 10 483 35 q 265 -14 354 -14 z "},"ǜ":{"ha":761,"x_min":68,"x_max":711,"o":"m 414 974 l 454 974 l 500 822 l 469 822 l 414 974 m 333 774 l 382 774 l 372 725 l 324 725 l 333 774 m 551 774 l 600 774 l 590 725 l 542 725 l 551 774 m 265 -14 q 118 33 168 -14 q 68 165 68 79 q 76 242 68 200 l 165 658 l 204 658 l 115 242 q 106 160 106 199 q 149 55 106 89 q 290 21 193 21 q 560 129 432 21 l 672 658 l 711 658 l 572 0 l 540 0 l 551 86 q 419 10 483 35 q 265 -14 354 -14 z "},"ǖ":{"ha":761,"x_min":68,"x_max":711,"o":"m 338 997 l 707 997 l 699 963 l 329 963 l 338 997 m 347 815 l 396 815 l 386 767 l 338 767 l 347 815 m 565 815 l 614 815 l 604 767 l 556 767 l 565 815 m 265 -14 q 118 33 168 -14 q 68 165 68 79 q 76 242 68 200 l 165 658 l 204 658 l 115 242 q 106 160 106 199 q 149 55 106 89 q 290 21 193 21 q 560 129 432 21 l 672 658 l 711 658 l 572 0 l 540 0 l 551 86 q 419 10 483 35 q 265 -14 354 -14 z "},"ụ":{"ha":761,"x_min":68,"x_max":711,"o":"m 265 -14 q 118 33 168 -14 q 68 165 68 79 q 76 242 68 200 l 165 658 l 204 658 l 115 242 q 106 160 106 199 q 149 55 106 89 q 290 21 193 21 q 560 129 432 21 l 672 658 l 711 658 l 572 0 l 540 0 l 551 86 q 419 10 483 35 q 265 -14 354 -14 m 235 -142 l 286 -142 l 275 -193 l 224 -193 l 235 -142 z "},"ù":{"ha":761,"x_min":68,"x_max":711,"o":"m 393 932 l 435 932 l 478 725 l 446 725 l 393 932 m 265 -14 q 118 33 168 -14 q 68 165 68 79 q 76 242 68 200 l 165 658 l 204 658 l 115 242 q 106 160 106 199 q 149 55 106 89 q 290 21 193 21 q 560 129 432 21 l 672 658 l 711 658 l 572 0 l 540 0 l 551 86 q 419 10 483 35 q 265 -14 354 -14 z "},"ủ":{"ha":761,"x_min":68,"x_max":711,"o":"m 451 829 q 540 842 510 831 q 584 872 571 853 q 604 922 597 890 q 607 946 607 939 q 582 991 607 976 q 500 1006 557 1006 q 449 1001 476 1006 q 401 989 421 996 l 408 1024 q 457 1035 426 1031 q 510 1040 488 1040 q 608 1017 574 1040 q 642 949 642 993 q 639 922 642 942 q 592 837 626 865 q 485 803 557 808 l 468 725 l 429 725 l 451 829 m 265 -14 q 118 33 168 -14 q 68 165 68 79 q 76 242 68 200 l 165 658 l 204 658 l 115 242 q 106 160 106 199 q 149 55 106 89 q 290 21 193 21 q 560 129 432 21 l 672 658 l 711 658 l 572 0 l 540 0 l 551 86 q 419 10 483 35 q 265 -14 354 -14 z "},"ư":{"ha":882,"x_min":68,"x_max":906,"o":"m 265 -14 q 119 34 171 -14 q 68 169 68 82 q 76 242 68 203 l 165 658 l 204 658 l 115 242 q 107 167 107 200 q 151 58 107 94 q 294 21 196 21 q 560 129 432 21 l 672 658 l 711 658 l 692 565 q 809 610 768 569 q 871 744 850 650 l 906 744 q 828 585 882 632 q 685 532 775 538 l 572 0 l 540 0 l 551 86 q 419 10 483 35 q 265 -14 354 -14 z "},"ứ":{"ha":882,"x_min":68,"x_max":906,"o":"m 586 932 l 628 932 l 486 725 l 454 725 l 586 932 m 265 -14 q 119 34 171 -14 q 68 169 68 82 q 76 242 68 203 l 165 658 l 204 658 l 115 242 q 107 167 107 200 q 151 58 107 94 q 294 21 196 21 q 560 129 432 21 l 672 658 l 711 658 l 692 565 q 809 610 768 569 q 871 744 850 650 l 906 744 q 828 585 882 632 q 685 532 775 538 l 572 0 l 540 0 l 551 86 q 419 10 483 35 q 265 -14 354 -14 z "},"ự":{"ha":882,"x_min":68,"x_max":906,"o":"m 265 -14 q 119 34 171 -14 q 68 169 68 82 q 76 242 68 203 l 165 658 l 204 658 l 115 242 q 107 167 107 200 q 151 58 107 94 q 294 21 196 21 q 560 129 432 21 l 672 658 l 711 658 l 692 565 q 809 610 768 569 q 871 744 850 650 l 906 744 q 828 585 882 632 q 685 532 775 538 l 572 0 l 540 0 l 551 86 q 419 10 483 35 q 265 -14 354 -14 m 243 -142 l 294 -142 l 283 -193 l 232 -193 l 243 -142 z "},"ừ":{"ha":882,"x_min":68,"x_max":906,"o":"m 410 932 l 451 932 l 494 725 l 463 725 l 410 932 m 265 -14 q 119 34 171 -14 q 68 169 68 82 q 76 242 68 203 l 165 658 l 204 658 l 115 242 q 107 167 107 200 q 151 58 107 94 q 294 21 196 21 q 560 129 432 21 l 672 658 l 711 658 l 692 565 q 809 610 768 569 q 871 744 850 650 l 906 744 q 828 585 882 632 q 685 532 775 538 l 572 0 l 540 0 l 551 86 q 419 10 483 35 q 265 -14 354 -14 z "},"ử":{"ha":882,"x_min":68,"x_max":906,"o":"m 465 829 q 554 842 524 831 q 598 872 585 853 q 618 922 611 890 q 621 946 621 939 q 596 991 621 976 q 514 1006 571 1006 q 463 1001 490 1006 q 415 989 435 996 l 422 1024 q 471 1035 440 1031 q 524 1040 501 1040 q 622 1017 588 1040 q 656 949 656 993 q 653 922 656 942 q 606 837 640 865 q 499 803 571 808 l 482 725 l 443 725 l 465 829 m 265 -14 q 119 34 171 -14 q 68 169 68 82 q 76 242 68 203 l 165 658 l 204 658 l 115 242 q 107 167 107 200 q 151 58 107 94 q 294 21 196 21 q 560 129 432 21 l 672 658 l 711 658 l 692 565 q 809 610 768 569 q 871 744 850 650 l 906 744 q 828 585 882 632 q 685 532 775 538 l 572 0 l 540 0 l 551 86 q 419 10 483 35 q 265 -14 354 -14 z "},"ữ":{"ha":882,"x_min":68,"x_max":906,"o":"m 572 767 q 531 773 550 767 q 485 793 513 779 q 447 810 463 804 q 415 817 431 817 q 301 769 349 817 l 310 813 q 358 841 329 831 q 418 851 388 851 q 459 845 442 851 q 501 825 476 839 q 540 807 525 813 q 575 801 556 801 q 632 812 607 801 q 681 849 657 822 l 671 806 q 572 767 635 767 m 265 -14 q 119 34 171 -14 q 68 169 68 82 q 76 242 68 203 l 165 658 l 204 658 l 115 242 q 107 167 107 200 q 151 58 107 94 q 294 21 196 21 q 560 129 432 21 l 672 658 l 711 658 l 692 565 q 809 610 768 569 q 871 744 850 650 l 906 744 q 828 585 882 632 q 685 532 775 538 l 572 0 l 540 0 l 551 86 q 419 10 483 35 q 265 -14 354 -14 z "},"ű":{"ha":761,"x_min":68,"x_max":713,"o":"m 406 904 l 446 904 l 313 725 l 282 725 l 406 904 m 672 904 l 713 904 l 578 725 l 547 725 l 672 904 m 265 -14 q 118 33 168 -14 q 68 165 68 79 q 76 242 68 200 l 165 658 l 204 658 l 115 242 q 106 160 106 199 q 149 55 106 89 q 290 21 193 21 q 560 129 432 21 l 672 658 l 711 658 l 572 0 l 540 0 l 551 86 q 419 10 483 35 q 265 -14 354 -14 z "},"ū":{"ha":761,"x_min":68,"x_max":711,"o":"m 294 801 l 664 801 l 656 767 l 286 767 l 294 801 m 265 -14 q 118 33 168 -14 q 68 165 68 79 q 76 242 68 200 l 165 658 l 204 658 l 115 242 q 106 160 106 199 q 149 55 106 89 q 290 21 193 21 q 560 129 432 21 l 672 658 l 711 658 l 572 0 l 540 0 l 551 86 q 419 10 483 35 q 265 -14 354 -14 z "},"ų":{"ha":790,"x_min":68,"x_max":711,"o":"m 481 -306 q 412 -286 438 -306 q 386 -224 386 -267 q 431 -98 386 -161 q 535 0 475 -35 l 551 86 q 419 10 483 35 q 265 -14 354 -14 q 118 33 168 -14 q 68 165 68 79 q 76 242 68 200 l 165 658 l 204 658 l 115 242 q 106 160 106 199 q 149 55 106 89 q 290 21 193 21 q 560 129 432 21 l 672 658 l 711 658 l 572 0 q 462 -106 500 -47 q 424 -222 424 -164 q 438 -259 424 -247 q 488 -271 453 -271 q 558 -256 531 -271 l 551 -290 q 481 -306 521 -306 z "},"ů":{"ha":761,"x_min":68,"x_max":711,"o":"m 456 725 q 377 753 406 725 q 349 826 349 782 q 397 942 349 894 q 511 990 444 990 q 590 962 561 990 q 619 886 619 933 q 597 806 619 843 q 538 747 575 769 q 456 725 500 725 m 463 760 q 549 798 513 760 q 585 889 585 836 q 504 956 585 956 q 428 928 463 956 q 386 857 394 900 q 382 826 382 840 q 402 778 382 796 q 463 760 422 760 m 265 -14 q 118 33 168 -14 q 68 165 68 79 q 76 242 68 200 l 165 658 l 204 658 l 115 242 q 106 160 106 199 q 149 55 106 89 q 290 21 193 21 q 560 129 432 21 l 672 658 l 711 658 l 572 0 l 540 0 l 551 86 q 419 10 483 35 q 265 -14 354 -14 z "},"ũ":{"ha":761,"x_min":68,"x_max":711,"o":"m 569 767 q 528 773 547 767 q 482 793 510 779 q 444 810 460 804 q 413 817 428 817 q 299 769 346 817 l 307 813 q 356 841 326 831 q 415 851 385 851 q 456 845 439 851 q 499 825 474 839 q 538 807 522 813 q 572 801 553 801 q 629 812 604 801 q 678 849 654 822 l 668 806 q 569 767 632 767 m 265 -14 q 118 33 168 -14 q 68 165 68 79 q 76 242 68 200 l 165 658 l 204 658 l 115 242 q 106 160 106 199 q 149 55 106 89 q 290 21 193 21 q 560 129 432 21 l 672 658 l 711 658 l 572 0 l 540 0 l 551 86 q 419 10 483 35 q 265 -14 354 -14 z "},"v":{"ha":735,"x_min":144,"x_max":713,"o":"m 144 658 l 183 658 l 292 22 l 672 658 l 713 658 l 318 0 l 263 0 l 144 658 z "},"w":{"ha":975,"x_min":144,"x_max":953,"o":"m 144 658 l 185 658 l 210 28 l 513 592 l 526 658 l 560 658 l 625 28 l 914 658 l 953 658 l 644 0 l 596 0 l 536 571 l 231 0 l 176 0 l 144 658 z "},"ẃ":{"ha":975,"x_min":144,"x_max":953,"o":"m 678 932 l 719 932 l 578 725 l 546 725 l 678 932 m 144 658 l 185 658 l 210 28 l 513 592 l 526 658 l 560 658 l 625 28 l 914 658 l 953 658 l 644 0 l 596 0 l 536 571 l 231 0 l 176 0 l 144 658 z "},"ŵ":{"ha":975,"x_min":144,"x_max":953,"o":"m 582 894 l 624 894 l 719 725 l 682 725 l 600 869 l 457 725 l 415 725 l 582 894 m 144 658 l 185 658 l 210 28 l 513 592 l 526 658 l 560 658 l 625 28 l 914 658 l 953 658 l 644 0 l 596 0 l 536 571 l 231 0 l 176 0 l 144 658 z "},"ẅ":{"ha":975,"x_min":144,"x_max":953,"o":"m 453 815 l 501 815 l 492 767 l 443 767 l 453 815 m 671 815 l 719 815 l 710 767 l 661 767 l 671 815 m 144 658 l 185 658 l 210 28 l 513 592 l 526 658 l 560 658 l 625 28 l 914 658 l 953 658 l 644 0 l 596 0 l 536 571 l 231 0 l 176 0 l 144 658 z "},"ẁ":{"ha":975,"x_min":144,"x_max":953,"o":"m 488 932 l 529 932 l 572 725 l 540 725 l 488 932 m 144 658 l 185 658 l 210 28 l 513 592 l 526 658 l 560 658 l 625 28 l 914 658 l 953 658 l 644 0 l 596 0 l 536 571 l 231 0 l 176 0 l 144 658 z "},"x":{"ha":706,"x_min":6,"x_max":674,"o":"m 324 335 l 151 658 l 194 658 l 350 363 l 631 658 l 674 658 l 368 335 l 544 0 l 501 0 l 339 310 l 47 0 l 6 0 l 324 335 z "},"y":{"ha":761,"x_min":75,"x_max":711,"o":"m 228 -244 q 146 -240 192 -244 q 78 -231 100 -236 l 86 -194 q 225 -210 132 -210 q 428 -158 346 -210 q 529 -14 511 -106 l 557 114 q 426 38 488 61 q 272 14 365 14 q 127 59 179 14 q 75 193 75 104 q 83 269 75 228 l 165 658 l 204 658 l 122 269 q 113 192 113 218 q 158 83 113 118 q 300 49 203 49 q 567 157 436 49 l 672 658 l 711 658 l 568 -14 q 504 -135 554 -83 q 382 -216 454 -187 q 228 -244 310 -244 z "},"ý":{"ha":763,"x_min":75,"x_max":711,"o":"m 568 932 l 610 932 l 468 725 l 436 725 l 568 932 m 228 -244 q 146 -240 192 -244 q 78 -231 100 -236 l 86 -194 q 225 -210 132 -210 q 428 -158 346 -210 q 529 -14 511 -106 l 557 114 q 426 38 488 61 q 272 14 365 14 q 127 59 179 14 q 75 193 75 104 q 83 269 75 228 l 165 658 l 204 658 l 122 269 q 113 192 113 218 q 158 83 113 118 q 300 49 203 49 q 567 157 436 49 l 672 658 l 711 658 l 568 -14 q 504 -135 554 -83 q 382 -216 454 -187 q 228 -244 310 -244 z "},"ŷ":{"ha":763,"x_min":75,"x_max":711,"o":"m 486 894 l 528 894 l 624 725 l 586 725 l 504 869 l 361 725 l 319 725 l 486 894 m 228 -244 q 146 -240 192 -244 q 78 -231 100 -236 l 86 -194 q 225 -210 132 -210 q 428 -158 346 -210 q 529 -14 511 -106 l 557 114 q 426 38 488 61 q 272 14 365 14 q 127 59 179 14 q 75 193 75 104 q 83 269 75 228 l 165 658 l 204 658 l 122 269 q 113 192 113 218 q 158 83 113 118 q 300 49 203 49 q 567 157 436 49 l 672 658 l 711 658 l 568 -14 q 504 -135 554 -83 q 382 -216 454 -187 q 228 -244 310 -244 z "},"ÿ":{"ha":763,"x_min":75,"x_max":711,"o":"m 361 815 l 410 815 l 400 767 l 351 767 l 361 815 m 579 815 l 628 815 l 618 767 l 569 767 l 579 815 m 228 -244 q 146 -240 192 -244 q 78 -231 100 -236 l 86 -194 q 225 -210 132 -210 q 428 -158 346 -210 q 529 -14 511 -106 l 557 114 q 426 38 488 61 q 272 14 365 14 q 127 59 179 14 q 75 193 75 104 q 83 269 75 228 l 165 658 l 204 658 l 122 269 q 113 192 113 218 q 158 83 113 118 q 300 49 203 49 q 567 157 436 49 l 672 658 l 711 658 l 568 -14 q 504 -135 554 -83 q 382 -216 454 -187 q 228 -244 310 -244 z "},"ẏ":{"ha":763,"x_min":75,"x_max":711,"o":"m 464 815 l 513 815 l 503 767 l 454 767 l 464 815 m 228 -244 q 146 -240 192 -244 q 78 -231 100 -236 l 86 -194 q 225 -210 132 -210 q 428 -158 346 -210 q 529 -14 511 -106 l 557 114 q 426 38 488 61 q 272 14 365 14 q 127 59 179 14 q 75 193 75 104 q 83 269 75 228 l 165 658 l 204 658 l 122 269 q 113 192 113 218 q 158 83 113 118 q 300 49 203 49 q 567 157 436 49 l 672 658 l 711 658 l 568 -14 q 504 -135 554 -83 q 382 -216 454 -187 q 228 -244 310 -244 z "},"ỵ":{"ha":763,"x_min":75,"x_max":711,"o":"m 228 -244 q 146 -240 192 -244 q 78 -231 100 -236 l 86 -194 q 225 -210 132 -210 q 428 -158 346 -210 q 529 -14 511 -106 l 557 114 q 426 38 488 61 q 272 14 365 14 q 127 59 179 14 q 75 193 75 104 q 83 269 75 228 l 165 658 l 204 658 l 122 269 q 113 192 113 218 q 158 83 113 118 q 300 49 203 49 q 567 157 436 49 l 672 658 l 711 658 l 568 -14 q 504 -135 554 -83 q 382 -216 454 -187 q 228 -244 310 -244 m 582 -114 l 633 -114 l 622 -165 l 571 -165 l 582 -114 z "},"ỳ":{"ha":763,"x_min":75,"x_max":711,"o":"m 411 932 l 453 932 l 496 725 l 464 725 l 411 932 m 228 -244 q 146 -240 192 -244 q 78 -231 100 -236 l 86 -194 q 225 -210 132 -210 q 428 -158 346 -210 q 529 -14 511 -106 l 557 114 q 426 38 488 61 q 272 14 365 14 q 127 59 179 14 q 75 193 75 104 q 83 269 75 228 l 165 658 l 204 658 l 122 269 q 113 192 113 218 q 158 83 113 118 q 300 49 203 49 q 567 157 436 49 l 672 658 l 711 658 l 568 -14 q 504 -135 554 -83 q 382 -216 454 -187 q 228 -244 310 -244 z "},"ỷ":{"ha":763,"x_min":75,"x_max":711,"o":"m 471 829 q 560 842 529 831 q 603 872 590 853 q 624 922 617 890 q 626 946 626 939 q 601 991 626 976 q 519 1006 576 1006 q 468 1001 496 1006 q 421 989 440 996 l 428 1024 q 476 1035 446 1031 q 529 1040 507 1040 q 627 1017 593 1040 q 661 949 661 993 q 658 922 661 942 q 611 837 646 865 q 504 803 576 808 l 488 725 l 449 725 l 471 829 m 228 -244 q 146 -240 192 -244 q 78 -231 100 -236 l 86 -194 q 225 -210 132 -210 q 428 -158 346 -210 q 529 -14 511 -106 l 557 114 q 426 38 488 61 q 272 14 365 14 q 127 59 179 14 q 75 193 75 104 q 83 269 75 228 l 165 658 l 204 658 l 122 269 q 113 192 113 218 q 158 83 113 118 q 300 49 203 49 q 567 157 436 49 l 672 658 l 711 658 l 568 -14 q 504 -135 554 -83 q 382 -216 454 -187 q 228 -244 310 -244 z "},"ỹ":{"ha":763,"x_min":75,"x_max":711,"o":"m 567 767 q 526 773 544 767 q 479 793 507 779 q 441 810 457 804 q 410 817 425 817 q 296 769 343 817 l 304 813 q 353 841 324 831 q 413 851 382 851 q 453 845 436 851 q 496 825 471 839 q 535 807 519 813 q 569 801 550 801 q 626 812 601 801 q 675 849 651 822 l 665 806 q 567 767 629 767 m 228 -244 q 146 -240 192 -244 q 78 -231 100 -236 l 86 -194 q 225 -210 132 -210 q 428 -158 346 -210 q 529 -14 511 -106 l 557 114 q 426 38 488 61 q 272 14 365 14 q 127 59 179 14 q 75 193 75 104 q 83 269 75 228 l 165 658 l 204 658 l 122 269 q 113 192 113 218 q 158 83 113 118 q 300 49 203 49 q 567 157 436 49 l 672 658 l 711 658 l 568 -14 q 504 -135 554 -83 q 382 -216 454 -187 q 228 -244 310 -244 z "},"z":{"ha":658,"x_min":6,"x_max":628,"o":"m 11 32 l 579 622 l 158 622 l 165 658 l 628 658 l 621 625 l 56 36 l 504 36 l 497 0 l 6 0 l 11 32 z "},"ź":{"ha":658,"x_min":6,"x_max":628,"o":"m 543 932 l 585 932 l 443 725 l 411 725 l 543 932 m 11 32 l 579 622 l 158 622 l 165 658 l 628 658 l 621 625 l 56 36 l 504 36 l 497 0 l 6 0 l 11 32 z "},"ž":{"ha":658,"x_min":6,"x_max":628,"o":"m 290 894 l 328 894 l 410 750 l 553 894 l 596 894 l 428 725 l 386 725 l 290 894 m 11 32 l 579 622 l 158 622 l 165 658 l 628 658 l 621 625 l 56 36 l 504 36 l 497 0 l 6 0 l 11 32 z "},"ż":{"ha":658,"x_min":6,"x_max":628,"o":"m 424 815 l 472 815 l 463 767 l 414 767 l 424 815 m 11 32 l 579 622 l 158 622 l 165 658 l 628 658 l 621 625 l 56 36 l 504 36 l 497 0 l 6 0 l 11 32 z "},"ẓ":{"ha":658,"x_min":6,"x_max":628,"o":"m 11 32 l 579 622 l 158 622 l 165 658 l 628 658 l 621 625 l 56 36 l 504 36 l 497 0 l 6 0 l 11 32 m 221 -142 l 272 -142 l 261 -193 l 210 -193 l 221 -142 z "},"ﬁ":{"ha":660,"x_min":82,"x_max":628,"o":"m 214 622 l 110 622 l 117 658 l 221 658 l 246 775 q 331 922 267 871 q 496 972 396 972 q 628 950 578 972 l 619 914 q 568 931 601 924 q 500 938 535 938 q 356 898 408 938 q 286 778 304 858 l 260 658 l 610 658 l 471 0 l 432 0 l 564 622 l 253 622 l 121 0 l 82 0 l 214 622 z "},"ﬂ":{"ha":660,"x_min":82,"x_max":672,"o":"m 214 622 l 110 622 l 117 658 l 221 658 l 246 775 q 496 972 289 972 q 633 949 574 972 l 672 949 l 471 0 l 432 0 l 564 622 l 253 622 l 121 0 l 82 0 l 214 622 m 571 658 l 625 913 q 571 931 606 925 q 500 938 536 938 q 355 898 407 938 q 286 778 303 858 l 260 658 l 571 658 z "},"ª":{"ha":485,"x_min":136,"x_max":493,"o":"m 249 528 q 168 548 200 528 q 136 610 136 568 q 139 632 136 615 q 192 717 151 689 q 304 746 232 746 l 444 746 l 450 775 q 456 817 456 796 q 432 861 456 847 q 349 875 408 875 q 233 856 292 875 l 242 890 q 365 908 293 908 q 493 818 493 908 q 489 781 493 801 l 438 536 l 404 536 l 411 586 q 249 528 343 528 m 263 561 q 346 576 310 561 q 418 624 382 590 l 438 713 l 296 713 q 213 693 240 713 q 175 632 185 674 q 172 613 172 618 q 194 573 172 585 q 263 561 215 561 z "},"º":{"ha":503,"x_min":150,"x_max":500,"o":"m 285 528 q 184 560 218 528 q 150 654 150 593 q 157 718 150 689 q 367 908 197 908 q 466 876 432 908 q 500 782 500 843 q 493 718 500 747 q 422 576 472 624 q 285 528 372 528 m 293 563 q 402 601 364 563 q 457 718 440 639 q 465 785 465 756 q 440 851 465 829 q 358 874 415 874 q 248 835 288 874 q 192 718 208 797 q 185 654 185 689 q 210 585 185 608 q 293 563 235 563 z "},"ⁿ":{"ha":506,"x_min":126,"x_max":514,"o":"m 203 900 l 236 900 l 231 853 q 396 908 304 908 q 514 817 514 908 q 510 779 514 800 l 458 536 l 422 536 l 471 765 q 476 811 476 789 q 453 860 476 846 q 376 875 431 875 q 222 815 296 875 l 164 536 l 126 536 l 203 900 z "},"Δ":{"ha":913,"x_min":6,"x_max":757,"o":"m 11 31 l 535 894 l 599 894 l 757 29 l 751 0 l 6 0 l 11 31 m 715 35 l 564 872 l 57 35 l 715 35 z "},"Ω":{"ha":1075,"x_min":15,"x_max":1032,"o":"m 22 35 l 290 35 q 151 187 203 97 q 99 392 99 276 q 111 501 99 443 q 213 738 139 632 q 403 904 288 843 q 664 965 518 965 q 863 920 779 965 q 989 796 946 875 q 1032 614 1032 717 q 1019 501 1032 560 q 886 224 986 343 q 643 35 786 106 l 911 35 l 904 0 l 569 0 l 575 32 q 845 233 740 114 q 982 501 950 353 q 994 613 994 560 q 907 844 994 758 q 657 931 819 931 q 426 875 532 931 q 247 722 319 819 q 149 501 175 624 q 136 389 136 443 q 191 185 136 275 q 356 32 246 94 l 350 0 l 15 0 l 22 35 z "},"μ":{"ha":768,"x_min":-10,"x_max":718,"o":"m 172 658 l 211 658 l 122 242 q 114 167 114 200 q 159 56 114 92 q 301 21 204 21 q 567 129 439 21 l 679 658 l 718 658 l 579 0 l 547 0 l 558 86 q 426 10 490 35 q 272 -14 361 -14 q 156 13 204 -14 q 90 90 107 40 l 29 -199 l -10 -199 l 172 658 z "},"π":{"ha":900,"x_min":90,"x_max":786,"o":"m 658 -14 q 536 100 536 -14 q 543 158 536 121 l 642 622 l 261 622 l 129 0 l 90 0 l 222 622 l 124 622 l 131 658 l 786 658 l 779 622 l 681 622 l 582 158 q 574 99 574 125 q 597 40 574 58 q 675 21 621 21 q 760 36 713 21 l 753 0 q 658 -14 704 -14 z "},"ก":{"ha":824,"x_min":60,"x_max":749,"o":"m 138 371 q 188 460 149 422 q 285 513 226 497 l 121 547 l 140 636 q 295 728 203 692 q 497 764 388 764 q 749 578 749 764 q 740 503 749 543 l 635 0 l 596 0 l 703 507 q 711 581 711 549 q 657 694 711 660 q 489 729 603 729 q 314 699 399 729 q 176 622 229 669 l 165 574 l 329 539 l 319 493 q 224 450 261 482 q 176 367 186 418 l 99 0 l 60 0 l 138 371 z "},"ถ":{"ha":824,"x_min":81,"x_max":750,"o":"m 171 0 q 103 22 126 0 q 81 83 81 44 q 85 119 81 101 l 138 371 q 188 460 149 422 q 285 513 226 497 l 121 547 l 140 636 q 298 727 201 690 q 504 764 394 764 q 750 581 750 764 q 740 503 750 551 l 635 0 l 596 0 l 703 507 q 711 581 711 549 q 659 694 711 660 q 496 729 607 729 q 317 699 404 729 q 176 622 229 668 l 165 574 l 329 539 l 319 493 q 224 449 263 481 q 176 367 186 417 l 124 119 q 119 88 119 101 q 135 49 119 61 q 185 36 150 36 l 269 36 l 263 0 l 171 0 z "},"ภ":{"ha":883,"x_min":6,"x_max":810,"o":"m 13 36 l 76 36 q 167 119 149 36 l 219 371 q 344 513 244 485 l 181 547 l 200 636 q 358 727 261 690 q 564 764 454 764 q 810 582 810 764 q 800 503 810 551 l 694 0 l 656 0 l 763 507 q 772 583 772 558 q 720 695 772 661 q 556 729 668 729 q 375 699 461 729 q 236 622 289 669 l 225 574 l 389 539 l 379 493 q 297 450 324 478 q 258 367 269 422 l 206 119 q 161 32 194 64 q 76 0 128 0 l 6 0 l 13 36 z "},"ฤ":{"ha":831,"x_min":81,"x_max":756,"o":"m 710 507 q 718 579 718 547 q 664 694 718 660 q 496 729 610 729 q 317 699 404 729 q 176 622 229 668 l 165 574 l 329 539 l 319 493 q 224 449 263 481 q 176 367 186 417 l 124 119 q 119 86 119 101 q 135 48 119 60 q 185 36 150 36 l 269 36 l 263 0 l 171 0 q 103 22 126 0 q 81 83 81 44 q 85 119 81 101 l 138 371 q 188 460 149 422 q 285 513 226 497 l 121 547 l 140 636 q 298 727 201 690 q 504 764 394 764 q 756 578 756 764 q 747 503 756 543 l 593 -222 l 554 -222 l 710 507 z "},"ฦ":{"ha":890,"x_min":6,"x_max":815,"o":"m 769 507 q 778 579 778 547 q 724 694 778 660 q 556 729 669 729 q 376 699 464 729 q 236 622 289 668 l 225 574 l 389 539 l 379 493 q 297 450 324 478 q 258 367 269 422 l 206 119 q 76 0 181 0 l 6 0 l 13 36 l 76 36 q 135 56 114 36 q 167 119 157 76 l 219 371 q 344 513 244 485 l 181 547 l 200 636 q 358 727 261 690 q 564 764 454 764 q 815 578 815 764 q 807 503 815 543 l 653 -222 l 614 -222 l 769 507 z "},"ฎ":{"ha":890,"x_min":6,"x_max":815,"o":"m 142 -233 q 396 -176 268 -176 q 613 -233 528 -176 l 769 507 q 778 579 778 547 q 724 694 778 658 q 556 729 669 729 q 376 699 464 729 q 236 622 289 668 l 225 574 l 389 539 l 379 493 q 297 450 324 478 q 258 367 269 422 l 206 119 q 76 0 181 0 l 6 0 l 13 36 l 76 36 q 136 56 115 36 q 167 119 157 76 l 219 371 q 344 513 244 485 l 181 547 l 200 636 q 358 727 261 690 q 564 764 454 764 q 815 578 815 764 q 807 503 815 543 l 643 -269 l 607 -269 q 507 -225 557 -239 q 388 -211 457 -211 q 263 -224 319 -211 q 133 -269 207 -237 l 142 -233 z "},"ฏ":{"ha":890,"x_min":6,"x_max":815,"o":"m 492 -269 q 375 -211 410 -269 q 319 -253 356 -237 q 233 -268 282 -268 l 128 -268 l 142 -232 l 243 -232 q 314 -219 285 -232 q 372 -174 343 -207 l 388 -174 q 497 -235 418 -235 q 592 -206 558 -235 q 639 -110 625 -178 l 769 507 q 778 576 778 547 q 723 694 778 658 q 556 729 668 729 q 376 699 464 729 q 236 622 289 668 l 225 574 l 389 539 l 379 493 q 297 450 324 478 q 258 367 269 422 l 206 119 q 161 32 194 64 q 76 0 128 0 l 6 0 l 13 36 l 76 36 q 167 119 149 36 l 219 371 q 344 513 244 485 l 181 547 l 200 636 q 358 727 261 690 q 564 764 454 764 q 815 578 815 764 q 807 503 815 543 l 676 -111 q 613 -231 660 -192 q 492 -269 565 -269 z "},"ญ":{"ha":1331,"x_min":81,"x_max":1300,"o":"m 840 -69 q 701 -54 765 -69 q 596 -12 636 -39 l 603 25 q 711 -19 647 -4 q 847 -35 775 -35 q 1059 3 993 -35 q 1125 118 1125 42 q 1094 171 1125 153 q 1001 126 1053 140 q 879 111 950 111 q 700 160 760 111 q 640 304 640 208 q 650 390 640 347 l 675 507 q 686 592 686 558 q 638 697 686 665 q 482 729 590 729 q 311 699 392 729 q 176 622 231 669 l 165 574 l 329 539 l 319 493 q 224 449 263 481 q 176 367 186 417 l 124 119 q 119 86 119 101 q 179 36 119 36 l 269 36 l 263 0 l 171 0 q 103 22 126 0 q 81 83 81 44 q 85 119 81 101 l 138 371 q 188 460 149 422 q 285 513 226 497 l 121 547 l 140 636 q 292 728 203 692 q 490 764 382 764 q 667 719 613 764 q 722 589 722 675 q 713 503 722 546 l 686 378 q 678 301 678 336 q 728 184 678 222 q 886 146 778 146 q 1084 203 1011 146 q 1182 378 1157 260 l 1261 750 l 1300 750 l 1224 390 q 1186 278 1210 322 q 1125 197 1163 233 q 1164 119 1164 172 q 1160 88 1164 104 q 1067 -28 1143 13 q 840 -69 992 -69 z "},"ข":{"ha":751,"x_min":60,"x_max":721,"o":"m 286 -14 q 118 31 176 -14 q 60 165 60 76 q 68 238 60 199 l 101 393 q 137 464 108 428 q 215 553 165 500 q 278 623 258 599 q 303 668 299 647 q 306 689 306 685 q 297 708 306 703 q 265 714 288 714 l 157 714 l 168 750 l 281 750 q 328 735 313 750 q 343 694 343 721 q 340 669 343 686 q 310 610 333 640 q 243 535 288 581 q 169 451 193 482 q 138 383 144 419 l 104 225 q 97 163 97 196 q 146 55 97 89 q 294 21 194 21 q 477 70 406 21 q 571 225 549 119 l 682 750 l 721 750 l 613 238 q 506 48 585 110 q 286 -14 426 -14 z "},"ฃ":{"ha":728,"x_min":63,"x_max":697,"o":"m 276 -14 q 63 158 63 -14 q 72 238 63 186 l 103 379 q 139 449 110 414 q 219 535 168 485 q 297 621 272 589 q 322 682 322 653 q 286 714 322 714 q 236 703 263 714 q 188 675 210 693 l 176 624 l 138 624 l 164 750 l 203 750 l 194 711 q 297 750 249 750 q 344 734 328 750 q 361 690 361 718 q 358 668 361 685 q 324 601 351 635 q 249 521 297 568 q 171 435 196 467 q 139 371 146 404 l 108 225 q 100 157 100 188 q 146 53 100 85 q 285 21 192 21 q 547 225 504 21 l 658 750 l 697 750 l 589 238 q 485 48 561 110 q 276 -14 410 -14 z "},"ช":{"ha":765,"x_min":60,"x_max":738,"o":"m 293 -14 q 121 32 182 -14 q 60 168 60 78 q 68 238 60 200 l 101 393 q 137 464 108 428 q 215 553 165 500 q 278 623 258 599 q 303 668 299 647 q 306 689 306 685 q 297 708 306 703 q 265 714 288 714 l 157 714 l 168 750 l 281 750 q 328 735 313 750 q 343 693 343 719 q 340 669 343 686 q 313 613 335 642 q 246 538 290 585 q 170 451 196 485 q 138 383 144 418 l 104 225 q 97 167 97 190 q 301 21 97 21 q 585 225 542 21 l 607 328 q 617 406 617 368 q 587 484 617 460 q 489 508 557 508 l 451 508 l 464 544 l 501 544 q 601 565 564 544 q 658 622 639 585 q 690 721 678 658 l 699 764 l 738 764 l 729 721 q 681 588 713 633 q 578 524 649 542 q 638 478 619 507 q 656 410 656 450 q 646 329 656 381 l 626 238 q 517 49 600 111 q 293 -14 433 -14 z "},"ซ":{"ha":756,"x_min":64,"x_max":728,"o":"m 290 -14 q 122 31 181 -14 q 64 165 64 76 q 72 238 64 199 l 103 379 q 138 450 110 414 q 219 538 167 486 q 297 620 271 588 q 322 682 322 653 q 286 714 322 714 q 236 703 263 714 q 188 675 210 693 l 176 624 l 138 624 l 164 750 l 203 750 l 194 711 q 297 750 249 750 q 344 734 328 750 q 361 690 361 718 q 358 668 361 685 q 324 601 351 635 q 249 521 297 568 q 171 435 196 467 q 139 371 146 404 l 108 225 q 101 163 101 196 q 151 54 101 88 q 299 21 201 21 q 575 225 532 21 l 597 328 q 608 410 608 379 q 578 486 608 464 q 479 508 549 508 l 442 508 l 454 544 l 492 544 q 621 587 581 544 q 681 721 661 629 l 689 764 l 728 764 l 719 721 q 669 590 701 638 q 568 524 638 542 q 629 481 611 507 q 647 415 647 454 q 636 329 647 381 l 617 238 q 510 48 589 110 q 290 -14 431 -14 z "},"ค":{"ha":810,"x_min":33,"x_max":736,"o":"m 140 508 q 251 702 169 640 q 489 764 333 764 q 736 582 736 764 q 728 508 736 549 l 621 0 l 582 0 l 692 518 q 699 582 699 557 q 646 694 699 658 q 482 729 593 729 q 281 678 356 729 q 182 518 206 628 l 136 307 q 343 375 243 375 l 438 375 l 433 339 l 335 339 q 233 322 282 339 q 129 269 185 304 l 72 0 l 33 0 l 140 508 z "},"ฅ":{"ha":810,"x_min":33,"x_max":751,"o":"m 158 594 q 228 721 176 678 q 353 764 279 764 q 425 747 396 764 q 471 693 454 731 q 547 747 501 729 q 638 764 592 764 q 722 734 692 764 q 751 647 751 704 q 746 594 751 621 l 621 0 l 582 0 l 707 594 q 714 654 714 632 q 692 711 714 693 q 622 729 671 729 q 544 710 583 729 q 476 656 506 692 l 454 656 q 415 711 439 693 q 354 729 392 729 q 250 696 288 729 q 197 594 213 663 l 136 307 q 343 375 243 375 l 438 375 l 433 339 l 335 339 q 233 322 282 339 q 129 269 185 304 l 72 0 l 33 0 l 158 594 z "},"ศ":{"ha":850,"x_min":33,"x_max":847,"o":"m 140 508 q 253 702 168 640 q 489 764 338 764 q 610 750 563 764 l 847 750 l 838 714 l 675 714 q 736 581 736 669 q 728 508 736 549 l 621 0 l 582 0 l 692 518 q 700 585 700 556 q 648 694 700 660 q 482 729 596 729 q 279 678 353 729 q 182 518 206 626 l 136 307 q 343 375 243 375 l 438 375 l 433 339 l 335 339 q 233 322 281 339 q 129 269 186 306 l 72 0 l 33 0 l 140 508 z "},"ด":{"ha":860,"x_min":67,"x_max":781,"o":"m 282 -14 q 67 222 67 -14 q 85 378 67 293 q 229 664 125 564 q 524 764 333 764 q 718 706 656 764 q 781 553 781 649 q 772 479 781 517 l 671 0 l 632 0 l 735 489 q 742 554 742 526 q 688 682 742 635 q 515 729 635 729 q 251 637 344 729 q 122 378 158 544 q 103 221 103 283 q 152 69 103 117 q 301 21 201 21 q 397 32 360 21 l 390 -4 q 282 -14 347 -14 z "},"ต":{"ha":860,"x_min":67,"x_max":806,"o":"m 282 -14 q 122 45 178 -14 q 67 224 67 104 q 85 378 67 293 q 198 665 125 565 q 374 764 271 764 q 451 747 421 764 q 508 693 481 731 q 594 747 547 729 q 688 764 642 764 q 774 738 743 764 q 806 658 806 713 q 800 608 806 632 l 671 0 l 632 0 l 761 608 q 767 660 767 635 q 746 713 767 697 q 675 729 725 729 q 591 710 635 729 q 515 656 547 692 l 493 656 q 442 712 469 694 q 371 729 415 729 q 219 635 282 729 q 122 378 157 542 q 103 222 103 283 q 152 69 103 117 q 301 21 201 21 q 397 32 360 21 l 390 -4 q 282 -14 347 -14 z "},"ท":{"ha":797,"x_min":33,"x_max":724,"o":"m 192 750 l 224 750 l 208 643 q 355 733 282 703 q 524 764 428 764 q 672 719 621 764 q 724 585 724 674 q 714 500 724 544 l 608 0 l 569 0 l 676 508 q 686 586 686 557 q 643 694 686 658 q 507 729 600 729 q 348 696 422 729 q 199 600 274 663 l 72 0 l 33 0 l 192 750 z "},"ฑ":{"ha":786,"x_min":50,"x_max":718,"o":"m 126 365 q 159 436 133 400 q 231 529 185 472 q 299 619 276 585 q 322 683 322 654 q 286 714 322 714 q 236 703 263 714 q 188 675 210 693 l 176 624 l 138 624 l 164 750 l 203 750 l 194 711 q 297 750 249 750 q 340 738 324 750 q 358 706 356 726 q 549 764 454 764 q 678 727 638 764 q 718 614 718 690 q 704 506 718 575 l 597 0 l 558 0 l 667 514 q 681 618 681 581 q 647 703 681 676 q 535 729 614 729 q 443 713 492 729 q 358 668 394 697 q 328 601 351 636 q 263 514 306 567 q 195 428 219 464 q 164 357 171 392 l 89 0 l 50 0 l 126 365 z "},"น":{"ha":797,"x_min":75,"x_max":767,"o":"m 268 -14 q 75 160 75 -14 q 86 250 75 197 l 192 750 l 231 750 l 122 242 q 113 163 113 190 q 155 56 113 92 q 289 21 197 21 q 600 150 447 21 l 728 750 l 767 750 l 608 0 l 576 0 l 592 107 q 442 17 519 49 q 268 -14 364 -14 z "},"ม":{"ha":797,"x_min":33,"x_max":767,"o":"m 358 -14 q 202 17 263 -14 q 94 107 142 49 l 65 0 l 33 0 l 192 750 l 231 750 l 103 150 q 207 53 147 86 q 354 21 267 21 q 531 75 467 21 q 619 242 596 129 l 728 750 l 767 750 l 661 250 q 557 51 632 115 q 358 -14 482 -14 z "},"ฌ":{"ha":1311,"x_min":81,"x_max":1281,"o":"m 886 -14 q 738 17 794 -14 q 636 107 682 47 l 607 0 l 575 0 l 682 507 q 692 588 692 550 q 642 697 692 664 q 482 729 593 729 q 311 699 392 729 q 176 622 231 669 l 165 574 l 329 539 l 319 493 q 224 449 263 481 q 176 367 186 417 l 124 119 q 119 86 119 101 q 135 49 119 61 q 185 36 150 36 l 269 36 l 263 0 l 171 0 q 103 22 126 0 q 81 83 81 44 q 85 119 81 101 l 138 371 q 188 460 149 422 q 285 513 226 497 l 121 547 l 140 636 q 292 728 203 692 q 490 764 382 764 q 672 718 615 764 q 729 586 729 672 q 719 503 729 543 l 644 150 q 742 53 689 86 q 882 21 796 21 q 1049 73 990 21 q 1133 242 1108 125 l 1242 750 l 1281 750 l 1175 250 q 1078 49 1146 111 q 886 -14 1010 -14 z "},"ณ":{"ha":1311,"x_min":81,"x_max":1281,"o":"m 796 -14 q 617 156 617 -14 q 628 250 617 194 l 682 507 q 692 588 692 550 q 642 697 692 664 q 482 729 593 729 q 311 699 392 729 q 176 622 231 669 l 165 574 l 329 539 l 319 493 q 224 449 263 481 q 176 367 186 417 l 124 119 q 119 86 119 101 q 135 48 119 60 q 185 36 150 36 l 269 36 l 263 0 l 171 0 q 103 22 126 0 q 81 83 81 44 q 85 119 81 101 l 138 371 q 188 460 149 422 q 285 513 226 497 l 121 547 l 140 636 q 292 728 203 692 q 490 764 382 764 q 672 718 615 764 q 729 586 729 672 q 719 503 729 543 l 664 242 q 653 153 653 189 q 691 53 653 86 q 817 21 729 21 q 968 55 896 21 q 1114 150 1040 89 l 1242 750 l 1281 750 l 1122 0 l 1090 0 l 1106 107 q 960 17 1033 49 q 796 -14 886 -14 z "},"ฒ":{"ha":1340,"x_min":67,"x_max":1310,"o":"m 282 -14 q 67 222 67 -14 q 85 378 67 293 q 194 666 126 568 q 367 764 263 764 q 439 749 413 764 q 494 693 465 733 q 579 747 538 731 q 667 764 621 764 q 778 660 778 764 q 772 608 778 635 l 674 150 q 776 53 724 86 q 911 21 829 21 q 1077 74 1017 21 q 1163 242 1138 126 l 1271 750 l 1310 750 l 1204 250 q 1106 49 1175 113 q 915 -14 1038 -14 q 769 17 826 -14 q 665 107 713 47 l 636 0 l 604 0 l 733 608 q 739 656 739 632 q 717 713 739 696 q 651 729 696 729 q 573 710 613 729 q 501 656 533 692 l 479 656 q 431 713 454 696 q 364 729 407 729 q 122 378 199 729 q 103 224 103 285 q 153 69 103 117 q 301 21 203 21 q 397 32 360 21 l 390 -4 q 282 -14 347 -14 z "},"ฆ":{"ha":786,"x_min":22,"x_max":756,"o":"m 347 -14 q 193 17 251 -14 q 83 107 135 47 l 54 0 l 22 0 l 99 365 q 136 438 106 399 q 217 528 167 476 q 291 611 267 581 q 321 668 315 642 q 322 683 322 674 q 314 706 322 699 q 286 714 306 714 q 236 703 263 714 q 188 675 210 693 l 176 624 l 138 624 l 164 750 l 203 750 l 194 711 q 297 750 249 750 q 344 734 326 750 q 361 690 361 718 q 358 668 361 685 q 321 596 349 632 q 244 510 293 560 q 169 424 196 458 q 136 357 143 390 l 92 150 q 199 54 140 88 q 343 21 258 21 q 520 75 456 21 q 608 242 585 129 l 717 750 l 756 750 l 650 250 q 547 51 622 117 q 347 -14 472 -14 z "},"ธ":{"ha":708,"x_min":26,"x_max":675,"o":"m 279 -14 q 140 0 206 -14 q 26 35 75 14 l 88 324 l 126 324 l 69 58 q 283 21 175 21 q 464 63 397 21 q 551 199 531 106 q 560 268 560 239 q 538 343 560 317 q 478 383 515 369 q 361 417 442 396 l 328 425 q 224 453 264 439 q 157 494 185 467 q 129 565 129 521 q 133 601 129 581 q 232 728 154 692 q 450 764 310 764 q 572 753 507 764 q 675 728 638 743 l 667 692 q 565 719 625 708 q 449 729 506 729 q 255 702 324 729 q 171 601 186 675 q 167 572 167 585 q 189 516 167 538 q 249 483 211 494 q 358 454 286 471 l 392 446 q 503 412 463 428 q 570 363 543 396 q 597 269 597 329 q 589 199 597 239 q 488 37 565 88 q 279 -14 410 -14 z "},"ร":{"ha":694,"x_min":32,"x_max":632,"o":"m 251 -14 q 32 19 108 -14 l 40 56 q 256 21 128 21 q 447 56 378 21 q 533 182 515 92 q 538 224 538 206 q 515 290 538 265 q 457 328 492 314 q 338 369 422 342 q 226 409 267 392 q 156 459 186 426 q 125 543 125 492 q 129 583 125 563 q 222 721 149 678 q 435 764 294 764 q 540 755 488 764 q 632 731 593 746 l 625 694 q 433 729 539 729 q 247 696 310 729 q 167 583 185 663 q 163 543 163 561 q 184 481 163 506 q 247 438 206 456 q 367 396 289 419 q 476 357 435 375 q 547 306 518 339 q 576 222 576 274 q 572 183 576 204 q 471 30 549 74 q 251 -14 393 -14 z "},"จ":{"ha":753,"x_min":79,"x_max":690,"o":"m 281 -14 q 215 -4 236 -14 l 157 353 l 79 353 l 90 389 l 192 389 l 251 21 q 289 18 276 18 q 429 57 360 18 q 554 179 499 96 q 636 386 610 263 q 653 524 653 464 q 597 678 653 628 q 422 729 542 729 q 288 721 358 729 q 161 694 217 713 l 168 731 q 419 764 274 764 q 624 703 558 764 q 690 524 690 643 q 674 386 690 461 q 527 89 632 192 q 281 -14 422 -14 z "},"ว":{"ha":661,"x_min":8,"x_max":597,"o":"m 182 -14 q 8 19 79 -14 l 17 56 q 181 21 93 21 q 366 59 296 21 q 476 173 436 97 q 542 375 515 249 q 561 526 561 464 q 505 679 561 629 q 322 729 449 729 q 153 694 236 729 l 160 731 q 239 756 201 749 q 333 764 276 764 q 533 704 468 764 q 597 522 597 644 q 579 375 597 463 q 508 160 551 243 q 388 31 465 76 q 182 -14 310 -14 z "},"ง":{"ha":754,"x_min":114,"x_max":697,"o":"m 301 -14 q 215 -4 235 -14 l 114 511 l 154 511 l 251 21 q 293 18 279 18 q 513 116 424 18 q 640 403 601 214 q 660 556 660 497 q 618 676 660 639 q 481 713 576 713 l 440 713 l 447 750 l 486 750 q 647 703 597 750 q 697 557 697 656 q 678 404 697 494 q 532 89 633 192 q 301 -14 431 -14 z "},"ฐ":{"ha":796,"x_min":-19,"x_max":793,"o":"m 281 -14 q 215 -4 236 -14 l 157 353 l 79 353 l 90 389 l 192 389 l 251 21 q 289 18 276 18 q 429 57 360 18 q 554 179 499 96 q 636 386 610 263 q 653 524 653 464 q 597 678 653 628 q 422 729 542 729 q 288 721 358 729 q 161 694 217 713 l 168 731 q 419 764 274 764 q 535 750 479 764 l 793 750 l 783 714 l 607 714 q 690 522 690 653 q 674 386 690 461 q 527 89 632 192 q 281 -14 422 -14 m 344 -269 q 270 -253 301 -269 q 228 -211 239 -237 q 172 -253 208 -237 q 86 -268 135 -268 l -19 -268 l -6 -232 l 96 -232 q 167 -219 138 -232 q 225 -174 196 -207 l 240 -174 q 281 -219 256 -204 q 350 -235 306 -235 q 446 -206 415 -235 q 492 -107 476 -176 l 499 -78 l 538 -78 l 531 -107 q 467 -231 513 -193 q 344 -269 421 -269 z "},"ฉ":{"ha":769,"x_min":57,"x_max":696,"o":"m 246 -14 q 104 28 151 -14 q 57 156 57 69 q 68 250 57 194 l 103 417 l 142 417 l 104 242 q 93 154 93 189 q 133 53 93 86 q 267 21 174 21 q 425 55 351 21 q 572 150 499 89 l 649 507 q 658 583 658 558 q 603 695 658 661 q 421 729 547 729 q 285 718 360 729 q 151 689 210 707 l 158 725 q 290 753 213 742 q 439 764 368 764 q 631 719 567 764 q 696 582 696 675 q 688 507 696 549 l 581 0 l 549 0 l 564 107 q 417 17 492 49 q 246 -14 342 -14 z "},"ล":{"ha":792,"x_min":40,"x_max":721,"o":"m 239 -14 q 93 24 146 -14 q 40 139 40 63 q 47 197 40 163 q 147 359 69 304 q 371 414 224 414 l 651 414 l 671 504 q 683 599 683 569 q 638 699 683 668 q 479 729 592 729 q 232 694 342 729 l 239 731 q 490 764 344 764 q 666 724 611 764 q 721 599 721 685 q 710 507 721 560 l 603 0 l 564 0 l 643 378 l 365 378 q 171 333 238 378 q 85 197 104 289 q 78 140 78 163 q 121 50 78 79 q 258 21 164 21 q 354 32 317 21 l 347 -4 q 239 -14 304 -14 z "},"ส":{"ha":826,"x_min":40,"x_max":824,"o":"m 239 -14 q 93 24 146 -14 q 40 139 40 63 q 47 197 40 163 q 147 359 69 304 q 371 414 224 414 l 651 414 l 671 504 q 683 599 683 569 q 638 699 683 668 q 479 729 592 729 q 232 694 342 729 l 239 731 q 490 764 344 764 q 610 750 564 764 l 824 750 l 814 714 l 672 714 q 721 596 721 674 q 710 507 721 560 l 603 0 l 564 0 l 643 378 l 365 378 q 171 333 238 378 q 85 197 104 289 q 78 140 78 163 q 121 50 78 79 q 258 21 164 21 q 354 32 317 21 l 347 -4 q 239 -14 304 -14 z "},"บ":{"ha":824,"x_min":79,"x_max":793,"o":"m 331 -14 q 79 183 79 -14 q 89 265 79 225 l 192 750 l 231 750 l 125 253 q 117 182 117 214 q 171 60 117 100 q 339 21 225 21 q 547 78 471 21 q 649 253 624 135 l 754 750 l 793 750 l 690 265 q 574 56 661 125 q 331 -14 488 -14 z "},"ป":{"ha":824,"x_min":79,"x_max":840,"o":"m 331 -14 q 79 183 79 -14 q 89 265 79 225 l 192 750 l 231 750 l 125 253 q 117 182 117 214 q 171 60 117 100 q 339 21 225 21 q 547 78 471 21 q 649 253 624 135 l 801 972 l 840 972 l 690 265 q 574 56 661 125 q 331 -14 488 -14 z "},"ษ":{"ha":856,"x_min":79,"x_max":822,"o":"m 331 -14 q 79 183 79 -14 q 89 265 79 225 l 192 750 l 231 750 l 125 253 q 117 182 117 214 q 171 60 117 100 q 339 21 225 21 q 547 78 471 21 q 649 253 624 135 l 681 403 l 443 403 l 451 439 l 688 439 l 754 750 l 793 750 l 726 439 l 822 439 l 808 403 l 719 403 l 690 265 q 574 56 661 125 q 331 -14 488 -14 z "},"ย":{"ha":786,"x_min":42,"x_max":756,"o":"m 303 -14 q 108 30 174 -14 q 42 153 42 74 q 47 200 42 167 q 110 328 64 279 q 222 396 156 378 q 151 438 178 407 q 125 519 125 468 q 131 568 125 544 q 215 715 151 665 q 367 764 279 764 q 468 753 424 764 l 460 717 q 368 729 422 729 q 239 691 292 729 q 168 568 186 653 q 163 519 163 546 q 200 440 163 467 q 322 413 238 413 l 404 413 l 401 376 l 308 376 q 161 331 219 376 q 85 200 103 285 q 81 157 81 178 q 311 21 81 21 q 607 233 563 21 l 717 750 l 756 750 l 646 229 q 303 -14 594 -14 z "},"ผ":{"ha":878,"x_min":33,"x_max":847,"o":"m 168 636 q 214 720 179 690 q 303 750 249 750 l 394 750 l 388 714 l 303 714 q 238 694 261 714 q 206 631 215 674 l 82 46 l 453 521 l 490 521 l 660 46 l 808 750 l 847 750 l 689 0 l 639 0 l 467 483 l 89 0 l 33 0 l 168 636 z "}}}
